<svg width="23" height="23" viewBox="0 0 23 23" fill="none" xmlns="http://www.w3.org/2000/svg">
<path d="M16.3413 0.366887L16.7937 1.75919C16.9341 2.18281 17.1717 2.56769 17.4876 2.88304C17.8034 3.1984 18.1886 3.43546 18.6124 3.57529L20.0047 4.02769L20.032 4.03549C20.1394 4.07329 20.2324 4.14349 20.2982 4.2364C20.364 4.32931 20.3993 4.44034 20.3993 4.55419C20.3993 4.66803 20.364 4.77907 20.2982 4.87198C20.2324 4.96489 20.1394 5.03509 20.032 5.07289L18.6397 5.52529C18.2159 5.66511 17.8307 5.90218 17.5149 6.21753C17.199 6.53288 16.9614 6.91776 16.821 7.34139L16.3686 8.73239C16.3308 8.83977 16.2606 8.93278 16.1677 8.99857C16.0748 9.06436 15.9637 9.09969 15.8499 9.09969C15.7361 9.09969 15.625 9.06436 15.5321 8.99857C15.4392 8.93278 15.369 8.83977 15.3312 8.73239L14.8775 7.34139C14.7382 6.91682 14.5013 6.5308 14.1859 6.21429C13.8703 5.89716 13.4847 5.6585 13.0601 5.51749L11.6678 5.06509C11.5604 5.02729 11.4674 4.95709 11.4016 4.86418C11.3358 4.77127 11.3005 4.66023 11.3005 4.54639C11.3005 4.43254 11.3358 4.32151 11.4016 4.2286C11.4674 4.13569 11.5604 4.06549 11.6678 4.02769L13.0601 3.57529C13.4786 3.43168 13.8581 3.19292 14.1688 2.87779C14.4794 2.56266 14.7126 2.17975 14.8502 1.75919L15.3026 0.368187C15.3401 0.26035 15.4103 0.16687 15.5034 0.100718C15.5964 0.0345657 15.7078 -0.000976563 15.822 -0.000976562C15.9361 -0.000976562 16.0475 0.0345657 16.1405 0.100718C16.2336 0.16687 16.3038 0.25905 16.3413 0.366887ZM22.7178 10.6785L21.722 10.3561C21.4198 10.2551 21.1453 10.0851 20.9201 9.85974C20.695 9.63434 20.5253 9.35965 20.4246 9.05739L20.0996 8.06419C20.0727 7.9874 20.0226 7.92087 19.9562 7.8738C19.8898 7.82673 19.8105 7.80145 19.7291 7.80145C19.6477 7.80145 19.5684 7.82673 19.502 7.8738C19.4356 7.92087 19.3855 7.9874 19.3586 8.06419L19.0362 9.05739C18.9373 9.35771 18.7704 9.63116 18.5486 9.85642C18.3267 10.0817 18.0558 10.2527 17.757 10.3561L16.7625 10.6785C16.6863 10.706 16.6204 10.7563 16.5739 10.8226C16.5273 10.8889 16.5023 10.968 16.5023 11.049C16.5023 11.13 16.5273 11.209 16.5739 11.2753C16.6204 11.3416 16.6863 11.392 16.7625 11.4195L17.757 11.7432C18.0601 11.8443 18.3354 12.0146 18.561 12.2407C18.7867 12.4669 18.9565 12.7425 19.057 13.0458L19.3794 14.039C19.4063 14.1158 19.4564 14.1823 19.5228 14.2294C19.5892 14.2764 19.6685 14.3017 19.7499 14.3017C19.8313 14.3017 19.9106 14.2764 19.977 14.2294C20.0434 14.1823 20.0935 14.1158 20.1204 14.039L20.4441 13.0458C20.545 12.7434 20.7148 12.4686 20.9402 12.2432C21.1656 12.0178 21.4404 11.8479 21.7428 11.7471L22.7373 11.4247C22.8135 11.3972 22.8794 11.3468 22.9259 11.2805C22.9725 11.2142 22.9975 11.1352 22.9975 11.0542C22.9975 10.9732 22.9725 10.8941 22.9259 10.8278C22.8794 10.7615 22.8135 10.7112 22.7373 10.6837L22.7178 10.6785ZM4.7999 3.90029H10.1364C10.0541 4.10755 10.0079 4.32741 9.9999 4.55029C10.0025 4.77389 10.0454 4.99489 10.126 5.20029H4.7999C4.11034 5.20029 3.44902 5.47422 2.96142 5.96181C2.47383 6.4494 2.1999 7.11072 2.1999 7.80029V18.2003C2.1999 18.8899 2.47383 19.5512 2.96142 20.0388C3.44902 20.5264 4.11034 20.8003 4.7999 20.8003H15.1999C15.8895 20.8003 16.5508 20.5264 17.0384 20.0388C17.526 19.5512 17.7999 18.8899 17.7999 18.2003V13.3864L17.8259 13.4553L18.1379 14.4433C18.2187 14.6716 18.3459 14.8807 18.5115 15.0574C18.677 15.2342 18.8774 15.3747 19.0999 15.4703V18.2003C19.0999 19.2346 18.689 20.2266 17.9576 20.958C17.2262 21.6894 16.2342 22.1003 15.1999 22.1003H4.7999C3.76556 22.1003 2.77358 21.6894 2.04219 20.958C1.31079 20.2266 0.899902 19.2346 0.899902 18.2003V7.80029C0.899902 6.76594 1.31079 5.77396 2.04219 5.04257C2.77358 4.31118 3.76556 3.90029 4.7999 3.90029ZM4.1499 6.50029H11.9356L12.7299 6.76029C12.9242 6.81806 13.1022 6.92045 13.2499 7.05929L13.3279 7.13729C13.4735 7.27639 13.5879 7.44539 13.6659 7.63129V7.74829L13.6828 7.80029H4.1499C3.97751 7.80029 3.81218 7.73181 3.69028 7.60991C3.56838 7.48801 3.4999 7.32268 3.4999 7.15029C3.4999 6.9779 3.56838 6.81257 3.69028 6.69067C3.81218 6.56877 3.97751 6.50029 4.1499 6.50029ZM9.3499 11.7003H15.3286C15.3763 11.8156 15.4374 11.9239 15.5119 12.0253C15.7134 12.3126 16.0007 12.531 16.3309 12.6493L16.4128 12.6753C16.3558 12.7741 16.2737 12.8561 16.1749 12.9132C16.0761 12.9702 15.964 13.0003 15.8499 13.0003H9.3499C9.17751 13.0003 9.01218 12.9318 8.89028 12.8099C8.76838 12.688 8.6999 12.5227 8.6999 12.3503C8.6999 12.1779 8.76838 12.0126 8.89028 11.8907C9.01218 11.7688 9.17751 11.7003 9.3499 11.7003ZM5.4499 14.3003C5.96707 14.3003 6.46306 14.0948 6.82876 13.7291C7.19446 13.3635 7.3999 12.8675 7.3999 12.3503C7.3999 11.8331 7.19446 11.3371 6.82876 10.9714C6.46306 10.6057 5.96707 10.4003 5.4499 10.4003C4.93273 10.4003 4.43674 10.6057 4.07104 10.9714C3.70535 11.3371 3.4999 11.8331 3.4999 12.3503C3.4999 12.8675 3.70535 13.3635 4.07104 13.7291C4.43674 14.0948 4.93273 14.3003 5.4499 14.3003ZM5.4499 13.0003C5.27751 13.0003 5.11218 12.9318 4.99028 12.8099C4.86838 12.688 4.7999 12.5227 4.7999 12.3503C4.7999 12.1779 4.86838 12.0126 4.99028 11.8907C5.11218 11.7688 5.27751 11.7003 5.4499 11.7003C5.62229 11.7003 5.78762 11.7688 5.90952 11.8907C6.03142 12.0126 6.0999 12.1779 6.0999 12.3503C6.0999 12.5227 6.03142 12.688 5.90952 12.8099C5.78762 12.9318 5.62229 13.0003 5.4499 13.0003ZM7.3999 17.5503C7.3999 18.0675 7.19446 18.5634 6.82876 18.9291C6.46306 19.2948 5.96707 19.5003 5.4499 19.5003C4.93273 19.5003 4.43674 19.2948 4.07104 18.9291C3.70535 18.5634 3.4999 18.0675 3.4999 17.5503C3.4999 17.0331 3.70535 16.5371 4.07104 16.1714C4.43674 15.8057 4.93273 15.6003 5.4499 15.6003C5.96707 15.6003 6.46306 15.8057 6.82876 16.1714C7.19446 16.5371 7.3999 17.0331 7.3999 17.5503ZM6.0999 17.5503C6.0999 17.3779 6.03142 17.2126 5.90952 17.0907C5.78762 16.9688 5.62229 16.9003 5.4499 16.9003C5.27751 16.9003 5.11218 16.9688 4.99028 17.0907C4.86838 17.2126 4.7999 17.3779 4.7999 17.5503C4.7999 17.7227 4.86838 17.888 4.99028 18.0099C5.11218 18.1318 5.27751 18.2003 5.4499 18.2003C5.62229 18.2003 5.78762 18.1318 5.90952 18.0099C6.03142 17.888 6.0999 17.7227 6.0999 17.5503ZM9.3499 16.9003C9.17751 16.9003 9.01218 16.9688 8.89028 17.0907C8.76838 17.2126 8.6999 17.3779 8.6999 17.5503C8.6999 17.7227 8.76838 17.888 8.89028 18.0099C9.01218 18.1318 9.17751 18.2003 9.3499 18.2003H15.8499C16.0223 18.2003 16.1876 18.1318 16.3095 18.0099C16.4314 17.888 16.4999 17.7227 16.4999 17.5503C16.4999 17.3779 16.4314 17.2126 16.3095 17.0907C16.1876 16.9688 16.0223 16.9003 15.8499 16.9003H9.3499Z" fill="#041A6A"/>
</svg>
