<svg width="12" height="12" viewBox="0 0 12 12" fill="none" xmlns="http://www.w3.org/2000/svg">
<path d="M6 3.31875C5.9 3.31875 5.80625 3.33425 5.71875 3.36525C5.63125 3.39625 5.55 3.4495 5.475 3.525L2.775 6.225C2.625 6.375 2.553 6.55 2.559 6.75C2.565 6.95 2.637 7.125 2.775 7.275C2.925 7.425 3.10325 7.503 3.30975 7.509C3.51625 7.515 3.69425 7.44325 3.84375 7.29375L5.25 5.8875V11.25C5.25 11.4625 5.322 11.6405 5.466 11.784C5.61 11.9275 5.788 11.9995 6 12C6.212 12.0005 6.39025 11.9285 6.53475 11.784C6.67925 11.6395 6.751 11.4615 6.75 11.25V5.8875L8.15625 7.29375C8.30625 7.44375 8.4845 7.51575 8.691 7.50975C8.8975 7.50375 9.0755 7.4255 9.225 7.275C9.3625 7.125 9.4345 6.95 9.441 6.75C9.4475 6.55 9.3755 6.375 9.225 6.225L6.525 3.525C6.45 3.45 6.36875 3.39675 6.28125 3.36525C6.19375 3.33375 6.1 3.31825 6 3.31875ZM1.5 -2.86102e-06C1.0875 -2.86102e-06 0.7345 0.146747 0.441 0.440247C0.1475 0.733747 0.0005 1.087 0 1.5V3C0 3.2125 0.0720001 3.3905 0.216 3.534C0.36 3.6775 0.538 3.7495 0.75 3.75C0.962 3.7505 1.14025 3.6785 1.28475 3.534C1.42925 3.3895 1.501 3.2115 1.5 3V1.5H10.5V3C10.5 3.2125 10.572 3.3905 10.716 3.534C10.86 3.6775 11.038 3.7495 11.25 3.75C11.462 3.7505 11.6402 3.6785 11.7847 3.534C11.9292 3.3895 12.001 3.2115 12 3V1.5C12 1.0875 11.8533 0.734247 11.5597 0.440247C11.2662 0.146247 10.913 -0.000502586 10.5 -2.86102e-06H1.5Z" fill="white"/>
</svg>
