<svg width="22" height="22" viewBox="0 0 22 22" fill="none" xmlns="http://www.w3.org/2000/svg">
<path d="M6.80959 13.0956H14.1429M6.80959 15.1908H9.95245M17.2858 16.2384V8.90509L12.0477 3.66699H6.80959C6.2539 3.66699 5.72097 3.88774 5.32804 4.28067C4.9351 4.67361 4.71436 5.20654 4.71436 5.76223V16.2384C4.71436 16.7941 4.9351 17.327 5.32804 17.72C5.72097 18.1129 6.2539 18.3337 6.80959 18.3337H15.1905C15.7462 18.3337 16.2792 18.1129 16.6721 17.72C17.065 17.327 17.2858 16.7941 17.2858 16.2384Z" stroke="#3425FF" stroke-width="1.04762" stroke-linecap="round" stroke-linejoin="round"/>
<path d="M9.72919 9.1665L8.37512 7.81244M8.37512 7.81244L7.02106 9.1665M8.37512 7.81244L8.37512 11.333M10 7L6.75024 7" stroke="#3425FF" stroke-width="1.05" stroke-linecap="round" stroke-linejoin="round"/>
<path d="M12.0476 3.66699V6.80985C12.0476 7.36554 12.2684 7.89847 12.6613 8.29141C13.0542 8.68434 13.5872 8.90509 14.1428 8.90509H17.2857" stroke="#3425FF" stroke-width="1.04762" stroke-linecap="round" stroke-linejoin="round"/>
</svg>
