<svg width="58" height="58" viewBox="0 0 58 58" fill="none" xmlns="http://www.w3.org/2000/svg">
<rect x="0.5" y="0.5" width="57" height="57" rx="28.5" stroke="#9F9F9F"/>
<path d="M19 29C19 24.757 19 22.636 20.464 21.318C21.93 20 24.286 20 29 20C33.714 20 36.071 20 37.535 21.318C38.999 22.636 39 24.758 39 29C39 33.242 39 35.364 37.535 36.682C36.072 38 33.714 38 29 38C24.286 38 21.929 38 20.464 36.682C18.999 35.364 19 33.242 19 29Z" stroke="#9F9F9F" stroke-width="2" stroke-linecap="round" stroke-linejoin="round"/>
<path d="M22 33.5C23.208 30.919 27.712 30.75 29 33.5M27.5 26.5C27.5 27.0304 27.2893 27.5391 26.9142 27.9142C26.5391 28.2893 26.0304 28.5 25.5 28.5C24.9696 28.5 24.4609 28.2893 24.0858 27.9142C23.7107 27.5391 23.5 27.0304 23.5 26.5C23.5 25.9696 23.7107 25.4609 24.0858 25.0858C24.4609 24.7107 24.9696 24.5 25.5 24.5C26.0304 24.5 26.5391 24.7107 26.9142 25.0858C27.2893 25.4609 27.5 25.9696 27.5 26.5Z" stroke="#9F9F9F" stroke-width="2" stroke-linecap="round"/>
<path d="M32 27H36M32 31H36" stroke="#9F9F9F" stroke-width="2" stroke-linecap="round" stroke-linejoin="round"/>
</svg>
