<svg width="58" height="58" viewBox="0 0 58 58" fill="none" xmlns="http://www.w3.org/2000/svg">
<rect x="0.5" y="0.5" width="57" height="57" rx="28.5" stroke="#9F9F9F"/>
<path d="M31.25 32.75H26.75C26.1533 32.75 25.581 32.9871 25.159 33.409C24.7371 33.831 24.5 34.4033 24.5 35V36.5H26V35C26 34.8011 26.079 34.6103 26.2197 34.4697C26.3603 34.329 26.5511 34.25 26.75 34.25H31.25C31.4489 34.25 31.6397 34.329 31.7803 34.4697C31.921 34.6103 32 34.8011 32 35V36.5H33.5V35C33.5 34.4033 33.2629 33.831 32.841 33.409C32.419 32.9871 31.8467 32.75 31.25 32.75ZM29 32C29.5933 32 30.1734 31.8241 30.6667 31.4944C31.1601 31.1648 31.5446 30.6962 31.7716 30.1481C31.9987 29.5999 32.0581 28.9967 31.9424 28.4147C31.8266 27.8328 31.5409 27.2982 31.1213 26.8787C30.7018 26.4591 30.1672 26.1734 29.5853 26.0576C29.0033 25.9419 28.4001 26.0013 27.8519 26.2284C27.3038 26.4554 26.8352 26.8399 26.5056 27.3333C26.1759 27.8266 26 28.4067 26 29C26 29.7957 26.3161 30.5587 26.8787 31.1213C27.4413 31.6839 28.2044 32 29 32ZM29 27.5C29.2967 27.5 29.5867 27.588 29.8334 27.7528C30.08 27.9176 30.2723 28.1519 30.3858 28.426C30.4994 28.7001 30.5291 29.0017 30.4712 29.2926C30.4133 29.5836 30.2704 29.8509 30.0607 30.0607C29.8509 30.2704 29.5836 30.4133 29.2926 30.4712C29.0017 30.5291 28.7001 30.4994 28.426 30.3858C28.1519 30.2723 27.9176 30.08 27.7528 29.8334C27.588 29.5867 27.5 29.2967 27.5 29C27.5 28.6022 27.658 28.2206 27.9393 27.9393C28.2206 27.658 28.6022 27.5 29 27.5Z" fill="#9F9F9F"/>
<path d="M35.75 20.75H33.5V20C33.5 19.6022 33.342 19.2206 33.0607 18.9393C32.7794 18.658 32.3978 18.5 32 18.5H26C25.6022 18.5 25.2206 18.658 24.9393 18.9393C24.658 19.2206 24.5 19.6022 24.5 20V20.75H22.25C21.8522 20.75 21.4706 20.908 21.1893 21.1893C20.908 21.4706 20.75 21.8522 20.75 22.25V38C20.75 38.3978 20.908 38.7794 21.1893 39.0607C21.4706 39.342 21.8522 39.5 22.25 39.5H35.75C36.1478 39.5 36.5294 39.342 36.8107 39.0607C37.092 38.7794 37.25 38.3978 37.25 38V22.25C37.25 21.8522 37.092 21.4706 36.8107 21.1893C36.5294 20.908 36.1478 20.75 35.75 20.75ZM26 20H32V23H26V20ZM35.75 38H22.25V22.25H24.5V24.5H33.5V22.25H35.75V38Z" fill="#9F9F9F"/>
</svg>
