<svg width="26" height="22" viewBox="0 0 26 22" fill="none" xmlns="http://www.w3.org/2000/svg">
<path d="M11.8828 1.99805C12.479 1.33229 13.521 1.33229 14.1172 1.99805L15.1016 3.09668C15.608 3.66239 16.3444 3.96769 17.1025 3.92578L18.5752 3.84473C19.4677 3.79543 20.2046 4.53233 20.1553 5.4248L20.0742 6.89746C20.0323 7.65558 20.3376 8.392 20.9033 8.89844L22.002 9.88281C22.6677 10.479 22.6677 11.521 22.002 12.1172L20.9033 13.1016C20.3376 13.608 20.0323 14.3444 20.0742 15.1025L20.1553 16.5752C20.2046 17.4677 19.4677 18.2046 18.5752 18.1553L17.1025 18.0742C16.3444 18.0323 15.608 18.3376 15.1016 18.9033L14.1172 20.002C13.521 20.6677 12.479 20.6677 11.8828 20.002L10.8984 18.9033C10.392 18.3376 9.65558 18.0323 8.89746 18.0742L7.4248 18.1553C6.53233 18.2046 5.79543 17.4677 5.84473 16.5752L5.92578 15.1025C5.96769 14.3444 5.66239 13.608 5.09668 13.1016L3.99805 12.1172C3.33229 11.521 3.33229 10.479 3.99805 9.88281L5.09668 8.89844C5.66239 8.392 5.96769 7.65559 5.92578 6.89746L5.84473 5.4248C5.79543 4.53233 6.53233 3.79543 7.4248 3.84473L8.89746 3.92578C9.65558 3.96769 10.392 3.66239 10.8984 3.09668L11.8828 1.99805Z" fill="#3425FF" stroke="#3425FF"/>
<path d="M9.27148 12.0005L11.1221 13.6378C11.3271 13.8191 11.6396 13.802 11.8236 13.5995L16.0002 9.00049" stroke="white" stroke-width="1.5" stroke-linecap="round"/>
</svg>
