<svg width="58" height="58" viewBox="0 0 58 58" fill="none" xmlns="http://www.w3.org/2000/svg">
<rect x="0.5" y="0.5" width="57" height="57" rx="28.5" fill="#D7D7D7"/>
<rect x="0.5" y="0.5" width="57" height="57" rx="28.5" fill="#E8E6FF"/>
<rect x="0.5" y="0.5" width="57" height="57" rx="28.5" stroke="#3425FF"/>
<path d="M21.498 22C20.195 21.978 19.57 22.235 19.223 23.143C19.013 23.693 19 24.297 19 24.887V35C19.108 35.635 19.288 36.056 19.742 36.4C20.483 36.961 21.467 37.038 22.382 37.203C24.386 37.566 26.129 38.181 28.994 39M28.994 39C31.647 38.179 33.544 37.61 35.322 37.282C36.743 37.02 38.552 36.843 38.872 35.432C38.956 35.062 38.994 34.597 38.987 34V26.266C38.987 24.762 39.215 22.745 37.843 22.13C37.499 21.977 37.066 21.95 36.489 22M28.994 39V32M28.993 29C30.3186 28.9992 31.5896 28.4721 32.5266 27.5345C33.4636 26.5969 33.99 25.3256 33.99 24C33.99 21.239 31.753 19 28.993 19M28.993 29C27.6674 28.9992 26.3964 28.4721 25.4594 27.5345C24.5224 26.5969 23.996 25.3256 23.996 24C23.996 21.239 26.233 19 28.993 19M28.993 29C30.097 29 30.992 26.761 30.992 24C30.992 21.239 30.097 19 28.992 19M28.993 19C27.889 19 26.994 21.239 26.994 24C26.994 26.761 27.889 29 28.992 29" stroke="#3425FF" stroke-width="1.5" stroke-linecap="round" stroke-linejoin="round"/>
</svg>
