<svg width="18" height="18" viewBox="0 0 18 18" fill="none" xmlns="http://www.w3.org/2000/svg">
<g clip-path="url(#clip0_6028_602)">
<path d="M4.87549 6.75H4.12549M7.87549 6.75H7.12549M4.87549 4.5H4.12549M7.87549 4.5H7.12549M13.8755 11.25H13.1255M13.8755 8.25H13.1255" stroke="black" stroke-width="1.05" stroke-linecap="round"/>
<path d="M10.5 6V16.5H13.5C14.9145 16.5 15.621 16.5 16.0605 16.0605C16.5 15.621 16.5 14.9145 16.5 13.5V9C16.5 7.5855 16.5 6.879 16.0605 6.4395C15.621 6 14.9145 6 13.5 6H10.5ZM10.5 6C10.5 3.879 10.5 2.81775 9.84075 2.15925C9.18225 1.5 8.121 1.5 6 1.5C3.879 1.5 2.81775 1.5 2.15925 2.15925C1.5 2.81775 1.5 3.879 1.5 6V7.5" stroke="black" stroke-width="1.05" stroke-linecap="round" stroke-linejoin="round"/>
<path d="M6.01896 10.4653C6.02333 10.665 5.98774 10.8636 5.91429 11.0495C5.84084 11.2353 5.73101 11.4045 5.59125 11.5473C5.45148 11.6901 5.28459 11.8035 5.10039 11.8809C4.91619 11.9583 4.71837 11.9981 4.51857 11.998C4.31877 11.9979 4.12099 11.9579 3.93687 11.8803C3.75274 11.8028 3.58597 11.6892 3.44635 11.5462C3.30672 11.4033 3.19706 11.2339 3.1238 11.0481C3.05053 10.8622 3.01515 10.6635 3.01971 10.4638C3.02867 10.0719 3.1907 9.69902 3.47112 9.42507C3.75153 9.15113 4.12805 8.99785 4.52007 8.99805C4.91209 8.99824 5.28845 9.1519 5.56859 9.42612C5.84874 9.70034 6.01039 10.0733 6.01896 10.4653ZM1.55271 15.1565C2.34621 13.9355 3.60696 13.478 4.51896 13.4788C5.43096 13.4795 6.65421 13.9355 7.44846 15.1565C7.49946 15.2353 7.51371 15.3328 7.46721 15.4145C7.28196 15.7438 6.70521 16.397 6.28971 16.4405C5.81046 16.4915 4.55946 16.499 4.51971 16.499C4.47996 16.499 3.18996 16.4915 2.71221 16.4405C2.29521 16.3963 1.71921 15.7438 1.53321 15.4145C1.51234 15.3739 1.50312 15.3283 1.50656 15.2828C1.51 15.2372 1.52598 15.1935 1.55271 15.1565Z" stroke="black" stroke-width="1.05" stroke-linecap="round"/>
</g>
<defs>
<clipPath id="clip0_6028_602">
<rect width="18" height="18" fill="white"/>
</clipPath>
</defs>
</svg>
