<svg width="18" height="18" viewBox="0 0 18 18" fill="none" xmlns="http://www.w3.org/2000/svg">
<path d="M6.75006 12.75V15.75L9.00006 14.25L11.2501 15.75V12.75M10.4678 3.20624L10.2256 2.87324C10.0848 2.68016 9.90046 2.52306 9.68749 2.41476C9.47453 2.30645 9.23898 2.25 9.00006 2.25C8.76113 2.25 8.52559 2.30645 8.31262 2.41476C8.09965 2.52306 7.91529 2.68016 7.77456 2.87324L7.53231 3.20624L7.12506 3.14249C6.88906 3.10527 6.64761 3.12439 6.42042 3.1983C6.19323 3.2722 5.98673 3.39879 5.8178 3.56773C5.64886 3.73666 5.52227 3.94315 5.44837 4.17035C5.37447 4.39754 5.35534 4.63899 5.39256 4.87499L5.45631 5.28224L5.12331 5.52449C4.92995 5.66502 4.77259 5.84932 4.66409 6.06231C4.55559 6.2753 4.49902 6.51095 4.49902 6.74998C4.49902 6.98902 4.55559 7.22467 4.66409 7.43766C4.77259 7.65065 4.92995 7.83495 5.12331 7.97548L5.45631 8.21773L5.39256 8.62423C5.35521 8.86029 5.37423 9.10182 5.44808 9.32912C5.52192 9.55641 5.64849 9.76301 5.81744 9.93203C5.9864 10.1011 6.19294 10.2277 6.4202 10.3017C6.64746 10.3756 6.88899 10.3947 7.12506 10.3575L7.53231 10.2937L7.77456 10.6267C7.91529 10.8198 8.09965 10.9769 8.31262 11.0852C8.52559 11.1935 8.76113 11.25 9.00006 11.25C9.23898 11.25 9.47453 11.1935 9.68749 11.0852C9.90046 10.9769 10.0848 10.8198 10.2256 10.6267L10.4678 10.2937L10.8743 10.3575C11.1104 10.3948 11.3519 10.3758 11.5792 10.302C11.8065 10.2281 12.0131 10.1016 12.1821 9.9326C12.3511 9.76365 12.4778 9.5571 12.5517 9.32984C12.6257 9.10258 12.6448 8.86105 12.6076 8.62498L12.5438 8.21773L12.8768 7.97548C13.0699 7.83475 13.227 7.65039 13.3353 7.43742C13.4436 7.22445 13.5 6.98891 13.5 6.74998C13.5 6.51106 13.4436 6.27552 13.3353 6.06255C13.227 5.84958 13.0699 5.66522 12.8768 5.52449L12.5438 5.28224L12.6076 4.87574C12.6449 4.63968 12.6259 4.39815 12.552 4.17085C12.4782 3.94356 12.3516 3.73696 12.1827 3.56794C12.0137 3.39891 11.8072 3.27225 11.5799 3.19831C11.3527 3.12437 11.1111 3.10524 10.8751 3.14249L10.4678 3.20624Z" stroke="black" stroke-width="1.05" stroke-linecap="round" stroke-linejoin="round"/>
</svg>
