<svg width="58" height="58" viewBox="0 0 58 58" fill="none" xmlns="http://www.w3.org/2000/svg">
<rect x="0.5" y="0.5" width="57" height="57" rx="28.5" fill="#D7D7D7"/>
<rect x="0.5" y="0.5" width="57" height="57" rx="28.5" fill="#E8E6FF"/>
<rect x="0.5" y="0.5" width="57" height="57" rx="28.5" stroke="#3425FF"/>
<path d="M21 25V23C21 22.4696 21.2107 21.9609 21.5858 21.5858C21.9609 21.2107 22.4696 21 23 21H25M21 33V35C21 35.5304 21.2107 36.0391 21.5858 36.4142C21.9609 36.7893 22.4696 37 23 37H25M33 21H35C35.5304 21 36.0391 21.2107 36.4142 21.5858C36.7893 21.9609 37 22.4696 37 23V25M33 37H35C35.5304 37 36.0391 36.7893 36.4142 36.4142C36.7893 36.0391 37 35.5304 37 35V33M26 27H26.01M32 27H32.01M26.5 32C26.8259 32.3326 27.2148 32.5968 27.6441 32.7772C28.0734 32.9576 28.5344 33.0505 29 33.0505C29.4656 33.0505 29.9266 32.9576 30.3559 32.7772C30.7852 32.5968 31.1741 32.3326 31.5 32" stroke="#3425FF" stroke-width="2" stroke-linecap="round" stroke-linejoin="round"/>
</svg>
