<svg width="18" height="18" viewBox="0 0 18 18" fill="none" xmlns="http://www.w3.org/2000/svg">
<path d="M4.44336 13.2754H4.44434C4.52361 13.2754 4.60134 13.2791 4.67773 13.2852C4.51748 13.5026 4.37249 13.733 4.24316 13.9756C4.03374 14.3685 3.87564 14.7852 3.76953 15.2246H2.45605C2.32328 15.2245 2.22735 15.1854 2.13965 15.1035C2.04236 15.0127 2.02543 14.9461 2.02539 14.8877C2.02539 14.6333 2.17838 14.2904 2.7168 13.8652C3.21566 13.4713 3.78415 13.275 4.44336 13.2754ZM13.5381 13.2754C14.198 13.2755 14.7715 13.4718 15.2773 13.8672C15.8224 14.2933 15.9756 14.6362 15.9756 14.8877C15.9755 14.9662 15.952 15.031 15.8672 15.1074C15.7854 15.181 15.6836 15.2249 15.5264 15.2246H14.2305C14.1243 14.7848 13.9664 14.3674 13.7568 13.9746C13.6273 13.7319 13.4818 13.5019 13.3213 13.2842C13.3916 13.2789 13.464 13.2754 13.5381 13.2754ZM9 13.2754C9.38994 13.2759 9.75665 13.3404 10.1035 13.4678C10.4536 13.5964 10.7651 13.7781 11.041 14.0127C11.3252 14.2544 11.5662 14.5297 11.7637 14.8408C11.8406 14.962 11.9056 15.0907 11.9639 15.2246H6.03711C6.09549 15.0901 6.16137 14.9607 6.23828 14.8389C6.43429 14.5284 6.6738 14.2537 6.95801 14.0137C7.23556 13.7793 7.54802 13.5975 7.89844 13.4678C8.24425 13.3397 8.61057 13.275 9 13.2754ZM4.50195 9.52539C4.7714 9.52484 4.99083 9.61485 5.18848 9.8125C5.38621 10.0102 5.47656 10.2293 5.47559 10.498C5.47459 10.7698 5.38294 10.9916 5.18652 11.1904C4.99357 11.3857 4.77578 11.4759 4.50293 11.4746H4.5C4.22781 11.4746 4.00818 11.3842 3.8125 11.1885C3.61675 10.9927 3.52572 10.7722 3.52539 10.499C3.52514 10.2271 3.61573 10.0083 3.81152 9.81348C4.00901 9.617 4.23026 9.52605 4.50195 9.52539ZM13.502 9.52539C13.7714 9.52484 13.9908 9.61485 14.1885 9.8125C14.3862 10.0102 14.4766 10.2293 14.4756 10.498C14.4746 10.7698 14.3829 10.9916 14.1865 11.1904C13.9936 11.3857 13.7758 11.4759 13.5029 11.4746H13.5C13.2278 11.4746 13.0082 11.3842 12.8125 11.1885C12.6167 10.9927 12.5257 10.7722 12.5254 10.499C12.5251 10.2271 12.6157 10.0083 12.8115 9.81348C13.009 9.617 13.2303 9.52605 13.502 9.52539ZM9 8.02539C9.38947 8.02539 9.69856 8.15369 9.95996 8.41504C10.2214 8.67646 10.3506 8.98548 10.3506 9.375C10.3506 9.76452 10.2214 10.0735 9.95996 10.335C9.69856 10.5963 9.38947 10.7246 9 10.7246C8.61057 10.7246 8.30141 10.5963 8.04004 10.335C7.77869 10.0736 7.65039 9.76447 7.65039 9.375C7.65039 8.98553 7.77869 8.67644 8.04004 8.41504C8.30141 8.15366 8.61057 8.02543 9 8.02539ZM9 2.40039C9.21762 2.40039 9.41166 2.46568 9.59766 2.60938L9.59961 2.61035L11.6807 4.2041L12.5254 4.85059V3.375C12.5254 3.20043 12.5802 3.06904 12.6992 2.9502C12.8191 2.83064 12.9514 2.77568 13.126 2.77539C13.2992 2.77511 13.4305 2.82992 13.5508 2.9502C13.671 3.07037 13.7261 3.20096 13.7256 3.37305V5.77148L13.9307 5.92969L16.3301 7.76562V7.7666C16.3873 7.81069 16.4126 7.85377 16.4229 7.91895C16.4314 7.97326 16.4245 8.02318 16.374 8.09375C16.327 8.15935 16.2903 8.1733 16.2471 8.17871C16.1886 8.18599 16.1324 8.17658 16.0566 8.12305L9.31934 2.97656L9 2.7334L8.68164 2.97656L1.94043 8.125C1.86692 8.17641 1.81171 8.18605 1.75293 8.17871C1.70907 8.17323 1.67311 8.15935 1.62695 8.09473C1.57315 8.01929 1.56381 7.96217 1.57129 7.90234C1.57679 7.85864 1.59089 7.82336 1.65527 7.77734L1.66211 7.77246L1.66992 7.7666L8.40039 2.61035L8.40234 2.60938C8.5883 2.46568 8.78243 2.40043 9 2.40039Z" stroke="black" stroke-width="1.05"/>
</svg>
