<svg width="18" height="18" viewBox="0 0 18 18" fill="none" xmlns="http://www.w3.org/2000/svg">
<path d="M13.125 9.90039C14.9172 9.90039 16.3496 11.3328 16.3496 13.125C16.3496 14.9172 14.9172 16.3496 13.125 16.3496C11.3328 16.3496 9.90039 14.9172 9.90039 13.125C9.90039 11.3328 11.3328 9.90039 13.125 9.90039ZM8.09961 10.2754V15.9746H2.40039V10.2754H8.09961ZM13.125 11.0996C12.5879 11.0996 12.0731 11.3136 11.6934 11.6934C11.3136 12.0731 11.0996 12.5879 11.0996 13.125C11.0996 13.6621 11.3136 14.1769 11.6934 14.5566C12.0731 14.9364 12.5879 15.1504 13.125 15.1504C13.6621 15.1504 14.1769 14.9364 14.5566 14.5566C14.9364 14.1769 15.1504 13.6621 15.1504 13.125C15.1504 12.5879 14.9364 12.0731 14.5566 11.6934C14.1769 11.3136 13.6621 11.0996 13.125 11.0996ZM3.59961 14.7754H6.90039V11.4746H3.59961V14.7754ZM12.8574 8.09961H5.14258L9 1.78711L12.8574 8.09961ZM8.87207 4.31641L7.43164 6.67188L7.29199 6.90039H10.708L10.5684 6.67188L9.12793 4.31641L9 4.10742L8.87207 4.31641Z" fill="black" stroke="white" stroke-width="0.3"/>
</svg>
