<svg width="18" height="18" viewBox="0 0 18 18" fill="none" xmlns="http://www.w3.org/2000/svg">
<path d="M5.0957 12.6719C5.23574 12.631 5.38675 12.6476 5.51465 12.7178C5.64247 12.7879 5.73749 12.9059 5.77832 13.0459C5.81916 13.1859 5.80256 13.3369 5.73242 13.4648C5.66233 13.5925 5.54408 13.6867 5.4043 13.7275C5.01994 13.8398 4.7316 13.9618 4.53809 14.0791L4.25488 14.251L4.53906 14.4219C4.73776 14.5412 5.03762 14.6668 5.43848 14.7812C6.32711 15.0351 7.58653 15.2002 9 15.2002C10.4135 15.2002 11.6729 15.0351 12.5615 14.7812C12.9633 14.6668 13.2623 14.5411 13.4609 14.4219L13.7451 14.251L13.4619 14.0791C13.2692 13.9618 12.9819 13.8396 12.5986 13.7275C12.4615 13.6847 12.3464 13.5904 12.2783 13.4639C12.21 13.3369 12.1941 13.1883 12.2344 13.0498C12.2747 12.9113 12.3683 12.7941 12.4941 12.7236C12.6199 12.6533 12.7682 12.6349 12.9072 12.6729C13.3967 12.816 13.8318 12.9962 14.1592 13.2197C14.4686 13.4324 14.7998 13.7706 14.7998 14.25C14.7998 14.7348 14.4605 15.0759 14.1455 15.2891C13.8116 15.514 13.3655 15.6955 12.8633 15.8389C11.8523 16.1287 10.4869 16.2998 9 16.2998C7.51311 16.2998 6.14766 16.1287 5.13672 15.8389C4.63449 15.6955 4.18746 15.514 3.85352 15.2891C3.5384 15.0749 3.2002 14.7343 3.2002 14.25C3.2002 13.7707 3.53053 13.4315 3.83984 13.2188C4.16787 12.9947 4.60489 12.8152 5.0957 12.6719ZM9 1.7002C10.4388 1.7002 11.8186 2.27168 12.8359 3.28906C13.8533 4.30645 14.4248 5.6862 14.4248 7.125C14.4248 8.86022 13.5375 10.3031 12.5439 11.3799L12.3447 11.5898C12.0258 11.913 11.689 12.2178 11.3359 12.5029L10.9775 12.7812C10.7616 12.9434 10.4016 13.1801 10.0908 13.3789C9.93661 13.4776 9.79631 13.5662 9.69434 13.6299C9.64345 13.6617 9.60177 13.6874 9.57324 13.7051C9.55898 13.7139 9.54752 13.721 9.54004 13.7256C9.5382 13.7267 9.53655 13.7277 9.53516 13.7285C9.37211 13.8212 9.18754 13.8701 9 13.8701C8.81246 13.8701 8.62789 13.8212 8.46484 13.7285C7.96645 13.4394 7.48376 13.1229 7.02051 12.7803C6.65688 12.5095 6.3094 12.2178 5.97949 11.9072L5.65527 11.5898C4.58435 10.4937 3.5752 8.97558 3.5752 7.125C3.5752 5.6862 4.14668 4.30645 5.16406 3.28906C6.18145 2.27168 7.5612 1.7002 9 1.7002ZM9 2.7998C7.85294 2.7998 6.7525 3.25531 5.94141 4.06641C5.13031 4.8775 4.6748 5.97794 4.6748 7.125C4.6748 8.56207 5.46263 9.81919 6.44238 10.8203V10.8193C6.9969 11.3865 7.59212 11.8512 8.0918 12.1963L8.55371 12.501L8.55664 12.5029L8.89648 12.708L9 12.7705L9.10352 12.708L9.44336 12.5029L9.44629 12.501C10.0062 12.1495 10.8185 11.5755 11.5576 10.8203C12.5373 9.8185 13.3252 8.56283 13.3252 7.125C13.3252 5.97794 12.8697 4.8775 12.0586 4.06641C11.2475 3.25531 10.1471 2.7998 9 2.7998ZM9 5.0752C9.26916 5.0752 9.5355 5.12846 9.78418 5.23145C10.0329 5.33447 10.2589 5.48542 10.4492 5.67578C10.6396 5.86614 10.7905 6.0921 10.8936 6.34082C10.9965 6.5895 11.0498 6.85584 11.0498 7.125C11.0498 7.39416 10.9965 7.6605 10.8936 7.90918C10.7905 8.1579 10.6396 8.38386 10.4492 8.57422C10.2589 8.76458 10.0329 8.91553 9.78418 9.01855C9.5355 9.12154 9.26916 9.1748 9 9.1748C8.45631 9.1748 7.93523 8.95867 7.55078 8.57422C7.16633 8.18977 6.9502 7.66869 6.9502 7.125C6.9502 6.58131 7.16633 6.06023 7.55078 5.67578C7.93523 5.29133 8.45631 5.0752 9 5.0752ZM9 6.1748C8.74804 6.1748 8.50628 6.27497 8.32812 6.45312C8.14997 6.63128 8.0498 6.87304 8.0498 7.125C8.0498 7.37696 8.14997 7.61872 8.32812 7.79688C8.50628 7.97503 8.74804 8.0752 9 8.0752C9.25196 8.0752 9.49372 7.97503 9.67188 7.79688C9.85003 7.61872 9.9502 7.37696 9.9502 7.125C9.9502 6.87304 9.85003 6.63128 9.67188 6.45312C9.49372 6.27497 9.25196 6.1748 9 6.1748Z" fill="black" stroke="#F7F7F7" stroke-width="0.4"/>
</svg>
