<svg width="18" height="18" viewBox="0 0 18 18" fill="none" xmlns="http://www.w3.org/2000/svg">
<path d="M3.75 3.15039H14.25C14.807 3.15039 15.3415 3.37082 15.7354 3.76465C16.1292 4.15847 16.3496 4.69305 16.3496 5.25V12.75C16.3496 13.307 16.1292 13.8415 15.7354 14.2354C15.3415 14.6292 14.807 14.8496 14.25 14.8496H3.75C3.19305 14.8496 2.65847 14.6292 2.26465 14.2354C1.87082 13.8415 1.65039 13.307 1.65039 12.75V5.25C1.65039 4.69305 1.87082 4.15847 2.26465 3.76465C2.65847 3.37082 3.19305 3.15039 3.75 3.15039ZM2.84961 12.75C2.84964 12.9703 2.93084 13.183 3.07715 13.3477C3.22359 13.5123 3.42568 13.6177 3.64453 13.6436L3.65332 13.6445L3.74121 13.6494V13.6504H14.25C14.4703 13.6504 14.683 13.5692 14.8477 13.4229C15.0123 13.2764 15.1177 13.0743 15.1436 12.8555L15.1445 12.8467L15.1494 12.7588H15.1504V7.34961H2.84961V12.75ZM10.5 9.90039H12.75C12.9028 9.9006 13.05 9.95858 13.1611 10.0635C13.2723 10.1685 13.3387 10.3122 13.3477 10.4648C13.3566 10.6175 13.3071 10.7675 13.209 10.8848C13.1113 11.0014 12.9732 11.0762 12.8223 11.0947L12.75 11.0996H10.5C10.3472 11.0994 10.2 11.0414 10.0889 10.9365C9.97767 10.8315 9.91131 10.6878 9.90234 10.5352C9.89338 10.3825 9.94289 10.2325 10.041 10.1152C10.1385 9.99878 10.2761 9.92303 10.4268 9.9043L10.5 9.89941V9.90039ZM3.75 4.34961C3.51131 4.34961 3.28206 4.4445 3.11328 4.61328C2.9445 4.78206 2.84961 5.01131 2.84961 5.25V6.15039H15.1504V5.25C15.1504 5.01131 15.0555 4.78206 14.8867 4.61328C14.7179 4.4445 14.4887 4.34961 14.25 4.34961H3.75Z" fill="black" stroke="white" stroke-width="0.3"/>
</svg>
