<svg width="58" height="58" viewBox="0 0 58 58" fill="none" xmlns="http://www.w3.org/2000/svg">
<rect x="0.5" y="0.5" width="57" height="57" rx="28.5" stroke="#B7B7B7"/>
<path d="M33 27C34.1046 27 35 26.1046 35 25C35 23.8954 34.1046 23 33 23C31.8954 23 31 23.8954 31 25C31 26.1046 31.8954 27 33 27Z" stroke="#9F9F9F" stroke-width="1.5"/>
<path d="M19 29.4999L20.752 27.9669C21.1911 27.583 21.7597 27.3802 22.3427 27.3997C22.9257 27.4192 23.4795 27.6595 23.892 28.0719L28.182 32.3619C28.5149 32.6947 28.9546 32.8995 29.4235 32.9401C29.8925 32.9807 30.3608 32.8546 30.746 32.5839L31.045 32.3739C31.6006 31.9837 32.2721 31.7935 32.9498 31.8343C33.6275 31.8752 34.2713 32.1447 34.776 32.5989L38 35.4999" stroke="#9F9F9F" stroke-width="1.5" stroke-linecap="round"/>
<path d="M39 29C39 33.714 39 36.071 37.535 37.535C36.072 39 33.714 39 29 39C24.286 39 21.929 39 20.464 37.535C19 36.072 19 33.714 19 29C19 24.286 19 21.929 20.464 20.464C21.93 19 24.286 19 29 19C33.714 19 36.071 19 37.535 20.464C38.509 21.438 38.835 22.807 38.945 25" stroke="#9F9F9F" stroke-width="1.5" stroke-linecap="round"/>
</svg>
