<svg width="13" height="11" viewBox="0 0 13 11" fill="none" xmlns="http://www.w3.org/2000/svg">
<path d="M1.1 10.0154C0.92 10.0154 0.74 9.96537 0.57 9.87537C0.22 9.68538 0 9.31537 0 8.91537V1.09537C0 0.695375 0.22 0.325375 0.57 0.135375C0.92 -0.054625 1.35 -0.044625 1.69 0.165375L4.72 2.08537C4.95 2.23537 5.02 2.54537 4.87 2.77537C4.79827 2.88662 4.68535 2.96488 4.556 2.993C4.42666 3.02111 4.29144 2.9968 4.18 2.92537L1.15 1.00538C1.15 1.00538 1.08 0.985375 1.05 1.00538C1.02 1.02538 1 1.05537 1 1.09537V8.91537C1 8.91537 1.02 8.98537 1.05 9.00537C1.08 9.02538 1.12 9.02538 1.15 9.00537L4.18 7.08537C4.29144 7.01395 4.42666 6.98964 4.556 7.01775C4.68535 7.04587 4.79827 7.12413 4.87 7.23537C4.94142 7.34682 4.96574 7.48204 4.93762 7.61138C4.9095 7.74072 4.83124 7.85364 4.72 7.92537L1.69 9.84538C1.51 9.95537 1.31 10.0154 1.1 10.0154Z" fill="#3425FF"/>
<path d="M5.0502 9.98549C4.8702 9.98549 4.6902 9.9455 4.5302 9.8555C4.1702 9.6655 3.9502 9.2955 3.9502 8.8855V1.11549C3.9502 0.705495 4.1702 0.335495 4.5302 0.145495C4.8902 -0.0445054 5.3202 -0.0245053 5.6602 0.195495L11.5302 4.08549C11.8402 4.28549 12.0202 4.63549 12.0202 5.00549C12.0202 5.37549 11.8402 5.71549 11.5302 5.92549L5.6602 9.8155C5.4802 9.9355 5.2702 9.99549 5.0502 9.99549V9.98549ZM5.0502 1.01549C5.0502 1.01549 5.0202 1.01549 5.0002 1.02549C4.9702 1.04549 4.9502 1.07549 4.9502 1.11549V8.8855C4.9502 8.8855 4.9702 8.95549 5.0002 8.9755C5.03019 8.9955 5.0702 8.9955 5.1002 8.9755L10.9702 5.08549L11.2502 4.50549L10.9702 4.92549L5.1002 1.03549C5.1002 1.03549 5.0602 1.01549 5.0502 1.01549Z" fill="#3425FF"/>
</svg>
