<svg width="58" height="58" viewBox="0 0 58 58" fill="none" xmlns="http://www.w3.org/2000/svg">
<g clip-path="url(#clip0_1331_1350)">
<path d="M22.1427 27.7151C22.1427 27.1468 22.3685 26.6018 22.7703 26.1999C23.1722 25.798 23.7173 25.5723 24.2856 25.5723C24.8539 25.5723 25.3989 25.798 25.8008 26.1999C26.2027 26.6018 26.4284 27.1468 26.4284 27.7151C26.4284 28.2834 26.2027 28.8285 25.8008 29.2304C25.3989 29.6322 24.8539 29.858 24.2856 29.858C23.7173 29.858 23.1722 29.6322 22.7703 29.2304C22.3685 28.8285 22.1427 28.2834 22.1427 27.7151ZM24.2856 26.858C24.0582 26.858 23.8402 26.9483 23.6795 27.109C23.5187 27.2698 23.4284 27.4878 23.4284 27.7151C23.4284 27.9425 23.5187 28.1605 23.6795 28.3212C23.8402 28.482 24.0582 28.5723 24.2856 28.5723C24.5129 28.5723 24.7309 28.482 24.8917 28.3212C25.0524 28.1605 25.1427 27.9425 25.1427 27.7151C25.1427 27.4878 25.0524 27.2698 24.8917 27.109C24.7309 26.9483 24.5129 26.858 24.2856 26.858ZM24.2856 31.5723C23.7173 31.5723 23.1722 31.798 22.7703 32.1999C22.3685 32.6018 22.1427 33.1468 22.1427 33.7151C22.1427 34.2834 22.3685 34.8285 22.7703 35.2304C23.1722 35.6322 23.7173 35.858 24.2856 35.858C24.8539 35.858 25.3989 35.6322 25.8008 35.2304C26.2027 34.8285 26.4284 34.2834 26.4284 33.7151C26.4284 33.1468 26.2027 32.6018 25.8008 32.1999C25.3989 31.798 24.8539 31.5723 24.2856 31.5723ZM23.4284 33.7151C23.4284 33.4878 23.5187 33.2698 23.6795 33.109C23.8402 32.9483 24.0582 32.858 24.2856 32.858C24.5129 32.858 24.7309 32.9483 24.8917 33.109C25.0524 33.2698 25.1427 33.4878 25.1427 33.7151C25.1427 33.9425 25.0524 34.1605 24.8917 34.3212C24.7309 34.482 24.5129 34.5723 24.2856 34.5723C24.0582 34.5723 23.8402 34.482 23.6795 34.3212C23.5187 34.1605 23.4284 33.9425 23.4284 33.7151ZM28.1427 27.5008C28.1427 27.3303 28.2104 27.1668 28.331 27.0463C28.4516 26.9257 28.6151 26.858 28.7856 26.858H35.2141C35.3846 26.858 35.5482 26.9257 35.6687 27.0463C35.7893 27.1668 35.857 27.3303 35.857 27.5008C35.857 27.6713 35.7893 27.8348 35.6687 27.9554C35.5482 28.076 35.3846 28.1437 35.2141 28.1437H28.7856C28.6151 28.1437 28.4516 28.076 28.331 27.9554C28.2104 27.8348 28.1427 27.6713 28.1427 27.5008ZM28.7856 32.858C28.6151 32.858 28.4516 32.9257 28.331 33.0463C28.2104 33.1668 28.1427 33.3303 28.1427 33.5008C28.1427 33.6713 28.2104 33.8348 28.331 33.9554C28.4516 34.076 28.6151 34.1437 28.7856 34.1437H35.2141C35.3846 34.1437 35.5482 34.076 35.6687 33.9554C35.7893 33.8348 35.857 33.6713 35.857 33.5008C35.857 33.3303 35.7893 33.1668 35.6687 33.0463C35.5482 32.9257 35.3846 32.858 35.2141 32.858H28.7856ZM22.1427 23.2151C22.1427 23.0446 22.2104 22.8811 22.331 22.7606C22.4516 22.64 22.6151 22.5723 22.7856 22.5723H35.2141C35.3846 22.5723 35.5482 22.64 35.6687 22.7606C35.7893 22.8811 35.857 23.0446 35.857 23.2151C35.857 23.3856 35.7893 23.5491 35.6687 23.6697C35.5482 23.7903 35.3846 23.858 35.2141 23.858H22.7856C22.6151 23.858 22.4516 23.7903 22.331 23.6697C22.2104 23.5491 22.1427 23.3856 22.1427 23.2151ZM22.7856 19.5723C21.9331 19.5723 21.1155 19.9109 20.5127 20.5137C19.9099 21.1165 19.5713 21.9341 19.5713 22.7866V35.2151C19.5713 36.0676 19.9099 36.8852 20.5127 37.488C21.1155 38.0908 21.9331 38.4294 22.7856 38.4294H35.2141C36.0666 38.4294 36.8842 38.0908 37.487 37.488C38.0898 36.8852 38.4284 36.0676 38.4284 35.2151V22.7866C38.4284 21.9341 38.0898 21.1165 37.487 20.5137C36.8842 19.9109 36.0666 19.5723 35.2141 19.5723H22.7856ZM20.857 22.7866C20.857 22.2751 21.0602 21.7845 21.4219 21.4228C21.7835 21.0612 22.2741 20.858 22.7856 20.858H35.2141C35.7256 20.858 36.2162 21.0612 36.5779 21.4228C36.9395 21.7845 37.1427 22.2751 37.1427 22.7866V35.2151C37.1427 35.7266 36.9395 36.2172 36.5779 36.5788C36.2162 36.9405 35.7256 37.1437 35.2141 37.1437H22.7856C22.2741 37.1437 21.7835 36.9405 21.4219 36.5788C21.0602 36.2172 20.857 35.7266 20.857 35.2151V22.7866Z" fill="#9F9F9F"/>
</g>
<rect x="0.5" y="0.5" width="57" height="57" rx="28.5" stroke="#9F9F9F"/>
<defs>
<clipPath id="clip0_1331_1350">
<rect width="58" height="58" rx="29" fill="white"/>
</clipPath>
</defs>
</svg>
