<svg width="18" height="18" viewBox="0 0 18 18" fill="none" xmlns="http://www.w3.org/2000/svg">
<path d="M5.57171 10.7143H11.5717M5.57171 12.4286H8.14314M14.1431 13.2857V7.28571L9.85742 3H5.57171C5.11705 3 4.68102 3.18061 4.35952 3.5021C4.03803 3.82359 3.85742 4.25963 3.85742 4.71429V13.2857C3.85742 13.7404 4.03803 14.1764 4.35952 14.4979C4.68102 14.8194 5.11705 15 5.57171 15H12.4289C12.8835 15 13.3195 14.8194 13.641 14.4979C13.9625 14.1764 14.1431 13.7404 14.1431 13.2857Z" stroke="black" stroke-width="0.857143" stroke-linecap="round" stroke-linejoin="round"/>
<path d="M7.96007 7.49987L6.8522 6.392M6.8522 6.392L5.74432 7.49987M6.8522 6.392L6.85219 9.27246M8.18164 5.72727L5.52275 5.72727" stroke="black" stroke-width="0.859091" stroke-linecap="round" stroke-linejoin="round"/>
<path d="M9.85742 3V5.57143C9.85742 6.02609 10.038 6.46212 10.3595 6.78361C10.681 7.1051 11.1171 7.28571 11.5717 7.28571H14.1431" stroke="black" stroke-width="0.857143" stroke-linecap="round" stroke-linejoin="round"/>
</svg>
