<svg width="68" height="28" viewBox="0 0 68 28" fill="none" xmlns="http://www.w3.org/2000/svg">
<rect x="0.5" y="0.5" width="67" height="27" rx="13.5" fill="#E7E6FF"/>
<rect x="0.5" y="0.5" width="67" height="27" rx="13.5" stroke="#3425FF"/>
<path d="M9.72159 9.77273L12.1506 16.8807H12.2486L14.6776 9.77273H16.1009L12.9602 18.5H11.4389L8.2983 9.77273H9.72159ZM17.2589 18.5V11.9545H18.533V18.5H17.2589ZM17.9023 10.9446C17.6808 10.9446 17.4904 10.8707 17.3313 10.723C17.1751 10.5724 17.0969 10.3935 17.0969 10.1861C17.0969 9.97585 17.1751 9.79687 17.3313 9.64915C17.4904 9.49858 17.6808 9.4233 17.9023 9.4233C18.1239 9.4233 18.3129 9.49858 18.4691 9.64915C18.6282 9.79687 18.7077 9.97585 18.7077 10.1861C18.7077 10.3935 18.6282 10.5724 18.4691 10.723C18.3129 10.8707 18.1239 10.9446 17.9023 10.9446ZM23.0682 18.6321C22.4233 18.6321 21.8679 18.4943 21.402 18.2188C20.9389 17.9403 20.581 17.5497 20.3281 17.0469C20.0781 16.5412 19.9531 15.9489 19.9531 15.2699C19.9531 14.5994 20.0781 14.0085 20.3281 13.4972C20.581 12.9858 20.9332 12.5866 21.3849 12.2997C21.8395 12.0128 22.3707 11.8693 22.9787 11.8693C23.348 11.8693 23.706 11.9304 24.0526 12.0526C24.3991 12.1747 24.7102 12.3665 24.9858 12.6278C25.2614 12.8892 25.4787 13.2287 25.6378 13.6463C25.7969 14.0611 25.8764 14.5653 25.8764 15.1591V15.6108H20.6733V14.6562H24.6278C24.6278 14.321 24.5597 14.0241 24.4233 13.7656C24.2869 13.5043 24.0952 13.2983 23.848 13.1477C23.6037 12.9972 23.3168 12.9219 22.9872 12.9219C22.6293 12.9219 22.3168 13.0099 22.0497 13.1861C21.7855 13.3594 21.581 13.5866 21.4361 13.8679C21.294 14.1463 21.223 14.4489 21.223 14.7756V15.5213C21.223 15.9588 21.2997 16.331 21.4531 16.6378C21.6094 16.9446 21.8267 17.179 22.1051 17.3409C22.3835 17.5 22.7088 17.5795 23.081 17.5795C23.3224 17.5795 23.5426 17.5455 23.7415 17.4773C23.9403 17.4062 24.1122 17.3011 24.2571 17.1619C24.402 17.0227 24.5128 16.8509 24.5895 16.6463L25.7955 16.8636C25.6989 17.2187 25.5256 17.5298 25.2756 17.7969C25.0284 18.0611 24.7173 18.267 24.3423 18.4148C23.9702 18.5597 23.5455 18.6321 23.0682 18.6321ZM28.6974 18.5L26.7713 11.9545H28.0881L29.3707 16.7614H29.4347L30.7216 11.9545H32.0384L33.3168 16.7401H33.3807L34.6548 11.9545H35.9716L34.0497 18.5H32.75L31.4205 13.7741H31.3224L29.9929 18.5H28.6974Z" fill="black"/>
<path d="M51 16.25C52.2426 16.25 53.25 15.2426 53.25 14C53.25 12.7574 52.2426 11.75 51 11.75C49.7574 11.75 48.75 12.7574 48.75 14C48.75 15.2426 49.7574 16.25 51 16.25Z" stroke="black" stroke-width="1.5"/>
<path d="M57.1414 13.2005C57.4324 13.5545 57.5779 13.7308 57.5779 14C57.5779 14.2692 57.4324 14.4455 57.1414 14.7995C56.0764 16.0925 53.7274 18.5 51.0004 18.5C48.2734 18.5 45.9244 16.0925 44.8594 14.7995C44.5684 14.4455 44.4229 14.2692 44.4229 14C44.4229 13.7308 44.5684 13.5545 44.8594 13.2005C45.9244 11.9075 48.2734 9.5 51.0004 9.5C53.7274 9.5 56.0764 11.9075 57.1414 13.2005Z" stroke="black" stroke-width="1.5"/>
</svg>
