<svg width="10" height="12" viewBox="0 0 10 12" fill="none" xmlns="http://www.w3.org/2000/svg">
<path d="M1.68417 0.250771L2.38437 0.0397126C3.17787 -0.199469 4.02567 0.187071 4.36548 0.942969L4.90648 2.1464C5.19613 2.7907 5.04349 3.5479 4.52685 4.02967L3.63027 4.86574C3.60407 4.89018 3.58748 4.92319 3.5835 4.9588C3.55689 5.19709 3.71842 5.66113 4.09058 6.30572C4.36121 6.77447 4.60616 7.1032 4.81465 7.28808C4.95992 7.41689 5.03988 7.44475 5.07392 7.43461L6.28011 7.06584C6.95547 6.85937 7.68735 7.10559 8.10058 7.67828L8.86902 8.74328C9.35269 9.4136 9.26571 10.3384 8.66554 10.9068L8.13373 11.4104C7.55987 11.9539 6.74294 12.1564 5.98168 11.9439C4.32924 11.4827 2.84765 10.0882 1.52052 7.78955C0.191556 5.48771 -0.274759 3.50504 0.155112 1.84197C0.351833 1.08088 0.931511 0.477641 1.68417 0.250771ZM1.94391 1.11248C1.49231 1.2486 1.14451 1.61054 1.02647 2.06719C0.664885 3.4661 1.0782 5.22341 2.29995 7.33955C3.52007 9.45285 4.83343 10.689 6.22365 11.077C6.6804 11.2045 7.17056 11.083 7.51487 10.7569L8.04668 10.2533C8.31949 9.99494 8.35902 9.57459 8.13917 9.2699L7.37073 8.2049C7.1829 7.94458 6.85023 7.83266 6.54325 7.92652L5.33404 8.2962C4.63222 8.50541 3.99521 7.94054 3.31116 6.75572C2.85018 5.95728 2.63532 5.34007 2.68906 4.8589C2.7169 4.60964 2.83304 4.37858 3.01648 4.20753L3.91306 3.37145C4.14789 3.15247 4.21727 2.80828 4.08561 2.51542L3.54461 1.31199C3.39015 0.968398 3.00479 0.792698 2.64411 0.901417L1.94391 1.11248Z" fill="#3425FF"/>
</svg>
