<svg width="52" height="52" viewBox="0 0 52 52" fill="none" xmlns="http://www.w3.org/2000/svg">
<rect x="0.480048" y="0.480048" width="51.0399" height="51.0399" rx="25.52" fill="white"/>
<rect x="0.480048" y="0.480048" width="51.0399" height="51.0399" rx="25.52" fill="#E8E6FF"/>
<rect x="0.480048" y="0.480048" width="51.0399" height="51.0399" rx="25.52" stroke="#E6E4F0" stroke-width="0.960095"/>
<rect x="0.480048" y="0.480048" width="51.0399" height="51.0399" rx="25.52" stroke="#3425FF" stroke-width="0.960095"/>
<path d="M31.2383 11.4345L31.7726 13.079C31.9385 13.5793 32.2192 14.0339 32.5922 14.4064C32.9652 14.7789 33.4202 15.0589 33.9208 15.224L35.5653 15.7584L35.5975 15.7676C35.7243 15.8122 35.8342 15.8952 35.9119 16.0049C35.9896 16.1146 36.0313 16.2458 36.0313 16.3802C36.0313 16.5147 35.9896 16.6459 35.9119 16.7556C35.8342 16.8653 35.7243 16.9482 35.5975 16.9929L33.953 17.5272C33.4524 17.6924 32.9974 17.9724 32.6244 18.3449C32.2514 18.7173 31.9708 19.1719 31.8049 19.6723L31.2706 21.3152C31.2259 21.4421 31.143 21.5519 31.0333 21.6296C30.9235 21.7073 30.7924 21.7491 30.6579 21.7491C30.5234 21.7491 30.3923 21.7073 30.2825 21.6296C30.1728 21.5519 30.0899 21.4421 30.0452 21.3152L29.5094 19.6723C29.3448 19.1708 29.065 18.7149 28.6925 18.341C28.3197 17.9665 27.8643 17.6846 27.3628 17.518L25.7183 16.9837C25.5915 16.939 25.4816 16.8561 25.4039 16.7464C25.3262 16.6366 25.2845 16.5055 25.2845 16.371C25.2845 16.2366 25.3262 16.1054 25.4039 15.9957C25.4816 15.8859 25.5915 15.803 25.7183 15.7584L27.3628 15.224C27.8571 15.0544 28.3054 14.7724 28.6723 14.4002C29.0391 14.028 29.3147 13.5757 29.4771 13.079L30.0115 11.436C30.0558 11.3087 30.1387 11.1982 30.2486 11.1201C30.3585 11.042 30.49 11 30.6249 11C30.7597 11 30.8913 11.042 31.0012 11.1201C31.1111 11.1982 31.194 11.3071 31.2383 11.4345ZM38.7698 23.6138L37.5936 23.233C37.2367 23.1137 36.9125 22.913 36.6465 22.6468C36.3806 22.3806 36.1802 22.0561 36.0612 21.6991L35.6773 20.526C35.6456 20.4353 35.5864 20.3567 35.508 20.3011C35.4296 20.2455 35.3358 20.2157 35.2397 20.2157C35.1436 20.2157 35.0499 20.2455 34.9715 20.3011C34.8931 20.3567 34.8339 20.4353 34.8021 20.526L34.4213 21.6991C34.3045 22.0538 34.1074 22.3768 33.8454 22.6429C33.5833 22.9089 33.2633 23.1109 32.9104 23.233L31.7358 23.6138C31.6458 23.6463 31.568 23.7058 31.513 23.7841C31.458 23.8624 31.4285 23.9558 31.4285 24.0514C31.4285 24.1471 31.458 24.2405 31.513 24.3188C31.568 24.3971 31.6458 24.4566 31.7358 24.4891L32.9104 24.8714C33.2684 24.9908 33.5936 25.192 33.8601 25.4591C34.1267 25.7262 34.3272 26.0517 34.4459 26.4099L34.8267 27.583C34.8585 27.6737 34.9177 27.7523 34.9961 27.8079C35.0745 27.8635 35.1682 27.8934 35.2643 27.8934C35.3604 27.8934 35.4541 27.8635 35.5325 27.8079C35.6109 27.7523 35.6701 27.6737 35.7019 27.583L36.0842 26.4099C36.2034 26.0528 36.404 25.7282 36.6702 25.462C36.9365 25.1957 37.261 24.9951 37.6182 24.876L38.7928 24.4952C38.8828 24.4627 38.9606 24.4033 39.0156 24.325C39.0706 24.2466 39.1001 24.1533 39.1001 24.0576C39.1001 23.9619 39.0706 23.8685 39.0156 23.7902C38.9606 23.7119 38.8828 23.6525 38.7928 23.62L38.7698 23.6138ZM17.6064 15.6079H23.9095C23.8123 15.8527 23.7577 16.1124 23.7483 16.3756C23.7514 16.6397 23.802 16.9008 23.8972 17.1434H17.6064C16.7919 17.1434 16.0108 17.4669 15.4349 18.0428C14.859 18.6187 14.5355 19.3998 14.5355 20.2143V32.4981C14.5355 33.3125 14.859 34.0936 15.4349 34.6695C16.0108 35.2455 16.7919 35.569 17.6064 35.569H29.8902C30.7046 35.569 31.4857 35.2455 32.0616 34.6695C32.6376 34.0936 32.9611 33.3125 32.9611 32.4981V26.8122L32.9918 26.8936L33.3603 28.0606C33.4558 28.3302 33.606 28.5772 33.8015 28.7859C33.9971 28.9947 34.2337 29.1607 34.4966 29.2736V32.4981C34.4966 33.7198 34.0113 34.8914 33.1474 35.7553C32.2835 36.6192 31.1119 37.1045 29.8902 37.1045H17.6064C16.3847 37.1045 15.2131 36.6192 14.3492 35.7553C13.4853 34.8914 13 33.7198 13 32.4981V20.2143C13 18.9926 13.4853 17.821 14.3492 16.9571C15.2131 16.0932 16.3847 15.6079 17.6064 15.6079ZM16.8387 18.6788H26.0346L26.9728 18.9859C27.2022 19.0542 27.4126 19.1751 27.587 19.3391L27.6791 19.4312C27.8511 19.5955 27.9862 19.7951 28.0783 20.0147V20.1529L28.0983 20.2143H16.8387C16.6351 20.2143 16.4398 20.1334 16.2958 19.9894C16.1518 19.8455 16.0709 19.6502 16.0709 19.4466C16.0709 19.243 16.1518 19.0477 16.2958 18.9037C16.4398 18.7597 16.6351 18.6788 16.8387 18.6788ZM22.9806 24.8207H30.0422C30.0985 24.9569 30.1706 25.0848 30.2587 25.2046C30.4967 25.5439 30.836 25.8019 31.226 25.9416L31.3228 25.9723C31.2554 26.089 31.1585 26.1859 31.0418 26.2533C30.925 26.3207 30.7927 26.3562 30.6579 26.3562H22.9806C22.7769 26.3562 22.5817 26.2753 22.4377 26.1313C22.2937 25.9873 22.2128 25.7921 22.2128 25.5885C22.2128 25.3848 22.2937 25.1896 22.4377 25.0456C22.5817 24.9016 22.7769 24.8207 22.9806 24.8207ZM18.3741 27.8917C18.985 27.8917 19.5708 27.649 20.0028 27.2171C20.4347 26.7851 20.6773 26.1993 20.6773 25.5885C20.6773 24.9776 20.4347 24.3918 20.0028 23.9598C19.5708 23.5279 18.985 23.2852 18.3741 23.2852C17.7633 23.2852 17.1775 23.5279 16.7455 23.9598C16.3136 24.3918 16.0709 24.9776 16.0709 25.5885C16.0709 26.1993 16.3136 26.7851 16.7455 27.2171C17.1775 27.649 17.7633 27.8917 18.3741 27.8917ZM18.3741 26.3562C18.1705 26.3562 17.9753 26.2753 17.8313 26.1313C17.6873 25.9873 17.6064 25.7921 17.6064 25.5885C17.6064 25.3848 17.6873 25.1896 17.8313 25.0456C17.9753 24.9016 18.1705 24.8207 18.3741 24.8207C18.5778 24.8207 18.773 24.9016 18.917 25.0456C19.061 25.1896 19.1419 25.3848 19.1419 25.5885C19.1419 25.7921 19.061 25.9873 18.917 26.1313C18.773 26.2753 18.5778 26.3562 18.3741 26.3562ZM20.6773 31.7303C20.6773 32.3412 20.4347 32.927 20.0028 33.3589C19.5708 33.7909 18.985 34.0335 18.3741 34.0335C17.7633 34.0335 17.1775 33.7909 16.7455 33.3589C16.3136 32.927 16.0709 32.3412 16.0709 31.7303C16.0709 31.1195 16.3136 30.5337 16.7455 30.1017C17.1775 29.6698 17.7633 29.4271 18.3741 29.4271C18.985 29.4271 19.5708 29.6698 20.0028 30.1017C20.4347 30.5337 20.6773 31.1195 20.6773 31.7303ZM19.1419 31.7303C19.1419 31.5267 19.061 31.3314 18.917 31.1875C18.773 31.0435 18.5778 30.9626 18.3741 30.9626C18.1705 30.9626 17.9753 31.0435 17.8313 31.1875C17.6873 31.3314 17.6064 31.5267 17.6064 31.7303C17.6064 31.9339 17.6873 32.1292 17.8313 32.2732C17.9753 32.4172 18.1705 32.4981 18.3741 32.4981C18.5778 32.4981 18.773 32.4172 18.917 32.2732C19.061 32.1292 19.1419 31.9339 19.1419 31.7303ZM22.9806 30.9626C22.7769 30.9626 22.5817 31.0435 22.4377 31.1875C22.2937 31.3314 22.2128 31.5267 22.2128 31.7303C22.2128 31.9339 22.2937 32.1292 22.4377 32.2732C22.5817 32.4172 22.7769 32.4981 22.9806 32.4981H30.6579C30.8615 32.4981 31.0568 32.4172 31.2008 32.2732C31.3447 32.1292 31.4256 31.9339 31.4256 31.7303C31.4256 31.5267 31.3447 31.3314 31.2008 31.1875C31.0568 31.0435 30.8615 30.9626 30.6579 30.9626H22.9806Z" fill="#3425FF"/>
</svg>
