<svg width="282" height="17" viewBox="0 0 282 17" fill="none" xmlns="http://www.w3.org/2000/svg">
<path d="M57.8069 7.44629L57.9533 7.66602C55.683 7.37305 53.1198 7.66602 50.703 7.51954L50.8495 7.59278C44.6977 7.66602 39.0586 7.37305 32.9801 7.22657C33.0533 7.22657 33.1265 7.29981 33.1998 7.29981C32.9068 7.22657 32.6139 7.15333 32.2477 7.15333C32.1745 7.22657 32.321 7.22657 32.4674 7.22657C31.1492 7.51954 28.7324 7.08008 27.9268 7.29981C27.5607 7.29981 27.4142 7.15333 27.6339 7.08008C22.8736 7.00684 17.8203 6.9336 12.9868 6.78712C12.7671 6.86036 12.6939 6.86036 12.7671 7.00684C8.59269 6.49415 4.19857 6.71387 0.0241517 6.78712C-0.122319 6.64063 0.463564 6.64063 0.0241517 6.56739C1.34239 6.34767 2.51415 6.78712 3.75916 6.56739L3.61268 6.49415C4.49151 6.42091 3.75916 6.78712 4.71122 6.64063C5.07739 6.56739 4.63798 6.49415 4.78445 6.49415C6.68857 6.56739 8.66593 6.42091 10.4968 6.71387C10.9362 6.49415 12.5474 6.71387 13.2798 6.49415C13.7924 6.56739 14.2318 6.56739 14.4515 6.71387C21.0427 6.56739 27.9268 6.78712 34.7377 6.78712C37.9601 7.22657 41.7683 6.71387 45.5766 6.86036V6.78712C46.8216 6.9336 48.6524 6.9336 50.1172 6.86036L51.3622 7.08008C60.2969 6.71387 69.3781 6.9336 78.386 6.78712C88.639 6.64063 97.6469 6.34767 107.68 6.9336C107.68 6.86036 107.753 6.86036 107.46 6.86036C110.317 6.9336 112.953 6.78712 115.663 6.86036V6.78712C119.032 7.00684 122.547 6.9336 125.989 6.9336H127.307C127.673 6.9336 128.113 6.86036 128.479 6.78712C129.285 6.56739 130.017 6.12794 130.676 5.68849C131.994 4.73634 133.166 3.49123 134.338 2.31936C135.729 0.854524 138 0.122104 140.123 0.634797C141.149 0.854523 142.174 1.44046 142.98 2.17288C143.785 2.9053 144.444 3.71096 145.177 4.51662C145.909 5.24904 146.715 5.98146 147.667 6.49415C148.106 6.71387 148.619 6.9336 149.131 7.08008C149.644 7.22657 150.157 7.22657 150.669 7.22657C152.793 7.22657 154.917 7.29981 157.041 7.29981V7.22657C163.778 7.44629 170.223 6.9336 176.888 7.08008C183.772 6.86036 191.022 7.59278 197.979 7.29981C202.3 6.86036 207.939 7.8125 211.967 7.37305C220.243 6.64063 228.299 7.15333 236.574 7.51954C244.191 7.29981 251.881 7.88574 259.277 7.37305C262.793 7.73926 266.674 6.9336 270.556 7.08008L270.409 7.22657C271.801 6.86036 273.558 7.73926 274.437 7.22657H274.291C275.023 6.9336 276.048 7.8125 276.488 7.51954L276.634 7.66602C277.513 7.73926 276.707 7.51954 277.44 7.44629C277.733 7.44629 277.513 7.66602 278.099 7.59278C278.245 7.08008 280.296 7.73926 280.369 7.15333C279.857 7.15333 281.102 6.9336 280.003 6.78712C280.296 6.71387 281.834 6.78712 281.687 7.00684C281.834 7.29981 282.42 7.51954 281.468 7.73926L281.321 7.51954C281.028 7.73926 281.102 7.59278 280.955 7.73926C279.783 7.73926 279.564 8.03223 278.758 8.17871C278.172 7.95899 277.367 8.10547 276.927 8.10547L276.781 8.17871C276.488 8.39844 275.389 7.73926 275.755 8.10547C273.339 8.03223 270.556 8.03223 267.846 8.03223C267.48 7.88574 265.795 8.03223 266.381 7.73926C265.722 8.03223 263.672 8.17871 262.939 8.10547C262.939 8.10547 263.012 8.17871 263.086 8.17871C261.621 8.61816 261.328 7.8125 260.01 8.3252C259.79 7.95899 257.52 8.47168 256.787 8.03223C256.421 8.10547 256.421 8.17871 256.421 8.25195C253.931 8.25195 251.221 8.39844 249.171 8.39844C247.413 8.10547 244.85 8.54492 243.385 8.10547C242.14 8.17871 240.09 8.39844 238.332 8.17871L238.479 8.25195C236.501 8.25195 234.011 8.17871 232.62 7.95899C232.034 8.39844 231.155 8.3252 230.276 8.47168C228.958 8.25195 226.248 8.3252 224.271 8.17871C223.978 8.39844 222.586 8.10547 222.513 8.39844C216.801 7.8125 209.77 8.03223 203.692 8.47168H203.765C202.959 8.3252 202.081 7.95899 201.275 7.8125C201.202 7.8125 201.202 7.88574 201.348 7.88574C200.25 7.8125 199.224 8.10547 198.126 8.03223C198.126 8.03223 198.199 8.10547 198.346 8.10547C197.32 7.95899 196.222 8.3252 194.977 8.10547H194.903L194.098 8.03223C194.098 8.10547 194.171 8.25195 194.537 8.25195C185.017 8.3252 175.203 7.88574 165.39 7.95899L165.756 8.03223L163.852 7.88574C163.852 7.95899 163.925 7.95899 164.071 7.95899C161.655 8.10547 159.165 7.88574 156.821 7.88574C156.821 7.95899 157.187 8.03223 156.894 8.10547C155.137 7.88574 154.111 8.39844 153.233 7.88574C153.159 7.88574 153.086 8.03223 153.306 8.03223C152.72 8.03223 152.061 7.95899 151.475 7.95899C150.889 7.95899 150.303 7.95899 149.571 7.88574C148.179 7.66602 147.081 6.9336 146.055 6.12794C145.103 5.32228 144.225 4.37013 143.346 3.49123C142.906 3.05178 142.54 2.61233 142.101 2.31936C141.661 2.02639 141.149 1.73343 140.636 1.58694C139.83 1.14749 138.805 1.00101 137.78 1.22073C136.755 1.36722 135.803 1.87991 135.07 2.53909C133.605 4.00392 132.141 5.83497 130.163 6.78712L130.237 6.86036C129.578 7.15333 128.918 7.44629 128.186 7.51954C127.454 7.59278 126.795 7.51954 126.062 7.51954C124.671 7.51954 123.279 7.51954 121.815 7.51954C118.958 7.59278 116.102 7.66602 113.246 7.59278C110.903 7.66602 109.291 7.51954 106.948 7.51954L106.875 7.66602C102.92 7.22657 98.5257 8.10547 94.3513 7.59278L94.6443 7.73926C93.9851 7.51954 92.1543 7.8125 92.374 7.37305L91.6416 7.51954C88.8587 6.9336 86.5151 7.8125 83.0731 7.37305L83.2928 7.44629C82.3407 7.37305 81.3154 7.29981 80.5831 7.37305C80.7295 7.37305 80.6563 7.44629 80.876 7.44629C78.0198 7.88574 74.7975 7.37305 71.7948 7.44629L72.161 7.66602C70.6963 7.44629 67.9866 7.66602 66.0825 7.51954L66.2289 7.59278L65.2769 7.44629V7.59278C62.6404 7.66602 60.2969 7.51954 57.8069 7.44629Z" fill="url(#paint0_linear_137_1497)"/>
<g filter="url(#filter0_f_137_1497)">
<circle cx="138.969" cy="8.17334" r="5.17334" fill="#3425FF"/>
</g>
<g filter="url(#filter1_i_137_1497)">
<path d="M138.571 3L144.143 8.57129L138.571 14.1426L133 8.57129L138.571 3Z" fill="#3425FF"/>
</g>
<defs>
<filter id="filter0_f_137_1497" x="130.796" y="0" width="16.3467" height="16.3467" filterUnits="userSpaceOnUse" color-interpolation-filters="sRGB">
<feFlood flood-opacity="0" result="BackgroundImageFix"/>
<feBlend mode="normal" in="SourceGraphic" in2="BackgroundImageFix" result="shape"/>
<feGaussianBlur stdDeviation="1.5" result="effect1_foregroundBlur_137_1497"/>
</filter>
<filter id="filter1_i_137_1497" x="133" y="3" width="11.1426" height="12.1426" filterUnits="userSpaceOnUse" color-interpolation-filters="sRGB">
<feFlood flood-opacity="0" result="BackgroundImageFix"/>
<feBlend mode="normal" in="SourceGraphic" in2="BackgroundImageFix" result="shape"/>
<feColorMatrix in="SourceAlpha" type="matrix" values="0 0 0 0 0 0 0 0 0 0 0 0 0 0 0 0 0 0 127 0" result="hardAlpha"/>
<feOffset dy="1"/>
<feGaussianBlur stdDeviation="3.5"/>
<feComposite in2="hardAlpha" operator="arithmetic" k2="-1" k3="1"/>
<feColorMatrix type="matrix" values="0 0 0 0 0 0 0 0 0 0 0 0 0 0 0 0 0 0 0.25 0"/>
<feBlend mode="normal" in2="shape" result="effect1_innerShadow_137_1497"/>
</filter>
<linearGradient id="paint0_linear_137_1497" x1="-3.98256" y1="4.48168" x2="281.936" y2="4.48168" gradientUnits="userSpaceOnUse">
<stop stop-color="#3425FF" stop-opacity="0"/>
<stop offset="0.25" stop-color="#3425FF"/>
<stop offset="0.500694" stop-color="#3425FF"/>
<stop offset="0.75" stop-color="#3425FF"/>
<stop offset="1" stop-color="#3425FF" stop-opacity="0"/>
</linearGradient>
</defs>
</svg>
