<svg width="22" height="22" viewBox="0 0 22 22" fill="none" xmlns="http://www.w3.org/2000/svg">
<path opacity="0.4" d="M14.9996 0H19.0004C20.6574 0 22 1.34261 22 2.99955V7.00045C22 8.65739 20.6574 10 19.0004 10H14.9996C13.3426 10 12 8.65739 12 7.00045V2.99955C12 1.34261 13.3426 0 14.9996 0Z" fill="#676767"/>
<path d="M7.26379 12.3435C8.5492 12.3435 9.59077 13.3939 9.59077 14.6902V17.8202C9.59077 19.1156 8.5492 20.1668 7.26379 20.1668H4.15999C2.87458 20.1668 1.83301 19.1156 1.83301 17.8202V14.6902C1.83301 13.3939 2.87458 12.3435 4.15999 12.3435H7.26379ZM17.8394 12.3435C19.1248 12.3435 20.1663 13.3939 20.1663 14.6902V17.8202C20.1663 19.1156 19.1248 20.1668 17.8394 20.1668H14.7356C13.4501 20.1668 12.4086 19.1156 12.4086 17.8202V14.6902C12.4086 13.3939 13.4501 12.3435 14.7356 12.3435H17.8394ZM7.26379 1.8335C8.5492 1.8335 9.59077 2.88386 9.59077 4.18013V7.31014C9.59077 8.60641 8.5492 9.65678 7.26379 9.65678H4.15999C2.87458 9.65678 1.83301 8.60641 1.83301 7.31014V4.18013C1.83301 2.88386 2.87458 1.8335 4.15999 1.8335H7.26379Z" fill="#3425FF"/>
</svg>
