<svg width="11" height="9" viewBox="0 0 11 9" fill="none" xmlns="http://www.w3.org/2000/svg">
<path fill-rule="evenodd" clip-rule="evenodd" d="M10.2781 1.263L5.93794 5.184C5.81461 5.29547 5.65947 5.35647 5.49931 5.35647C5.33915 5.35647 5.18402 5.29547 5.06069 5.184L0.722562 1.263C0.699286 1.33943 0.687447 1.41946 0.6875 1.5V7.5C0.6875 7.69891 0.759933 7.88968 0.888864 8.03033C1.0178 8.17098 1.19266 8.25 1.375 8.25H9.625C9.80734 8.25 9.9822 8.17098 10.1111 8.03033C10.2401 7.88968 10.3125 7.69891 10.3125 7.5V1.5C10.3128 1.4195 10.3012 1.33948 10.2781 1.263ZM1.375 0H9.625C9.98967 0 10.3394 0.158035 10.5973 0.43934C10.8551 0.720644 11 1.10218 11 1.5V7.5C11 7.89782 10.8551 8.27936 10.5973 8.56066C10.3394 8.84196 9.98967 9 9.625 9H1.375C1.01033 9 0.660591 8.84196 0.402728 8.56066C0.144866 8.27936 0 7.89782 0 7.5V1.5C0 1.10218 0.144866 0.720644 0.402728 0.43934C0.660591 0.158035 1.01033 0 1.375 0ZM1.23062 0.75L5.06413 4.20225C5.1869 4.31288 5.34108 4.37358 5.50032 4.37399C5.65956 4.3744 5.81399 4.31449 5.93725 4.2045L9.80925 0.75H1.23062Z" fill="#3425FF"/>
</svg>
