<svg width="20" height="20" viewBox="0 0 20 20" fill="none" xmlns="http://www.w3.org/2000/svg">
<rect width="20" height="20" rx="10" fill="#ECECEC"/>
<g clip-path="url(#clip0_124_1107)">
<path d="M7.03378 4.25077L7.73398 4.03971C8.52748 3.80053 9.37528 4.18707 9.71509 4.94297L10.2561 6.1464C10.5457 6.7907 10.3931 7.5479 9.87646 8.02967L8.97988 8.86574C8.95368 8.89018 8.93709 8.92319 8.93311 8.9588C8.9065 9.19709 9.06803 9.66113 9.44019 10.3057C9.71082 10.7745 9.95577 11.1032 10.1643 11.2881C10.3095 11.4169 10.3895 11.4447 10.4235 11.4346L11.6297 11.0658C12.3051 10.8594 13.037 11.1056 13.4502 11.6783L14.2186 12.7433C14.7023 13.4136 14.6153 14.3384 14.0151 14.9068L13.4833 15.4104C12.9095 15.9539 12.0926 16.1564 11.3313 15.9439C9.67884 15.4827 8.19726 14.0882 6.87013 11.7895C5.54117 9.48771 5.07485 7.50504 5.50472 5.84197C5.70144 5.08088 6.28112 4.47764 7.03378 4.25077ZM7.29352 5.11248C6.84192 5.2486 6.49412 5.61054 6.37608 6.06719C6.01449 7.4661 6.42781 9.22341 7.64956 11.3395C8.86968 13.4529 10.183 14.689 11.5733 15.077C12.03 15.2045 12.5202 15.083 12.8645 14.7569L13.3963 14.2533C13.6691 13.9949 13.7086 13.5746 13.4888 13.2699L12.7203 12.2049C12.5325 11.9446 12.1998 11.8327 11.8929 11.9265L10.6837 12.2962C9.98183 12.5054 9.34482 11.9405 8.66077 10.7557C8.19978 9.95728 7.98493 9.34007 8.03867 8.8589C8.06651 8.60964 8.18265 8.37858 8.36608 8.20753L9.26267 7.37145C9.4975 7.15247 9.56688 6.80828 9.43522 6.51542L8.89422 5.31199C8.73976 4.9684 8.3544 4.7927 7.99372 4.90142L7.29352 5.11248Z" fill="#3425FF"/>
</g>
<defs>
<clipPath id="clip0_124_1107">
<rect width="12" height="12" fill="white" transform="translate(4 4)"/>
</clipPath>
</defs>
</svg>
