<svg width="20" height="20" viewBox="0 0 20 20" fill="none" xmlns="http://www.w3.org/2000/svg">
<rect width="20" height="20" rx="10" fill="#ECECEC"/>
<path fill-rule="evenodd" clip-rule="evenodd" d="M14.7781 6.92267L10.4379 10.8437C10.3146 10.9551 10.1595 11.0161 9.99931 11.0161C9.83915 11.0161 9.68402 10.9551 9.56069 10.8437L5.22256 6.92267C5.19929 6.9991 5.18745 7.07913 5.1875 7.15967V13.1597C5.1875 13.3586 5.25993 13.5493 5.38886 13.69C5.5178 13.8307 5.69266 13.9097 5.875 13.9097H14.125C14.3073 13.9097 14.4822 13.8307 14.6111 13.69C14.7401 13.5493 14.8125 13.3586 14.8125 13.1597V7.15967C14.8128 7.07917 14.8012 6.99914 14.7781 6.92267ZM5.875 5.65967H14.125C14.4897 5.65967 14.8394 5.8177 15.0973 6.09901C15.3551 6.38031 15.5 6.76184 15.5 7.15967V13.1597C15.5 13.5575 15.3551 13.939 15.0973 14.2203C14.8394 14.5016 14.4897 14.6597 14.125 14.6597H5.875C5.51033 14.6597 5.16059 14.5016 4.90273 14.2203C4.64487 13.939 4.5 13.5575 4.5 13.1597V7.15967C4.5 6.76184 4.64487 6.38031 4.90273 6.09901C5.16059 5.8177 5.51033 5.65967 5.875 5.65967ZM5.73062 6.40967L9.56413 9.86192C9.6869 9.97255 9.84108 10.0332 10.0003 10.0337C10.1596 10.0341 10.314 9.97416 10.4372 9.86417L14.3092 6.40967H5.73062Z" fill="#3425FF"/>
</svg>
