<svg width="24" height="24" viewBox="0 0 24 24" fill="none" xmlns="http://www.w3.org/2000/svg">
<rect width="24" height="24" rx="12" fill="#ECECEC"/>
<g clip-path="url(#clip0_196_12290)">
<path d="M14.667 12.6213C14.667 12.3451 14.8909 12.1213 15.167 12.1213C15.4431 12.1213 15.667 12.3451 15.667 12.6213V14.0013L16.8606 14.691C17.0998 14.8293 17.1818 15.1352 17.0437 15.3745C16.9056 15.6139 16.5996 15.696 16.3602 15.5579L14.9354 14.7361C14.7693 14.6403 14.667 14.4631 14.667 14.2714V12.6213ZM15.3337 10.7879C14.4496 10.7879 13.6018 11.1391 12.9766 11.7642C12.3515 12.3894 12.0003 13.2372 12.0003 14.1213C12.0003 15.0053 12.3515 15.8532 12.9766 16.4783C13.6018 17.1034 14.4496 17.4546 15.3337 17.4546C16.2177 17.4546 17.0656 17.1034 17.6907 16.4783C18.3158 15.8532 18.667 15.0053 18.667 14.1213C18.667 13.2372 18.3158 12.3894 17.6907 11.7642C17.0656 11.1391 16.2177 10.7879 15.3337 10.7879ZM15.3337 9.45459C16.5713 9.45459 17.7583 9.94626 18.6335 10.8214C19.5087 11.6966 20.0003 12.8836 20.0003 14.1213C20.0003 15.3589 19.5087 16.5459 18.6335 17.4211C17.7583 18.2963 16.5713 18.7879 15.3337 18.7879C13.4737 18.7879 11.867 17.6946 11.1137 16.1213H6.12154C5.31821 16.1213 4.66699 15.47 4.66699 14.6667V14.1213C4.66699 12.3479 8.22033 11.4546 10.0003 11.4546C10.4003 11.4546 10.8937 11.5013 11.4137 11.5879C11.8364 10.9328 12.4168 10.3942 13.1017 10.0215C13.7865 9.64876 14.554 9.45385 15.3337 9.45459ZM10.667 14.1213C10.667 13.6546 10.7337 13.2013 10.8603 12.7879C10.5803 12.7413 10.287 12.7213 10.0003 12.7213C8.02033 12.7213 5.93366 13.6946 5.93366 14.1213V14.491C5.93366 14.6918 6.09646 14.8546 6.2973 14.8546H10.727C10.6877 14.6121 10.6677 14.3669 10.667 14.1213ZM10.0003 5.45459C10.7076 5.45459 11.3858 5.73554 11.8859 6.23564C12.386 6.73574 12.667 7.41401 12.667 8.12126C12.667 8.8285 12.386 9.50678 11.8859 10.0069C11.3858 10.507 10.7076 10.7879 10.0003 10.7879C9.29308 10.7879 8.6148 10.507 8.11471 10.0069C7.61461 9.50678 7.33366 8.8285 7.33366 8.12126C7.33366 7.41401 7.61461 6.73574 8.11471 6.23564C8.6148 5.73554 9.29308 5.45459 10.0003 5.45459ZM10.0003 6.72126C9.62902 6.72126 9.27293 6.86876 9.01038 7.13131C8.74783 7.39386 8.60033 7.74995 8.60033 8.12126C8.60033 8.49256 8.74783 8.84866 9.01038 9.11121C9.27293 9.37376 9.62902 9.52126 10.0003 9.52126C10.3716 9.52126 10.7277 9.37376 10.9903 9.11121C11.2528 8.84866 11.4003 8.49256 11.4003 8.12126C11.4003 7.74995 11.2528 7.39386 10.9903 7.13131C10.7277 6.86876 10.3716 6.72126 10.0003 6.72126Z" fill="#3425FF"/>
</g>
<defs>
<clipPath id="clip0_196_12290">
<rect width="16" height="16" fill="white" transform="translate(4 4)"/>
</clipPath>
</defs>
</svg>
