<svg width="22" height="22" viewBox="0 0 22 22" fill="none" xmlns="http://www.w3.org/2000/svg">
<path d="M15.1018 4.95717L17.0423 6.89776M16.3493 3.24759L11.0996 8.49734C10.8275 8.76761 10.6424 9.11299 10.5679 9.48918L10.083 11.9165L12.5103 11.4307C12.8862 11.3555 13.2308 11.1713 13.5022 10.8999L18.7519 5.65017C18.9097 5.49242 19.0348 5.30514 19.1202 5.09902C19.2056 4.8929 19.2495 4.67198 19.2495 4.44888C19.2495 4.22578 19.2056 4.00487 19.1202 3.79875C19.0348 3.59263 18.9097 3.40535 18.7519 3.24759C18.5942 3.08984 18.4069 2.9647 18.2008 2.87932C17.9946 2.79394 17.7737 2.75 17.5506 2.75C17.3275 2.75 17.1066 2.79394 16.9005 2.87932C16.6944 2.9647 16.5071 3.08984 16.3493 3.24759Z" stroke="#3425FF" stroke-width="1.83333" stroke-linecap="round" stroke-linejoin="round"/>
<path d="M17.4165 13.7497V16.4997C17.4165 16.9859 17.2233 17.4522 16.8795 17.796C16.5357 18.1399 16.0694 18.333 15.5832 18.333H5.49984C5.01361 18.333 4.54729 18.1399 4.20347 17.796C3.85966 17.4522 3.6665 16.9859 3.6665 16.4997V6.41634C3.6665 5.93011 3.85966 5.4638 4.20347 5.11998C4.54729 4.77616 5.01361 4.58301 5.49984 4.58301H8.24984" stroke="#3425FF" stroke-width="1.83333" stroke-linecap="round" stroke-linejoin="round"/>
</svg>
