<svg width="10" height="12" viewBox="0 0 10 12" fill="none" xmlns="http://www.w3.org/2000/svg">
<path d="M1.68417 0.250283L2.38437 0.0392243C3.17787 -0.199958 4.02567 0.186583 4.36548 0.94248L4.90648 2.14591C5.19613 2.79021 5.04349 3.54741 4.52685 4.02918L3.63027 4.86526C3.60407 4.88969 3.58748 4.9227 3.5835 4.95831C3.55689 5.1966 3.71842 5.66064 4.09058 6.30524C4.36121 6.77398 4.60616 7.10271 4.81465 7.28759C4.95992 7.4164 5.03988 7.44426 5.07392 7.43412L6.28011 7.06536C6.95547 6.85888 7.68735 7.1051 8.10058 7.6778L8.86902 8.74279C9.35269 9.41312 9.26571 10.3379 8.66554 10.9063L8.13373 11.4099C7.55987 11.9534 6.74294 12.1559 5.98168 11.9434C4.32924 11.4822 2.84765 10.0877 1.52052 7.78906C0.191556 5.48722 -0.274759 3.50455 0.155112 1.84148C0.351833 1.08039 0.931511 0.477153 1.68417 0.250283ZM1.94391 1.11199C1.49231 1.24811 1.14451 1.61005 1.02647 2.0667C0.664885 3.46561 1.0782 5.22293 2.29995 7.33906C3.52007 9.45237 4.83343 10.6885 6.22365 11.0765C6.6804 11.204 7.17056 11.0825 7.51487 10.7565L8.04668 10.2528C8.31949 9.99445 8.35902 9.5741 8.13917 9.26941L7.37073 8.20441C7.1829 7.94409 6.85023 7.83218 6.54325 7.92603L5.33404 8.29571C4.63222 8.50492 3.99521 7.94006 3.31116 6.75524C2.85018 5.95679 2.63532 5.33958 2.68906 4.85841C2.7169 4.60915 2.83304 4.37809 3.01647 4.20704L3.91306 3.37096C4.14789 3.15198 4.21727 2.8078 4.08561 2.51493L3.54461 1.3115C3.39015 0.96791 3.00479 0.79221 2.64411 0.900929L1.94391 1.11199Z" fill="#3425FF"/>
</svg>
