<svg width="32" height="32" viewBox="0 0 32 32" fill="none" xmlns="http://www.w3.org/2000/svg">
<rect width="32" height="32" rx="7" fill="#3425FF"/>
<g clip-path="url(#clip0_9931_3350)">
<path d="M11.5 23.502L15.508 12.8145M20.5 23.502L16.4924 12.8145" stroke="white" stroke-width="2" stroke-linecap="round" stroke-linejoin="round"/>
<path d="M16.0005 13.002C16.8289 13.002 17.5005 12.3304 17.5005 11.502C17.5005 10.6735 16.8289 10.002 16.0005 10.002C15.1721 10.002 14.5005 10.6735 14.5005 11.502C14.5005 12.3304 15.1721 13.002 16.0005 13.002Z" stroke="white" stroke-width="2" stroke-linecap="round" stroke-linejoin="round"/>
<path d="M21.0886 19.373C19.6231 20.3218 17.8756 20.873 15.9999 20.873C14.1241 20.873 12.3766 20.3218 10.9111 19.373M15.9999 9.99805V8.49805" stroke="white" stroke-width="2" stroke-linecap="round" stroke-linejoin="round"/>
</g>
<defs>
<clipPath id="clip0_9931_3350">
<rect width="18" height="18" fill="white" transform="translate(7 7)"/>
</clipPath>
</defs>
</svg>
