<svg width="12" height="12" viewBox="0 0 12 12" fill="none" xmlns="http://www.w3.org/2000/svg">
<path fill-rule="evenodd" clip-rule="evenodd" d="M10.2781 2.92316L5.93794 6.84416C5.81461 6.95563 5.65947 7.01663 5.49931 7.01663C5.33915 7.01663 5.18402 6.95563 5.06069 6.84416L0.722562 2.92316C0.699286 2.99959 0.687447 3.07961 0.6875 3.16016V9.16016C0.6875 9.35907 0.759933 9.54983 0.888864 9.69049C1.0178 9.83114 1.19266 9.91016 1.375 9.91016H9.625C9.80734 9.91016 9.9822 9.83114 10.1111 9.69049C10.2401 9.54983 10.3125 9.35907 10.3125 9.16016V3.16016C10.3128 3.07966 10.3012 2.99963 10.2781 2.92316ZM1.375 1.66016H9.625C9.98967 1.66016 10.3394 1.81819 10.5973 2.0995C10.8551 2.3808 11 2.76233 11 3.16016V9.16016C11 9.55798 10.8551 9.93951 10.5973 10.2208C10.3394 10.5021 9.98967 10.6602 9.625 10.6602H1.375C1.01033 10.6602 0.660591 10.5021 0.402728 10.2208C0.144866 9.93951 0 9.55798 0 9.16016V3.16016C0 2.76233 0.144866 2.3808 0.402728 2.0995C0.660591 1.81819 1.01033 1.66016 1.375 1.66016ZM1.23062 2.41016L5.06413 5.86241C5.1869 5.97304 5.34108 6.03374 5.50032 6.03415C5.65956 6.03456 5.81399 5.97465 5.93725 5.86466L9.80925 2.41016H1.23062Z" fill="#3425FF"/>
</svg>
