<svg width="37" height="37" viewBox="0 0 37 37" fill="none" xmlns="http://www.w3.org/2000/svg">
<rect x="0.341572" y="0.341572" width="36.3169" height="36.3169" rx="18.1584" fill="#E8E6FF"/>
<rect x="0.341572" y="0.341572" width="36.3169" height="36.3169" rx="18.1584" stroke="#3425FF" stroke-width="0.683145"/>
<path d="M15.3613 23.8389L18.2132 16.2344M21.7652 23.8389L18.9136 16.2344" stroke="#3425FF" stroke-width="1.42308" stroke-linecap="round" stroke-linejoin="round"/>
<path d="M18.5634 16.369C19.1529 16.369 19.6307 15.8911 19.6307 15.3017C19.6307 14.7122 19.1529 14.2344 18.5634 14.2344C17.9739 14.2344 17.4961 14.7122 17.4961 15.3017C17.4961 15.8911 17.9739 16.369 18.5634 16.369Z" stroke="#3425FF" stroke-width="1.42308" stroke-linecap="round" stroke-linejoin="round"/>
<path d="M22.1841 20.902C21.1413 21.5771 19.8979 21.9694 18.5632 21.9694C17.2286 21.9694 15.9851 21.5771 14.9424 20.902M18.5632 14.2314V13.1641" stroke="#3425FF" stroke-width="1.42308" stroke-linecap="round" stroke-linejoin="round"/>
</svg>
