<svg width="147" height="5" viewBox="0 0 147 5" fill="none" xmlns="http://www.w3.org/2000/svg">
<path d="M30.1334 4.35957L30.2097 4.49681C29.0263 4.31383 27.6901 4.49681 26.4303 4.40532L26.5067 4.45106C23.2999 4.49681 20.3603 4.31383 17.1917 4.22234C17.2299 4.22234 17.2681 4.26808 17.3063 4.26808C17.1536 4.22234 17.0009 4.17659 16.81 4.17659C16.7718 4.22234 16.8482 4.22234 16.9245 4.22234C16.2373 4.40532 14.9775 4.13085 14.5576 4.26808C14.3667 4.26808 14.2904 4.17659 14.4049 4.13085C11.9235 4.0851 9.28933 4.03936 6.76972 3.94787C6.65519 3.99362 6.61702 3.99361 6.65519 4.0851C4.47917 3.76489 2.18862 3.90213 0.0125897 3.94787C-0.063762 3.85638 0.241645 3.85638 0.0125897 3.81064C0.699756 3.6734 1.31057 3.94787 1.95956 3.81064L1.88321 3.76489C2.34132 3.71915 1.95956 3.94787 2.45585 3.85638C2.64673 3.81064 2.41767 3.76489 2.49402 3.76489C3.4866 3.81064 4.51734 3.71915 5.47174 3.90213C5.7008 3.76489 6.54067 3.90213 6.92243 3.76489C7.18966 3.81064 7.41871 3.81064 7.53324 3.90213C10.9691 3.81064 14.5576 3.94787 18.108 3.94787C19.7877 4.22234 21.7728 3.90213 23.758 3.99361V3.94787C24.407 4.03936 25.3614 4.03936 26.1249 3.99361L26.7739 4.13085C31.4313 3.90213 36.1652 4.03936 40.8608 3.94787C46.2054 3.85638 50.901 3.6734 56.1311 4.03936C56.1311 3.99361 56.1693 3.99361 56.0166 3.99361C57.5055 4.03936 58.8798 3.94787 60.2923 3.99361V3.94787C62.0484 4.0851 63.8808 4.03936 65.6751 4.03936H66.3623C66.5532 4.03936 66.7822 3.99362 66.9731 3.94787C67.393 3.81064 67.7748 3.53617 68.1184 3.2617C68.8055 2.66702 69.4164 1.88936 70.0272 1.15744C70.7525 0.242543 71.936 -0.214905 73.0431 0.105309C73.5775 0.242543 74.112 0.608501 74.5319 1.06595C74.9519 1.5234 75.2954 2.02659 75.6772 2.52978C76.059 2.98723 76.4789 3.44468 76.9752 3.76489C77.2042 3.90213 77.4715 4.03936 77.7387 4.13085C78.0059 4.22234 78.2732 4.22234 78.5404 4.22234C79.6475 4.22234 80.7546 4.26808 81.8617 4.26808V4.22234C85.3739 4.35957 88.7334 4.03936 92.2074 4.13085C95.7959 3.99361 99.5753 4.45106 103.202 4.26808C105.454 3.99361 108.394 4.5883 110.494 4.31383C114.807 3.85638 119.007 4.17659 123.321 4.40532C127.291 4.26808 131.299 4.63404 135.155 4.31383C136.988 4.54255 139.011 4.03936 141.034 4.13085L140.958 4.22234C141.683 3.99362 142.6 4.54255 143.058 4.22234H142.981C143.363 4.03936 143.898 4.5883 144.127 4.40532L144.203 4.49681C144.661 4.54255 144.241 4.40532 144.623 4.35957C144.776 4.35957 144.661 4.49681 144.966 4.45106C145.043 4.13085 146.112 4.54255 146.15 4.17659C145.883 4.17659 146.532 4.03936 145.959 3.94787C146.112 3.90213 146.913 3.94787 146.837 4.0851C146.913 4.26808 147.219 4.40532 146.723 4.54255L146.646 4.40532C146.493 4.54255 146.532 4.45106 146.455 4.54255C145.844 4.54255 145.73 4.72553 145.31 4.81702C145.005 4.67979 144.585 4.77128 144.356 4.77128L144.279 4.81702C144.127 4.95426 143.554 4.54255 143.745 4.77128C142.485 4.72553 141.034 4.72553 139.622 4.72553C139.431 4.63404 138.553 4.72553 138.858 4.54255C138.515 4.72553 137.446 4.81702 137.064 4.77128C137.064 4.77128 137.102 4.81702 137.14 4.81702C136.377 5.09149 136.224 4.5883 135.537 4.90851C135.422 4.67979 134.239 5 133.857 4.72553C133.666 4.77128 133.666 4.81702 133.666 4.86277C132.368 4.86277 130.956 4.95426 129.887 4.95426C128.971 4.77128 127.635 5.04574 126.871 4.77128C126.222 4.81702 125.153 4.95426 124.237 4.81702L124.313 4.86277C123.283 4.86277 121.985 4.81702 121.259 4.67979C120.954 4.95426 120.496 4.90851 120.038 5C119.35 4.86277 117.938 4.90851 116.907 4.81702C116.754 4.95426 116.029 4.77128 115.991 4.95426C113.013 4.5883 109.348 4.72553 106.18 5H106.218C105.798 4.90851 105.34 4.67979 104.92 4.5883C104.882 4.5883 104.882 4.63404 104.958 4.63404C104.385 4.5883 103.851 4.77128 103.278 4.72553C103.278 4.72553 103.317 4.77128 103.393 4.77128C102.858 4.67979 102.286 4.90851 101.637 4.77128H101.599L101.179 4.72553C101.179 4.77128 101.217 4.86277 101.408 4.86277C96.4449 4.90851 91.3293 4.63404 86.2137 4.67979L86.4046 4.72553L85.412 4.63404C85.412 4.67979 85.4502 4.67979 85.5266 4.67979C84.2668 4.77128 82.9688 4.63404 81.7472 4.63404C81.7472 4.67979 81.938 4.72553 81.7853 4.77128C80.8691 4.63404 80.3347 4.95426 79.8765 4.63404C79.8384 4.63404 79.8002 4.72553 79.9147 4.72553C79.6093 4.72553 79.2657 4.67979 78.9603 4.67979C78.6549 4.67979 78.3495 4.67979 77.9678 4.63404C77.2424 4.49681 76.6698 4.03936 76.1353 3.53617C75.639 3.03297 75.1809 2.43829 74.7228 1.88936C74.4938 1.61489 74.3029 1.34042 74.0738 1.15744C73.8448 0.97446 73.5775 0.791481 73.3103 0.699991C72.8904 0.425522 72.3559 0.334033 71.8214 0.471267C71.287 0.562757 70.7907 0.88297 70.4089 1.29467C69.6454 2.20957 68.8819 3.35319 67.8511 3.94787L67.8893 3.99361C67.5457 4.17659 67.2021 4.35957 66.8204 4.40532C66.4386 4.45106 66.095 4.40532 65.7133 4.40532C64.988 4.40532 64.2626 4.40532 63.4991 4.40532C62.0102 4.45106 60.5214 4.49681 59.0325 4.45106C57.8109 4.49681 56.971 4.40532 55.7494 4.40532L55.7112 4.49681C53.6497 4.22234 51.3592 4.77128 49.1831 4.45106L49.3358 4.54255C48.9923 4.40532 48.0379 4.5883 48.1524 4.31383L47.7706 4.40532C46.3199 4.03936 45.0983 4.5883 43.304 4.31383L43.4186 4.35957C42.9223 4.31383 42.3878 4.26808 42.0061 4.31383C42.0824 4.31383 42.0442 4.35957 42.1588 4.35957C40.6699 4.63404 38.9902 4.31383 37.425 4.35957L37.6158 4.49681C36.8523 4.35957 35.4398 4.49681 34.4472 4.40532L34.5236 4.45106L34.0273 4.35957V4.45106C32.653 4.49681 31.4313 4.40532 30.1334 4.35957Z" fill="url(#paint0_linear_916_1945)"/>
<path d="M30.1334 0.640427L30.2097 0.503192C29.0263 0.686172 27.6901 0.503192 26.4303 0.594682L26.5067 0.548937C23.2999 0.503192 20.3603 0.686172 17.1917 0.777661C17.2299 0.777661 17.2681 0.731916 17.3063 0.731916C17.1536 0.777661 17.0009 0.823406 16.81 0.823406C16.7718 0.777661 16.8482 0.777661 16.9245 0.777661C16.2373 0.594682 14.9775 0.869151 14.5576 0.731916C14.3667 0.731916 14.2904 0.823406 14.4049 0.869151C11.9235 0.914896 9.28933 0.96064 6.76972 1.05213C6.65519 1.00638 6.61702 1.00639 6.65519 0.914896C4.47917 1.23511 2.18862 1.09787 0.0125897 1.05213C-0.063762 1.14362 0.241645 1.14362 0.0125897 1.18936C0.699756 1.3266 1.31057 1.05213 1.95956 1.18936L1.88321 1.23511C2.34132 1.28085 1.95956 1.05213 2.45585 1.14362C2.64673 1.18936 2.41767 1.23511 2.49402 1.23511C3.4866 1.18936 4.51734 1.28085 5.47174 1.09787C5.7008 1.23511 6.54067 1.09787 6.92243 1.23511C7.18966 1.18936 7.41871 1.18936 7.53324 1.09787C10.9691 1.18936 14.5576 1.05213 18.108 1.05213C19.7877 0.777661 21.7728 1.09787 23.758 1.00639V1.05213C24.407 0.96064 25.3614 0.96064 26.1249 1.00639L26.7739 0.869151C31.4313 1.09787 36.1652 0.96064 40.8608 1.05213C46.2054 1.14362 50.901 1.3266 56.1311 0.96064C56.1311 1.00639 56.1693 1.00639 56.0166 1.00639C57.5055 0.96064 58.8798 1.05213 60.2923 1.00639V1.05213C62.0484 0.914895 63.8808 0.96064 65.6751 0.96064L66.3623 0.96064C66.5532 0.96064 66.7822 1.00638 66.9731 1.05213C67.393 1.18936 67.7748 1.46383 68.1184 1.7383C68.8055 2.33298 69.4164 3.11064 70.0272 3.84256C70.7525 4.75746 71.936 5.2149 73.0431 4.89469C73.5775 4.75746 74.112 4.3915 74.5319 3.93405C74.9519 3.4766 75.2954 2.97341 75.6772 2.47022C76.059 2.01277 76.4789 1.55532 76.9752 1.23511C77.2042 1.09787 77.4715 0.96064 77.7387 0.869151C78.0059 0.777661 78.2732 0.777661 78.5404 0.777661C79.6475 0.777661 80.7546 0.731916 81.8617 0.731916V0.777661C85.3739 0.640427 88.7334 0.96064 92.2074 0.869151C95.7959 1.00639 99.5753 0.548937 103.202 0.731916C105.454 1.00639 108.394 0.411703 110.494 0.686172C114.807 1.14362 119.007 0.823406 123.321 0.594682C127.291 0.731916 131.299 0.365958 135.155 0.686172C136.988 0.457448 139.011 0.96064 141.034 0.869151L140.958 0.777661C141.683 1.00638 142.6 0.457448 143.058 0.777661H142.981C143.363 0.96064 143.898 0.411703 144.127 0.594682L144.203 0.503192C144.661 0.457448 144.241 0.594682 144.623 0.640427C144.776 0.640427 144.661 0.503192 144.966 0.548937C145.043 0.869151 146.112 0.457448 146.15 0.823406C145.883 0.823406 146.532 0.96064 145.959 1.05213C146.112 1.09787 146.913 1.05213 146.837 0.914896C146.913 0.731916 147.219 0.594682 146.723 0.457448L146.646 0.594682C146.493 0.457448 146.532 0.548937 146.455 0.457448C145.844 0.457448 145.73 0.274469 145.31 0.182979C145.005 0.320213 144.585 0.228724 144.356 0.228724L144.279 0.182979C144.127 0.0457448 143.554 0.457448 143.745 0.228724C142.485 0.274469 141.034 0.274469 139.622 0.274469C139.431 0.365958 138.553 0.274469 138.858 0.457448C138.515 0.274469 137.446 0.182979 137.064 0.228724C137.064 0.228724 137.102 0.182979 137.14 0.182979C136.377 -0.0914895 136.224 0.411703 135.537 0.0914895C135.422 0.320213 134.239 -5.4532e-08 133.857 0.274469C133.666 0.228724 133.666 0.182979 133.666 0.137234C132.368 0.137234 130.956 0.0457447 129.887 0.0457447C128.971 0.228724 127.635 -0.0457448 126.871 0.228724C126.222 0.182979 125.153 0.0457448 124.237 0.182979L124.313 0.137234C123.283 0.137234 121.985 0.182979 121.259 0.320213C120.954 0.0457447 120.496 0.0914896 120.038 0C119.35 0.137234 117.938 0.0914896 116.907 0.182979C116.754 0.0457448 116.029 0.228724 115.991 0.0457447C113.013 0.411703 109.348 0.274469 106.18 0L106.218 0C105.798 0.0914896 105.34 0.320213 104.92 0.411703C104.882 0.411703 104.882 0.365958 104.958 0.365958C104.385 0.411703 103.851 0.228724 103.278 0.274469C103.278 0.274469 103.317 0.228724 103.393 0.228724C102.858 0.320213 102.286 0.0914895 101.637 0.228724H101.599L101.179 0.274469C101.179 0.228724 101.217 0.137234 101.408 0.137234C96.4449 0.0914894 91.3293 0.365958 86.2137 0.320213L86.4046 0.274469L85.412 0.365958C85.412 0.320213 85.4502 0.320213 85.5266 0.320213C84.2668 0.228724 82.9688 0.365958 81.7472 0.365958C81.7472 0.320213 81.938 0.274469 81.7853 0.228724C80.8691 0.365958 80.3347 0.0457447 79.8765 0.365958C79.8384 0.365958 79.8002 0.274469 79.9147 0.274469C79.6093 0.274469 79.2657 0.320213 78.9603 0.320213C78.6549 0.320213 78.3495 0.320213 77.9678 0.365958C77.2424 0.503192 76.6698 0.96064 76.1353 1.46383C75.639 1.96703 75.1809 2.56171 74.7228 3.11064C74.4938 3.38511 74.3029 3.65958 74.0738 3.84256C73.8448 4.02554 73.5775 4.20852 73.3103 4.30001C72.8904 4.57448 72.3559 4.66597 71.8214 4.52873C71.287 4.43724 70.7907 4.11703 70.4089 3.70533C69.6454 2.79043 68.8819 1.64681 67.8511 1.05213L67.8893 1.00639C67.5457 0.823406 67.2021 0.640427 66.8204 0.594682C66.4386 0.548937 66.095 0.594682 65.7133 0.594682C64.988 0.594682 64.2626 0.594682 63.4991 0.594682C62.0102 0.548937 60.5214 0.503192 59.0325 0.548937C57.8109 0.503192 56.971 0.594682 55.7494 0.594682L55.7112 0.503192C53.6497 0.777661 51.3592 0.228724 49.1831 0.548937L49.3358 0.457448C48.9923 0.594682 48.0379 0.411703 48.1524 0.686172L47.7706 0.594682C46.3199 0.96064 45.0983 0.411703 43.304 0.686172L43.4186 0.640427C42.9223 0.686172 42.3878 0.731916 42.0061 0.686172C42.0824 0.686172 42.0442 0.640427 42.1588 0.640427C40.6699 0.365958 38.9902 0.686172 37.425 0.640427L37.6158 0.503192C36.8523 0.640427 35.4398 0.503192 34.4472 0.594682L34.5236 0.548937L34.0273 0.640427V0.548937C32.653 0.503192 31.4313 0.594682 30.1334 0.640427Z" fill="url(#paint1_linear_916_1945)"/>
<defs>
<linearGradient id="paint0_linear_916_1945" x1="-2.07601" y1="2.50796" x2="146.967" y2="2.50796" gradientUnits="userSpaceOnUse">
<stop stop-color="#0F6CBD" stop-opacity="0"/>
<stop offset="0.25" stop-color="#0F6CBD"/>
<stop offset="0.500694" stop-color="#0F6CBD"/>
<stop offset="0.75" stop-color="#0F6CBD"/>
<stop offset="1" stop-color="#0F6CBD" stop-opacity="0"/>
</linearGradient>
<linearGradient id="paint1_linear_916_1945" x1="-2.07601" y1="2.49204" x2="146.967" y2="2.49204" gradientUnits="userSpaceOnUse">
<stop stop-color="#0F6CBD" stop-opacity="0"/>
<stop offset="0.25" stop-color="#0F6CBD"/>
<stop offset="0.500694" stop-color="#0F6CBD"/>
<stop offset="0.75" stop-color="#0F6CBD"/>
<stop offset="1" stop-color="#0F6CBD" stop-opacity="0"/>
</linearGradient>
</defs>
</svg>
