<svg width="12" height="12" viewBox="0 0 12 12" fill="none" xmlns="http://www.w3.org/2000/svg">
<path d="M4.43958 10C4.57218 10 4.69936 9.94732 4.79313 9.85355C4.8869 9.75979 4.93958 9.63261 4.93958 9.5C4.93958 9.36739 4.8869 9.24021 4.79313 9.14645C4.69936 9.05268 4.57218 9 4.43958 9H3.70708L5.35358 7.3535C5.44733 7.25975 5.5 7.13259 5.5 7C5.5 6.86741 5.44733 6.74025 5.35358 6.6465C5.25982 6.55275 5.13266 6.50008 5.00008 6.50008C4.86749 6.50008 4.74033 6.55275 4.64658 6.6465L2.93958 8.3535V7.5C2.93958 7.224 2.71608 7 2.43958 7C2.16308 7 2.00008 7.224 2.00008 7.5V10H4.43958Z" fill="#3425FF"/>
<path d="M7.3535 5.35362L9 3.70712V4.50012C9 4.63273 9.05268 4.75991 9.14645 4.85368C9.24022 4.94745 9.36739 5.00012 9.5 5.00012C9.63261 5.00012 9.75979 4.94745 9.85355 4.85368C9.94732 4.75991 10 4.63273 10 4.50012V2.00012H7.5C7.36739 2.00012 7.24021 2.0528 7.14645 2.14657C7.05268 2.24034 7 2.36752 7 2.50012C7 2.63273 7.05268 2.75991 7.14645 2.85368C7.24021 2.94745 7.36739 3.00012 7.5 3.00012H8.293L6.6465 4.64612C6.451 4.84162 6.451 5.15762 6.6465 5.35312C6.842 5.54862 7.158 5.54912 7.3535 5.35362Z" fill="#3425FF"/>
</svg>
