<svg width="12" height="12" viewBox="0 0 12 12" fill="none" xmlns="http://www.w3.org/2000/svg">
<path d="M3.06042 6.49988C2.92782 6.49988 2.80064 6.55255 2.70687 6.64632C2.6131 6.74009 2.56042 6.86727 2.56042 6.99988C2.56042 7.13248 2.6131 7.25966 2.70687 7.35343C2.80064 7.4472 2.92782 7.49988 3.06042 7.49988H3.79292L2.14642 9.14637C2.05267 9.24013 2 9.36729 2 9.49988C2 9.63246 2.05267 9.75962 2.14642 9.85338C2.24018 9.94713 2.36734 9.9998 2.49992 9.9998C2.63251 9.9998 2.75967 9.94713 2.85342 9.85338L4.56042 8.14637V8.99988C4.56042 9.27588 4.78392 9.49988 5.06042 9.49988C5.33692 9.49988 5.49992 9.27588 5.49992 8.99988V6.49988H3.06042ZM3.49992 5.49988C3.63253 5.49988 3.75971 5.4472 3.85348 5.35343C3.94725 5.25966 3.99992 5.13248 3.99992 4.99988V3.99988H4.99992C5.13253 3.99988 5.25971 3.9472 5.35348 3.85343C5.44725 3.75966 5.49992 3.63248 5.49992 3.49988C5.49992 3.36727 5.44725 3.24009 5.35348 3.14632C5.25971 3.05255 5.13253 2.99988 4.99992 2.99988H3.00042L2.99992 4.99988C2.99992 5.13248 3.0526 5.25966 3.14637 5.35343C3.24014 5.4472 3.36732 5.49988 3.49992 5.49988ZM8.49992 6.49988C8.36732 6.49988 8.24014 6.55255 8.14637 6.64632C8.0526 6.74009 7.99992 6.86727 7.99992 6.99988V7.99988H6.99992C6.86732 7.99988 6.74014 8.05255 6.64637 8.14632C6.5526 8.24009 6.49992 8.36727 6.49992 8.49988C6.49992 8.63248 6.5526 8.75966 6.64637 8.85343C6.74014 8.9472 6.86732 8.99988 6.99992 8.99988H8.99992V6.99988C8.99992 6.86727 8.94725 6.74009 8.85348 6.64632C8.75971 6.55255 8.63253 6.49988 8.49992 6.49988ZM9.14642 2.14638L7.49992 3.79288V2.99988C7.49992 2.86727 7.44725 2.74009 7.35348 2.64632C7.25971 2.55255 7.13253 2.49988 6.99992 2.49988C6.86732 2.49988 6.74014 2.55255 6.64637 2.64632C6.5526 2.74009 6.49992 2.86727 6.49992 2.99988V5.49988H8.99992C9.13253 5.49988 9.25971 5.4472 9.35348 5.35343C9.44725 5.25966 9.49992 5.13248 9.49992 4.99988C9.49992 4.86727 9.44725 4.74009 9.35348 4.64632C9.25971 4.55255 9.13253 4.49988 8.99992 4.49988H8.20692L9.85343 2.85388C10.0489 2.65838 10.0489 2.34238 9.85343 2.14688C9.65793 1.95138 9.34192 1.95088 9.14642 2.14638Z" fill="white"/>
</svg>
