<svg width="35" height="35" viewBox="0 0 35 35" fill="none" xmlns="http://www.w3.org/2000/svg">
<path d="M17.3333 0C17.908 0 18.4591 0.228274 18.8654 0.634602C19.2717 1.04093 19.5 1.59203 19.5 2.16667V15.1667H32.5C33.0746 15.1667 33.6257 15.3949 34.0321 15.8013C34.4384 16.2076 34.6667 16.7587 34.6667 17.3333C34.6667 17.908 34.4384 18.4591 34.0321 18.8654C33.6257 19.2717 33.0746 19.5 32.5 19.5H19.5V32.5C19.5 33.0746 19.2717 33.6257 18.8654 34.0321C18.4591 34.4384 17.908 34.6667 17.3333 34.6667C16.7587 34.6667 16.2076 34.4384 15.8013 34.0321C15.3949 33.6257 15.1667 33.0746 15.1667 32.5V19.5H2.16667C1.59203 19.5 1.04093 19.2717 0.634602 18.8654C0.228274 18.4591 0 17.908 0 17.3333C0 16.7587 0.228274 16.2076 0.634602 15.8013C1.04093 15.3949 1.59203 15.1667 2.16667 15.1667H15.1667V2.16667C15.1667 1.59203 15.3949 1.04093 15.8013 0.634602C16.2076 0.228274 16.7587 0 17.3333 0Z" fill="#3425FF"/>
</svg>
