<svg width="10" height="10" viewBox="0 0 10 10" fill="none" xmlns="http://www.w3.org/2000/svg">
<path d="M1.02235 3.30779C1.13955 3.19062 1.29849 3.1248 1.46422 3.1248C1.62995 3.1248 1.78889 3.19062 1.9061 3.30779L4.99985 6.40154L8.0936 3.30779C8.21147 3.19394 8.36935 3.13094 8.53322 3.13237C8.6971 3.13379 8.85385 3.19952 8.96973 3.3154C9.08561 3.43128 9.15134 3.58804 9.15277 3.75191C9.15419 3.91579 9.0912 4.07366 8.97735 4.19154L5.44172 7.72716C5.32452 7.84433 5.16557 7.91016 4.99985 7.91016C4.83412 7.91016 4.67518 7.84433 4.55797 7.72716L1.02235 4.19154C0.905178 4.07433 0.839355 3.91539 0.839355 3.74966C0.839355 3.58394 0.905178 3.42499 1.02235 3.30779Z" fill="black"/>
</svg>
