<svg width="14" height="17" viewBox="0 0 14 17" fill="none" xmlns="http://www.w3.org/2000/svg">
<path d="M5.75 9.29102L0.823242 4.36426C0.776392 4.31742 0.750057 4.25374 0.75 4.1875V1.1875C0.75 1.1212 0.776358 1.05763 0.823242 1.01074C0.870126 0.963858 0.933696 0.9375 1 0.9375H13C13.0663 0.9375 13.1299 0.963859 13.1768 1.01074C13.2236 1.05763 13.25 1.12119 13.25 1.1875V4.1875L13.2451 4.23633C13.2355 4.28438 13.2119 4.3291 13.1768 4.36426L8.25 9.29102V13.1875L8.24512 13.2363C8.2355 13.2844 8.21192 13.3291 8.17676 13.3643L6.17676 15.3643C6.14182 15.3992 6.09727 15.423 6.04883 15.4326C6.00034 15.4423 5.94997 15.4369 5.9043 15.418C5.85868 15.399 5.81943 15.3672 5.79199 15.3262C5.76459 15.2851 5.75004 15.2368 5.75 15.1875V9.29102Z" stroke="#5B6871" stroke-width="1.5"/>
</svg>
