<svg width="19" height="18" viewBox="0 0 19 18" fill="none" xmlns="http://www.w3.org/2000/svg">
<path d="M4.12915 10.1663L9.84581 15.8829C10.0791 16.1163 10.1911 16.3885 10.1818 16.6996C10.1725 17.0107 10.0508 17.2829 9.81665 17.5163C9.58331 17.7302 9.31109 17.8422 8.99998 17.8523C8.68887 17.8624 8.41665 17.7504 8.18331 17.5163L0.483312 9.81628C0.366646 9.69961 0.283813 9.57322 0.234813 9.43711C0.185813 9.301 0.16209 9.15517 0.163646 8.99961C0.165202 8.84405 0.189701 8.69822 0.237146 8.56211C0.28459 8.426 0.367035 8.29961 0.484479 8.18294L8.18448 0.482942C8.39837 0.269053 8.66592 0.162109 8.98715 0.162109C9.30837 0.162109 9.58526 0.269053 9.81781 0.482942C10.0511 0.716276 10.1678 0.993554 10.1678 1.31478C10.1678 1.636 10.0511 1.91289 9.81781 2.14544L4.12915 7.83294H17.1666C17.4972 7.83294 17.7745 7.94494 17.9985 8.16894C18.2225 8.39294 18.3341 8.66983 18.3333 8.99961C18.3325 9.32939 18.2205 9.60667 17.9973 9.83144C17.7741 10.0562 17.4972 10.1678 17.1666 10.1663H4.12915Z" fill="black"/>
</svg>
