<svg width="15" height="15" viewBox="0 0 15 15" fill="none" xmlns="http://www.w3.org/2000/svg">
<path d="M7.33333 0C7.57645 0 7.80961 0.0965773 7.98151 0.268486C8.15342 0.440394 8.25 0.673552 8.25 0.916667V6.41667H13.75C13.9931 6.41667 14.2263 6.51324 14.3982 6.68515C14.5701 6.85706 14.6667 7.09022 14.6667 7.33333C14.6667 7.57645 14.5701 7.80961 14.3982 7.98151C14.2263 8.15342 13.9931 8.25 13.75 8.25H8.25V13.75C8.25 13.9931 8.15342 14.2263 7.98151 14.3982C7.80961 14.5701 7.57645 14.6667 7.33333 14.6667C7.09022 14.6667 6.85706 14.5701 6.68515 14.3982C6.51324 14.2263 6.41667 13.9931 6.41667 13.75V8.25H0.916667C0.673552 8.25 0.440394 8.15342 0.268486 7.98151C0.0965773 7.80961 0 7.57645 0 7.33333C0 7.09022 0.0965773 6.85706 0.268486 6.68515C0.440394 6.51324 0.673552 6.41667 0.916667 6.41667H6.41667V0.916667C6.41667 0.673552 6.51324 0.440394 6.68515 0.268486C6.85706 0.0965773 7.09022 0 7.33333 0Z" fill="white"/>
</svg>
