<svg width="17" height="13" viewBox="0 0 17 13" fill="none" xmlns="http://www.w3.org/2000/svg">
<path d="M16.6672 5.72611C16.839 5.89801 16.9355 6.13112 16.9355 6.37419C16.9355 6.61726 16.839 6.85037 16.6672 7.02227L11.4816 12.2079C11.3087 12.3748 11.0771 12.4672 10.8368 12.4651C10.5964 12.4631 10.3665 12.3666 10.1966 12.1967C10.0266 12.0267 9.93021 11.7968 9.92813 11.5565C9.92604 11.3161 10.0184 11.0846 10.1854 10.9117L13.8062 7.29086H1.66683C1.42371 7.29086 1.19055 7.19428 1.01865 7.02237C0.846737 6.85046 0.75016 6.6173 0.75016 6.37419C0.75016 6.13107 0.846737 5.89792 1.01865 5.72601C1.19055 5.5541 1.42371 5.45752 1.66683 5.45752H13.8062L10.1854 1.83669C10.0184 1.6638 9.92604 1.43225 9.92813 1.1919C9.93021 0.951557 10.0266 0.721646 10.1966 0.551688C10.3665 0.381731 10.5964 0.285326 10.8368 0.283238C11.0771 0.281149 11.3087 0.373544 11.4816 0.540522L16.6672 5.72611Z" fill="black"/>
</svg>
