<svg width="10" height="10" viewBox="0 0 10 10" fill="none" xmlns="http://www.w3.org/2000/svg">
<path d="M1.02235 6.69221C1.13955 6.80938 1.29849 6.8752 1.46422 6.8752C1.62995 6.8752 1.78889 6.80938 1.9061 6.69221L4.99985 3.59846L8.0936 6.69221C8.21147 6.80606 8.36935 6.86906 8.53322 6.86763C8.6971 6.86621 8.85385 6.80048 8.96973 6.6846C9.08561 6.56872 9.15134 6.41196 9.15277 6.24809C9.15419 6.08421 9.0912 5.92634 8.97735 5.80846L5.44172 2.27284C5.32452 2.15567 5.16557 2.08984 4.99985 2.08984C4.83412 2.08984 4.67518 2.15567 4.55797 2.27284L1.02235 5.80846C0.905178 5.92567 0.839355 6.08461 0.839355 6.25034C0.839355 6.41606 0.905178 6.57501 1.02235 6.69221Z" fill="black"/>
</svg>
