<svg width="348" height="209" viewBox="0 0 348 209" fill="none" xmlns="http://www.w3.org/2000/svg">
<g clip-path="url(#clip0_860_15405)">
<rect x="60.2946" y="63.5723" width="89.4924" height="123.325" rx="5.45685" transform="rotate(15 60.2946 63.5723)" fill="#A5CAFF" fill-opacity="0.2"/>
<g clip-path="url(#clip1_860_15405)">
<path fill-rule="evenodd" clip-rule="evenodd" d="M77.321 95.4823C79.311 96.0156 81.1765 96.9355 82.811 98.1897C84.4455 99.4439 85.817 101.008 86.8471 102.792C87.8773 104.576 88.5459 106.546 88.8148 108.588C89.0837 110.631 88.9477 112.707 88.4144 114.697C86.1719 123.066 77.5693 128.033 69.2 125.79C60.8308 123.548 55.8641 114.945 58.1067 106.576C60.3492 98.2065 68.9518 93.2398 77.321 95.4823ZM74.3699 112.558L71.3391 111.746C67.5874 110.74 63.7577 112.149 61.4994 115.021C62.8716 118.692 65.9379 121.668 70.0121 122.759C74.0863 123.851 78.2297 122.807 81.2538 120.314C80.7336 116.698 78.1215 113.563 74.3699 112.558ZM76.1028 100.029C73.5921 99.3557 71.0113 100.846 70.3385 103.357C69.6658 105.867 71.1558 108.448 73.6665 109.121C76.1773 109.794 78.7581 108.304 79.4309 105.793C80.1036 103.282 78.6137 100.701 76.1028 100.029Z" fill="#A5CAFF"/>
</g>
<line x1="99.6903" y1="113.2" x2="114.449" y2="117.155" stroke="#A5CAFF" stroke-width="3.8198" stroke-linecap="round"/>
<line x1="97.4306" y1="121.634" x2="122.731" y2="128.413" stroke="#A5CAFF" stroke-width="3.8198" stroke-linecap="round"/>
<line x1="70.8942" y1="148.983" x2="96.7217" y2="155.904" stroke="#A5CAFF" stroke-width="3.8198" stroke-linecap="round"/>
<line x1="63.0812" y1="157.06" x2="99.4505" y2="166.805" stroke="#A5CAFF" stroke-width="3.8198" stroke-linecap="round"/>
<line x1="53.7902" y1="166.435" x2="102.81" y2="179.569" stroke="#A5CAFF" stroke-width="3.8198" stroke-linecap="round"/>
<line x1="96.5648" y1="83.9802" x2="110.796" y2="87.7935" stroke="#A5CAFF" stroke-width="7.09391" stroke-linecap="round"/>
</g>
<rect x="61.0663" y="64.9089" width="87.3096" height="121.142" rx="4.36548" transform="rotate(15 61.0663 64.9089)" stroke="#A5CAFF" stroke-width="2.18274"/>
<path d="M109.333 60.6481L96.6461 73.6132L114.534 79.7244L112.432 61.7066L109.333 60.6481ZM255.108 164.524L262.922 148.154H244.019L251.834 164.524H255.108ZM231.842 198.842L232.522 197.353L231.842 198.842ZM185.008 177.442L184.327 178.931L185.008 177.442ZM127.796 11.6705L126.247 11.1413L127.796 11.6705ZM108.99 71.7815C109.282 70.9259 108.825 69.9954 107.97 69.7031C107.114 69.4108 106.184 69.8674 105.891 70.723L107.441 71.2523L108.99 71.7815ZM109.592 59.89C109.3 60.7455 109.757 61.6761 110.612 61.9684C111.468 62.2607 112.398 61.804 112.691 60.9485L111.142 60.4192L109.592 59.89ZM116.392 50.1154C116.684 49.2598 116.227 48.3293 115.372 48.037C114.516 47.7447 113.586 48.2014 113.293 49.0569L114.843 49.5862L116.392 50.1154ZM116.994 38.2239C116.702 39.0794 117.159 40.01 118.014 40.3023C118.87 40.5946 119.8 40.1379 120.093 39.2824L118.543 38.7531L116.994 38.2239ZM123.794 28.4493C124.086 27.5938 123.629 26.6632 122.774 26.3709C121.918 26.0786 120.988 26.5353 120.695 27.3908L122.244 27.9201L123.794 28.4493ZM124.396 16.5578C124.104 17.4134 124.561 18.3439 125.416 18.6362C126.272 18.9285 127.202 18.4719 127.495 17.6163L125.945 17.087L124.396 16.5578ZM134.896 17.286C135.138 18.157 136.041 18.6665 136.912 18.4241C137.783 18.1816 138.292 17.2789 138.05 16.4079L136.473 16.847L134.896 17.286ZM140.815 26.3399C140.572 25.4689 139.67 24.9594 138.799 25.2018C137.928 25.4443 137.418 26.347 137.661 27.218L139.238 26.7789L140.815 26.3399ZM140.426 37.1499C140.668 38.0209 141.571 38.5304 142.442 38.288C143.313 38.0455 143.822 37.1428 143.58 36.2719L142.003 36.7109L140.426 37.1499ZM146.345 46.2038C146.102 45.3328 145.2 44.8233 144.329 45.0658C143.458 45.3082 142.948 46.2109 143.19 47.0819L144.768 46.6428L146.345 46.2038ZM145.955 57.0138C146.198 57.8848 147.1 58.3943 147.971 58.1519C148.842 57.9094 149.352 57.0068 149.11 56.1358L147.532 56.5748L145.955 57.0138ZM151.874 66.0677C151.632 65.1967 150.729 64.6872 149.858 64.9297C148.987 65.1721 148.478 66.0748 148.72 66.9458L150.297 66.5067L151.874 66.0677ZM151.485 76.8777C151.728 77.7487 152.63 78.2583 153.501 78.0158C154.372 77.7733 154.882 76.8707 154.639 75.9997L153.062 76.4387L151.485 76.8777ZM157.404 85.9316C157.162 85.0606 156.259 84.5511 155.388 84.7936C154.517 85.036 154.008 85.9387 154.25 86.8097L155.827 86.3706L157.404 85.9316ZM157.015 96.7416C157.257 97.6126 158.16 98.1221 159.031 97.8797C159.902 97.6372 160.412 96.7346 160.169 95.8636L158.592 96.3026L157.015 96.7416ZM162.934 105.796C162.691 104.925 161.789 104.415 160.918 104.657C160.047 104.9 159.537 105.803 159.78 106.674L161.357 106.235L162.934 105.796ZM162.545 116.606C162.787 117.477 163.69 117.986 164.561 117.744C165.432 117.501 165.941 116.598 165.699 115.727L164.122 116.166L162.545 116.606ZM168.464 125.659C168.221 124.788 167.319 124.279 166.448 124.521C165.577 124.764 165.067 125.666 165.31 126.537L166.887 126.098L168.464 125.659ZM168.074 136.469C168.317 137.34 169.22 137.85 170.091 137.607C170.962 137.365 171.471 136.462 171.229 135.591L169.651 136.03L168.074 136.469ZM173.993 145.523C173.751 144.652 172.848 144.143 171.977 144.385C171.106 144.628 170.597 145.53 170.839 146.401L172.416 145.962L173.993 145.523ZM173.604 156.333C173.847 157.204 174.749 157.714 175.62 157.471C176.491 157.229 177.001 156.326 176.758 155.455L175.181 155.894L173.604 156.333ZM179.523 165.387C179.281 164.516 178.378 164.007 177.507 164.249C176.636 164.492 176.127 165.394 176.369 166.265L177.946 165.826L179.523 165.387ZM190.182 181.606C191.004 181.982 191.975 181.62 192.351 180.797C192.727 179.975 192.365 179.004 191.542 178.628L190.862 180.117L190.182 181.606ZM203.251 183.978C202.429 183.602 201.457 183.964 201.082 184.786C200.706 185.609 201.068 186.58 201.89 186.956L202.571 185.467L203.251 183.978ZM213.599 192.306C214.421 192.681 215.392 192.319 215.768 191.497C216.144 190.675 215.782 189.704 214.959 189.328L214.279 190.817L213.599 192.306ZM226.668 194.678C225.845 194.302 224.874 194.664 224.498 195.486C224.123 196.309 224.485 197.28 225.307 197.656L225.987 196.167L226.668 194.678ZM239.399 201.835C240.301 201.769 240.979 200.985 240.913 200.083C240.848 199.182 240.064 198.504 239.162 198.569L239.28 200.202L239.399 201.835ZM250.181 191.489C249.747 192.282 250.037 193.277 250.83 193.712C251.623 194.146 252.618 193.855 253.052 193.062L251.617 192.276L250.181 191.489ZM255.108 180.346C255.108 179.441 254.375 178.709 253.471 178.709C252.567 178.709 251.834 179.441 251.834 180.346H253.471H255.108ZM251.834 171.148C251.834 172.052 252.567 172.785 253.471 172.785C254.375 172.785 255.108 172.052 255.108 171.148H253.471H251.834ZM255.108 161.95C255.108 161.046 254.375 160.313 253.471 160.313C252.567 160.313 251.834 161.046 251.834 161.95H253.471H255.108ZM251.834 152.752C251.834 153.657 252.567 154.389 253.471 154.389C254.375 154.389 255.108 153.657 255.108 152.752H253.471H251.834ZM111.142 60.4192L112.691 60.9485L116.392 50.1154L114.843 49.5862L113.293 49.0569L109.592 59.89L111.142 60.4192ZM118.543 38.7531L120.093 39.2824L123.794 28.4493L122.244 27.9201L120.695 27.3908L116.994 38.2239L118.543 38.7531ZM125.945 17.087L127.495 17.6163L129.345 12.1998L127.796 11.6705L126.247 11.1413L124.396 16.5578L125.945 17.087ZM127.796 11.6705L129.345 12.1998C130.039 10.1696 132.938 10.2533 133.513 12.32L135.09 11.881L136.668 11.442C135.229 6.27515 127.981 6.06599 126.247 11.1413L127.796 11.6705ZM135.09 11.881L133.513 12.32L134.896 17.286L136.473 16.847L138.05 16.4079L136.668 11.442L135.09 11.881ZM139.238 26.7789L137.661 27.218L140.426 37.1499L142.003 36.7109L143.58 36.2719L140.815 26.3399L139.238 26.7789ZM144.768 46.6428L143.19 47.0819L145.955 57.0138L147.532 56.5748L149.11 56.1358L146.345 46.2038L144.768 46.6428ZM150.297 66.5067L148.72 66.9458L151.485 76.8777L153.062 76.4387L154.639 75.9997L151.874 66.0677L150.297 66.5067ZM155.827 86.3706L154.25 86.8097L157.015 96.7416L158.592 96.3026L160.169 95.8636L157.404 85.9316L155.827 86.3706ZM161.357 106.235L159.78 106.674L162.545 116.606L164.122 116.166L165.699 115.727L162.934 105.796L161.357 106.235ZM166.887 126.098L165.31 126.537L168.074 136.469L169.651 136.03L171.229 135.591L168.464 125.659L166.887 126.098ZM172.416 145.962L170.839 146.401L173.604 156.333L175.181 155.894L176.758 155.455L173.993 145.523L172.416 145.962ZM177.946 165.826L176.369 166.265L177.751 171.231L179.329 170.792L180.906 170.353L179.523 165.387L177.946 165.826ZM179.329 170.792L177.751 171.231C178.701 174.642 181.107 177.46 184.327 178.931L185.008 177.442L185.688 175.953C183.346 174.883 181.596 172.834 180.906 170.353L179.329 170.792ZM185.008 177.442L184.327 178.931L190.182 181.606L190.862 180.117L191.542 178.628L185.688 175.953L185.008 177.442ZM202.571 185.467L201.89 186.956L213.599 192.306L214.279 190.817L214.959 189.328L203.251 183.978L202.571 185.467ZM225.987 196.167L225.307 197.656L231.161 200.331L231.842 198.842L232.522 197.353L226.668 194.678L225.987 196.167ZM231.842 198.842L231.161 200.331C233.875 201.57 236.691 202.031 239.399 201.835L239.28 200.202L239.162 198.569C236.993 198.727 234.727 198.36 232.522 197.353L231.842 198.842ZM251.617 192.276L253.052 193.062C254.357 190.681 255.108 187.928 255.108 184.944H253.471H251.834C251.834 187.369 251.225 189.582 250.181 191.489L251.617 192.276ZM253.471 184.944H255.108V180.346H253.471H251.834V184.944H253.471ZM253.471 171.148H255.108V161.95H253.471H251.834V171.148H253.471Z" fill="url(#paint0_linear_860_15405)"/>
<rect x="210.635" y="25.9195" width="87.3096" height="121.142" rx="4.36548" fill="#3425FF" fill-opacity="0.1"/>
<rect x="210.635" y="25.9195" width="87.3096" height="121.142" rx="4.36548" stroke="#3425FF" stroke-width="2.18274"/>
<path fill-rule="evenodd" clip-rule="evenodd" d="M233.28 35.6055C235.341 35.6055 237.381 36.0112 239.284 36.7997C241.188 37.5881 242.917 38.7437 244.374 40.2005C245.831 41.6573 246.986 43.3868 247.775 45.2902C248.563 47.1936 248.969 49.2337 248.969 51.2939C248.969 59.9584 241.945 66.9824 233.28 66.9824C224.616 66.9824 217.592 59.9584 217.592 51.2939C217.592 42.6295 224.616 35.6055 233.28 35.6055ZM234.849 52.8628H231.712C227.828 52.8628 224.493 55.2151 223.055 58.573C225.331 61.764 229.063 63.8447 233.28 63.8447C237.498 63.8447 241.23 61.764 243.506 58.5728C242.068 55.2151 238.733 52.8628 234.849 52.8628ZM233.28 40.312C230.681 40.312 228.574 42.4192 228.574 45.0185C228.574 47.6179 230.681 49.7251 233.28 49.7251C235.88 49.7251 237.987 47.6179 237.987 45.0185C237.987 42.4192 235.88 40.312 233.28 40.312Z" fill="#3425FF"/>
<line x1="259.473" y1="46.928" x2="274.753" y2="46.928" stroke="#3425FF" stroke-width="3.8198" stroke-linecap="round"/>
<line x1="259.473" y1="55.6604" x2="285.666" y2="55.6604" stroke="#3425FF" stroke-width="3.8198" stroke-linecap="round"/>
<line x1="240.92" y1="88.9475" x2="267.659" y2="88.9475" stroke="#3425FF" stroke-width="3.8198" stroke-linecap="round"/>
<line x1="235.463" y1="98.7698" x2="273.116" y2="98.7698" stroke="#3425FF" stroke-width="3.8198" stroke-linecap="round"/>
<line x1="228.915" y1="110.229" x2="279.664" y2="110.229" stroke="#3425FF" stroke-width="3.8198" stroke-linecap="round"/>
<line x1="246.923" y1="137.514" x2="261.656" y2="137.514" stroke="#3425FF" stroke-width="7.09391" stroke-linecap="round"/>
<path d="M337.74 13.601L338.373 15.5133C338.57 16.0951 338.902 16.6238 339.344 17.0569C339.786 17.49 340.326 17.8156 340.919 18.0077L342.867 18.629L342.906 18.6398C343.056 18.6917 343.186 18.7881 343.278 18.9157C343.37 19.0433 343.42 19.1958 343.42 19.3522C343.42 19.5086 343.37 19.6611 343.278 19.7887C343.186 19.9163 343.056 20.0127 342.906 20.0646L340.957 20.686C340.364 20.878 339.825 21.2037 339.383 21.6368C338.941 22.0699 338.608 22.5985 338.412 23.1804L337.778 25.0909C337.725 25.2384 337.627 25.3662 337.497 25.4565C337.367 25.5469 337.212 25.5954 337.052 25.5954C336.893 25.5954 336.738 25.5469 336.608 25.4565C336.478 25.3662 336.379 25.2384 336.327 25.0909L335.692 23.1804C335.497 22.5973 335.165 22.0671 334.724 21.6323C334.282 21.1968 333.742 20.869 333.148 20.6753L331.199 20.0539C331.049 20.002 330.919 19.9056 330.827 19.778C330.735 19.6504 330.685 19.4978 330.685 19.3415C330.685 19.1851 330.735 19.0326 330.827 18.905C330.919 18.7774 331.049 18.681 331.199 18.629L333.148 18.0077C333.734 17.8104 334.265 17.4825 334.7 17.0497C335.134 16.6168 335.461 16.0909 335.653 15.5133L336.286 13.6027C336.339 13.4546 336.437 13.3262 336.567 13.2354C336.698 13.1445 336.854 13.0957 337.013 13.0957C337.173 13.0957 337.329 13.1445 337.459 13.2354C337.589 13.3262 337.688 13.4528 337.74 13.601ZM346.664 27.7639L345.271 27.3211C344.848 27.1823 344.464 26.9489 344.149 26.6393C343.833 26.3298 343.596 25.9525 343.455 25.5373L343 24.1732C342.962 24.0677 342.892 23.9763 342.799 23.9117C342.707 23.847 342.595 23.8123 342.482 23.8123C342.368 23.8123 342.257 23.847 342.164 23.9117C342.071 23.9763 342.001 24.0677 341.963 24.1732L341.512 25.5373C341.373 25.9498 341.14 26.3254 340.829 26.6348C340.519 26.9442 340.14 27.179 339.722 27.3211L338.33 27.7639C338.223 27.8017 338.131 27.8708 338.066 27.9619C338.001 28.0529 337.966 28.1615 337.966 28.2728C337.966 28.384 338.001 28.4926 338.066 28.5837C338.131 28.6747 338.223 28.7439 338.33 28.7816L339.722 29.2262C340.146 29.3651 340.531 29.5991 340.847 29.9096C341.163 30.2202 341.4 30.5988 341.541 31.0154L341.992 32.3795C342.03 32.485 342.1 32.5764 342.193 32.641C342.286 32.7056 342.397 32.7404 342.511 32.7404C342.625 32.7404 342.736 32.7056 342.829 32.641C342.921 32.5764 342.992 32.485 343.029 32.3795L343.482 31.0154C343.623 30.6 343.861 30.2226 344.177 29.913C344.492 29.6034 344.877 29.3701 345.3 29.2316L346.692 28.7888C346.798 28.751 346.891 28.6819 346.956 28.5908C347.021 28.4997 347.056 28.3912 347.056 28.2799C347.056 28.1686 347.021 28.0601 346.956 27.969C346.891 27.8779 346.798 27.8088 346.692 27.771L346.664 27.7639Z" fill="#3425FF"/>
<path d="M7.05489 182.218L7.68805 184.13C7.88459 184.712 8.21715 185.241 8.65913 185.674C9.10112 186.107 9.64026 186.433 10.2334 186.625L12.182 187.246L12.2202 187.257C12.3705 187.309 12.5007 187.405 12.5928 187.533C12.6848 187.661 12.7343 187.813 12.7343 187.969C12.7343 188.126 12.6848 188.278 12.5928 188.406C12.5007 188.533 12.3705 188.63 12.2202 188.682L10.2716 189.303C9.67846 189.495 9.13933 189.821 8.69734 190.254C8.25536 190.687 7.9228 191.216 7.72626 191.798L7.0931 193.708C7.04019 193.856 6.94195 193.983 6.81191 194.074C6.68188 194.164 6.52648 194.213 6.36715 194.213C6.20782 194.213 6.05241 194.164 5.92238 194.074C5.79235 193.983 5.6941 193.856 5.6412 193.708L5.00622 191.798C4.81123 191.214 4.47973 190.684 4.03829 190.25C3.59659 189.814 3.05692 189.486 2.46267 189.292L0.514065 188.671C0.363774 188.619 0.233608 188.523 0.14153 188.395C0.0494512 188.268 0 188.115 0 187.959C0 187.802 0.0494512 187.65 0.14153 187.522C0.233608 187.395 0.363774 187.298 0.514065 187.246L2.46267 186.625C3.04843 186.428 3.57957 186.1 4.0143 185.667C4.44903 185.234 4.7755 184.708 4.96801 184.13L5.60117 182.22C5.6537 182.072 5.75189 181.943 5.88214 181.853C6.01239 181.762 6.16823 181.713 6.32803 181.713C6.48783 181.713 6.64367 181.762 6.77392 181.853C6.90417 181.943 7.00237 182.07 7.05489 182.218ZM15.9792 196.381L14.5855 195.938C14.1626 195.8 13.7784 195.566 13.4632 195.257C13.1481 194.947 12.9107 194.57 12.7697 194.154L12.3148 192.79C12.2772 192.685 12.207 192.593 12.1142 192.529C12.0213 192.464 11.9102 192.429 11.7963 192.429C11.6824 192.429 11.5714 192.464 11.4785 192.529C11.3856 192.593 11.3154 192.685 11.2778 192.79L10.8266 194.154C10.6882 194.567 10.4546 194.943 10.1441 195.252C9.83355 195.561 9.45442 195.796 9.03624 195.938L7.64438 196.381C7.53774 196.419 7.44555 196.488 7.3804 196.579C7.31524 196.67 7.28028 196.779 7.28028 196.89C7.28028 197.001 7.31524 197.11 7.3804 197.201C7.44555 197.292 7.53774 197.361 7.64438 197.399L9.03624 197.843C9.4604 197.982 9.84571 198.216 10.1616 198.527C10.4774 198.837 10.7151 199.216 10.8557 199.633L11.3069 200.997C11.3446 201.102 11.4147 201.194 11.5076 201.258C11.6005 201.323 11.7115 201.358 11.8254 201.358C11.9393 201.358 12.0504 201.323 12.1433 201.258C12.2362 201.194 12.3063 201.102 12.344 200.997L12.797 199.633C12.9381 199.217 13.1758 198.84 13.4913 198.53C13.8068 198.221 14.1914 197.987 14.6146 197.849L16.0065 197.406C16.1131 197.368 16.2053 197.299 16.2704 197.208C16.3356 197.117 16.3706 197.008 16.3706 196.897C16.3706 196.786 16.3356 196.677 16.2704 196.586C16.2053 196.495 16.1131 196.426 16.0065 196.388L15.9792 196.381Z" fill="#3425FF"/>
<defs>
<linearGradient id="paint0_linear_860_15405" x1="173.255" y1="127.963" x2="105.863" y2="73.6675" gradientUnits="userSpaceOnUse">
<stop stop-color="#3425FF"/>
<stop offset="1" stop-color="#A5CAFF"/>
</linearGradient>
<clipPath id="clip0_860_15405">
<rect x="60.2946" y="63.5723" width="89.4924" height="123.325" rx="5.45685" transform="rotate(15 60.2946 63.5723)" fill="white"/>
</clipPath>
<clipPath id="clip1_860_15405">
<rect width="37.6523" height="37.6523" fill="white" transform="translate(59.948 87.5801) rotate(15)"/>
</clipPath>
</defs>
</svg>
