<svg width="24" height="24" viewBox="0 0 24 24" fill="none" xmlns="http://www.w3.org/2000/svg">
<path d="M11.9995 10.7373C12.6971 10.7373 13.2626 10.1717 13.2626 9.4741C13.2626 8.77647 12.6971 8.21094 11.9995 8.21094C11.3019 8.21094 10.7363 8.77647 10.7363 9.4741C10.7363 10.1717 11.3019 10.7373 11.9995 10.7373Z" stroke="#D36626" stroke-width="1.5" stroke-linecap="round"/>
<path d="M15.1164 8.84196C15.1987 8.69714 15.3089 8.57005 15.4406 8.46798C15.5722 8.36592 15.7228 8.2909 15.8835 8.24725C16.0443 8.20361 16.2121 8.19219 16.3773 8.21366C16.5425 8.23513 16.7018 8.28907 16.8461 8.37236C16.9903 8.45566 17.1167 8.56667 17.2179 8.699C17.3191 8.83133 17.3931 8.98237 17.4357 9.14342C17.4783 9.30447 17.4886 9.47235 17.466 9.6374C17.4434 9.80245 17.3884 9.96141 17.3042 10.1051C17.1355 10.3929 16.8598 10.6022 16.5374 10.6875C16.2149 10.7727 15.8718 10.727 15.5829 10.5602C15.294 10.3934 15.0829 10.1191 14.9955 9.79724C14.9081 9.47534 14.9515 9.13193 15.1164 8.84196ZM6.69535 8.84196C6.77769 8.69714 6.88785 8.57005 7.01951 8.46798C7.15117 8.36592 7.30171 8.2909 7.46248 8.24725C7.62324 8.20361 7.79105 8.19219 7.95625 8.21366C8.12144 8.23513 8.28076 8.28907 8.42503 8.37236C8.56929 8.45566 8.69566 8.56667 8.79685 8.699C8.89804 8.83133 8.97205 8.98237 9.01463 9.14342C9.05721 9.30447 9.06751 9.47235 9.04495 9.6374C9.02238 9.80245 8.96739 9.96141 8.88314 10.1051C8.71444 10.3929 8.43878 10.6022 8.1163 10.6875C7.79382 10.7727 7.45071 10.727 7.16184 10.5602C6.87297 10.3934 6.6618 10.1191 6.5744 9.79724C6.48701 9.47534 6.53049 9.13193 6.69535 8.84196Z" stroke="#D36626" stroke-width="1.5"/>
<path d="M13.7688 12.9979L13.5246 12.656L13.0757 12.976L13.5027 13.3246L13.7688 12.9979ZM18.3161 15.3684H14.1056V16.2105H18.3161V15.3684ZM18.6344 15.056C18.6446 15.0916 18.6453 15.1293 18.6362 15.1652C18.6272 15.2011 18.6089 15.2341 18.5831 15.2606C18.5483 15.2959 18.5067 15.3237 18.4608 15.3422C18.4149 15.3607 18.3656 15.3697 18.3161 15.3684V16.2105C18.9898 16.2105 19.6382 15.6354 19.453 14.8598L18.6344 15.056ZM15.7898 12.8421C16.8222 12.8421 17.4656 13.1865 17.8799 13.6101C18.306 14.0455 18.5241 14.5987 18.6344 15.056L19.453 14.8598C19.3233 14.3192 19.053 13.6051 18.482 13.0206C17.8984 12.4253 17.0336 12 15.7898 12V12.8421ZM14.013 13.3406C14.4155 13.0535 14.9814 12.8421 15.7898 12.8421V12C14.8248 12 14.0846 12.2552 13.5246 12.656L14.013 13.3406ZM13.5027 13.3238C14.0526 13.7735 14.3144 14.4716 14.4349 15.0425L15.2593 14.8691C15.1229 14.2232 14.8046 13.3002 14.0349 12.672L13.5027 13.3238ZM14.4349 15.0425C14.4438 15.0807 14.4431 15.1196 14.4328 15.1574C14.4225 15.1951 14.4029 15.2298 14.3759 15.2581C14.3407 15.2938 14.2986 15.322 14.2521 15.341C14.2056 15.36 14.1558 15.3693 14.1056 15.3684V16.2105C14.7827 16.2105 15.4201 15.6379 15.2593 14.8691L14.4349 15.0425ZM10.2319 12.9979L10.498 13.3246L10.925 12.976L10.477 12.656L10.2319 12.9979ZM8.21087 12.8421C9.01929 12.8421 9.58434 13.0526 9.98771 13.3406L10.4761 12.6552C9.91697 12.256 9.17676 12 8.21087 12V12.8421ZM5.36624 15.056C5.47571 14.5987 5.69466 14.0455 6.12076 13.6101C6.53508 13.1865 7.17845 12.8421 8.21087 12.8421V12C6.96624 12 6.10224 12.4253 5.51866 13.0206C4.94771 13.6042 4.67655 14.3192 4.54771 14.8598L5.36624 15.056ZM5.68455 15.3684C5.63505 15.3697 5.58582 15.3607 5.53991 15.3422C5.49399 15.3237 5.45237 15.2959 5.41761 15.2606C5.39194 15.234 5.37376 15.201 5.36489 15.1651C5.35602 15.1292 5.35593 15.0915 5.36624 15.056L4.54771 14.8598C4.36245 15.6354 5.01087 16.2105 5.68455 16.2105V15.3684ZM9.89508 15.3684H5.68455V16.2105H9.89508V15.3684ZM9.89508 15.3684C9.84482 15.3695 9.79486 15.3604 9.74824 15.3416C9.70163 15.3227 9.65933 15.2946 9.62392 15.2589C9.5969 15.2306 9.57736 15.196 9.56707 15.1582C9.55677 15.1204 9.55606 15.0807 9.56497 15.0425L8.7414 14.8691C8.57971 15.6371 9.21803 16.2105 9.89508 16.2105V15.3684ZM9.56582 15.0425C9.68624 14.4699 9.94813 13.7735 10.498 13.3246L9.96582 12.672C9.19613 13.3002 8.87782 14.2232 8.7414 14.8691L9.56582 15.0425Z" fill="#D36626"/>
<path d="M19.0437 14.9575L19.453 14.8598M19.453 14.8598C19.6382 15.6354 18.9898 16.2105 18.3161 16.2105M19.453 14.8598L18.6344 15.056M19.453 14.8598C19.3233 14.3192 19.053 13.6051 18.482 13.0206C17.8984 12.4253 17.0336 12 15.7898 12M13.5246 12.656L13.7688 12.9979L13.5027 13.3246L13.0757 12.976L13.5246 12.656ZM13.5246 12.656C14.0846 12.2552 14.8248 12 15.7898 12M13.5246 12.656L14.013 13.3406C14.4155 13.0535 14.9814 12.8421 15.7898 12.8421M14.8467 14.9558L14.4349 15.0425M14.4349 15.0425C14.3144 14.4716 14.0526 13.7735 13.5027 13.3238L14.0349 12.672C14.8046 13.3002 15.1229 14.2232 15.2593 14.8691M14.4349 15.0425L15.2593 14.8691M14.4349 15.0425C14.4438 15.0807 14.4431 15.1196 14.4328 15.1574C14.4225 15.1951 14.4029 15.2298 14.3759 15.2581C14.3407 15.2938 14.2986 15.322 14.2521 15.341C14.2056 15.36 14.1558 15.3693 14.1056 15.3684M18.3161 15.3684H14.1056M18.3161 15.3684V16.2105M18.3161 15.3684C18.3656 15.3697 18.4149 15.3607 18.4608 15.3422C18.5067 15.3237 18.5483 15.2959 18.5831 15.2606C18.6089 15.2341 18.6272 15.2011 18.6362 15.1652C18.6453 15.1293 18.6446 15.0916 18.6344 15.056M14.1056 15.3684V16.2105M14.1056 16.2105H18.3161M14.1056 16.2105C14.7827 16.2105 15.4201 15.6379 15.2593 14.8691M18.6344 15.056C18.5241 14.5987 18.306 14.0455 17.8799 13.6101C17.4656 13.1865 16.8222 12.8421 15.7898 12.8421M15.7898 12.8421V12M10.498 13.3246L10.2319 12.9979L10.477 12.656L10.925 12.976L10.498 13.3246ZM10.498 13.3246C9.94813 13.7735 9.68624 14.4699 9.56582 15.0425L8.7414 14.8691M10.498 13.3246L9.96582 12.672C9.19613 13.3002 8.87782 14.2232 8.7414 14.8691M4.95697 14.9575L5.36624 15.056M5.36624 15.056C5.47571 14.5987 5.69466 14.0455 6.12076 13.6101C6.53508 13.1865 7.17845 12.8421 8.21087 12.8421M5.36624 15.056L4.54771 14.8598M5.36624 15.056C5.35593 15.0915 5.35602 15.1292 5.36489 15.1651C5.37376 15.201 5.39194 15.234 5.41761 15.2606C5.45237 15.2959 5.49399 15.3237 5.53991 15.3422C5.58582 15.3607 5.63505 15.3697 5.68455 15.3684M9.15403 14.9558L8.7414 14.8691M8.7414 14.8691L9.56497 15.0425C9.55606 15.0807 9.55677 15.1204 9.56707 15.1582C9.57736 15.196 9.5969 15.2306 9.62392 15.2589C9.65933 15.2946 9.70163 15.3227 9.74824 15.3416C9.79486 15.3604 9.84482 15.3695 9.89508 15.3684M8.7414 14.8691C8.57971 15.6371 9.21803 16.2105 9.89508 16.2105M8.21087 12.8421C9.01929 12.8421 9.58434 13.0526 9.98771 13.3406L10.4761 12.6552C9.91697 12.256 9.17676 12 8.21087 12M8.21087 12.8421V12M8.21087 12C6.96624 12 6.10224 12.4253 5.51866 13.0206C4.94771 13.6042 4.67655 14.3192 4.54771 14.8598M4.54771 14.8598C4.36245 15.6354 5.01087 16.2105 5.68455 16.2105M5.68455 15.3684V16.2105M5.68455 15.3684H9.89508M5.68455 16.2105H9.89508M9.89508 15.3684V16.2105" stroke="#D36626" stroke-width="0.4"/>
<path d="M17.4737 20H18.7368C19.0719 20 19.3931 19.8669 19.63 19.63C19.8669 19.3931 20 19.0719 20 18.7368V17.4737M17.4737 4H18.7368C19.0719 4 19.3931 4.13308 19.63 4.36997C19.8669 4.60686 20 4.92815 20 5.26316V6.52632M6.52632 20H5.26316C4.92815 20 4.60686 19.8669 4.36997 19.63C4.13308 19.3931 4 19.0719 4 18.7368V17.4737M6.52632 4H5.26316C4.92815 4 4.60686 4.13308 4.36997 4.36997C4.13308 4.60686 4 4.92815 4 5.26316V6.52632M12 12.4211C13.9907 12.4211 14.6366 13.9579 14.8463 14.9558C14.9423 15.4105 14.5701 15.7895 14.1053 15.7895H9.89474C9.42989 15.7895 9.05768 15.4105 9.15368 14.9558C9.36337 13.9579 10.0093 12.4211 12 12.4211Z" stroke="#D36626" stroke-width="1.5" stroke-linecap="round"/>
</svg>
