<svg width="24" height="24" viewBox="0 0 24 24" fill="none" xmlns="http://www.w3.org/2000/svg">
<path d="M9.47168 8.10938C10.1596 8.82167 11.048 9.30773 12.0188 9.50296C12.9897 9.69819 13.9969 9.59334 14.9067 9.20235" stroke="#329E22" stroke-width="1.5" stroke-linecap="round" stroke-linejoin="round"/>
<path d="M4 8.26738V5.06667C4 4.78377 4.11238 4.51246 4.31242 4.31242C4.51246 4.11238 4.78377 4 5.06667 4H8.26667M20 8.26738V5.06667C20 4.78377 19.8876 4.51246 19.6876 4.31242C19.4875 4.11238 19.2162 4 18.9333 4H15.7333M4 15.7333V18.9333C4 19.2162 4.11238 19.4875 4.31242 19.6876C4.51246 19.8876 4.78377 20 5.06667 20H8.26667M20 15.7333V18.9333C20 19.2162 19.8876 19.4875 19.6876 19.6876C19.4875 19.8876 19.2162 20 18.9333 20H15.7333M16.5063 16.8C16.1799 15.8651 15.5709 15.0548 14.7634 14.4814C13.956 13.9081 12.9903 13.6001 12 13.6001C11.0097 13.6001 10.044 13.9081 9.23656 14.4814C8.42915 15.0548 7.82006 15.8651 7.49369 16.8M9.06667 9.6C9.06667 10.378 9.37571 11.1241 9.92582 11.6742C10.4759 12.2243 11.222 12.5333 12 12.5333C12.778 12.5333 13.5241 12.2243 14.0742 11.6742C14.6243 11.1241 14.9333 10.378 14.9333 9.6C14.9333 8.82203 14.6243 8.07593 14.0742 7.52582C13.5241 6.97571 12.778 6.66667 12 6.66667C11.222 6.66667 10.4759 6.97571 9.92582 7.52582C9.37571 8.07593 9.06667 8.82203 9.06667 9.6Z" stroke="#329E22" stroke-width="1.5" stroke-linecap="round" stroke-linejoin="round"/>
</svg>
