<svg width="25" height="25" viewBox="0 0 25 25" fill="none" xmlns="http://www.w3.org/2000/svg">
<path d="M12.3333 0C12.7422 0 13.1343 0.162425 13.4235 0.451544C13.7126 0.740663 13.875 1.13279 13.875 1.54167V10.7917H23.125C23.5339 10.7917 23.926 10.9541 24.2151 11.2432C24.5042 11.5323 24.6667 11.9245 24.6667 12.3333C24.6667 12.7422 24.5042 13.1343 24.2151 13.4235C23.926 13.7126 23.5339 13.875 23.125 13.875H13.875V23.125C13.875 23.5339 13.7126 23.926 13.4235 24.2151C13.1343 24.5042 12.7422 24.6667 12.3333 24.6667C11.9245 24.6667 11.5323 24.5042 11.2432 24.2151C10.9541 23.926 10.7917 23.5339 10.7917 23.125V13.875H1.54167C1.13279 13.875 0.740663 13.7126 0.451544 13.4235C0.162425 13.1343 0 12.7422 0 12.3333C0 11.9245 0.162425 11.5323 0.451544 11.2432C0.740663 10.9541 1.13279 10.7917 1.54167 10.7917H10.7917V1.54167C10.7917 1.13279 10.9541 0.740663 11.2432 0.451544C11.5323 0.162425 11.9245 0 12.3333 0Z" fill="#3425FF"/>
</svg>
