<svg width="21" height="21" viewBox="0 0 21 21" fill="none" xmlns="http://www.w3.org/2000/svg">
<path d="M19.7804 1.15593C19.4141 0.789461 18.9791 0.498758 18.5004 0.300421C18.0217 0.102084 17.5086 0 16.9904 0C16.4723 0 15.9592 0.102084 15.4804 0.300421C15.0017 0.498758 14.5668 0.789461 14.2004 1.15593L11.9677 3.38943C11.4587 3.89934 11.0987 4.53869 10.9267 5.23836C10.7548 5.93803 10.7773 6.67139 10.9919 7.35918L12.8549 5.49618C13.1017 5.24943 13.3964 5.08368 13.7099 4.99668L15.8744 2.83143C16.021 2.68487 16.1951 2.56863 16.3866 2.48933C16.5781 2.41004 16.7834 2.36924 16.9907 2.36928C17.198 2.36931 17.4033 2.41017 17.5948 2.48953C17.7863 2.5689 17.9603 2.6852 18.1068 2.8318C18.2534 2.97841 18.3696 3.15244 18.4489 3.34397C18.5282 3.5355 18.569 3.74077 18.569 3.94807C18.5689 4.15536 18.5281 4.36062 18.4487 4.55212C18.3693 4.74363 18.253 4.91762 18.1064 5.06418L16.1677 7.00293C16.1361 7.47124 15.9354 7.91211 15.6029 8.24343L13.8292 10.0164C14.4867 10.1758 15.1741 10.1634 15.8254 9.98047C16.4768 9.79751 17.0701 9.45012 17.5484 8.97168L19.7804 6.73893C20.1471 6.37256 20.438 5.93751 20.6365 5.45866C20.835 4.9798 20.9371 4.46653 20.9371 3.94818C20.9371 3.42982 20.835 2.91655 20.6365 2.4377C20.438 1.95885 20.1471 1.5238 19.7804 1.15743" fill="#202020"/>
<path d="M15.0724 7.71233L12.1272 10.6568L12.1249 10.6583C11.7724 11.0101 11.1087 10.9156 10.6444 10.4483C10.1794 9.98108 10.0894 9.31808 10.4419 8.96633L10.4704 8.94008L13.3849 6.02558C13.4957 5.91469 13.6272 5.82672 13.772 5.7667C13.9168 5.70668 14.072 5.67578 14.2287 5.67578C14.3854 5.67578 14.5406 5.70668 14.6854 5.7667C14.8302 5.82672 14.9617 5.91469 15.0724 6.02558C15.1832 6.13632 15.2711 6.2678 15.3311 6.41251C15.391 6.55722 15.4219 6.71232 15.4219 6.86896C15.4219 7.02559 15.391 7.1807 15.3311 7.3254C15.2711 7.47011 15.1832 7.60159 15.0724 7.71233ZM7.27395 11.0483C6.5885 10.8377 5.85859 10.8178 5.16272 10.991C4.46684 11.1641 3.8313 11.5236 3.32445 12.0308L1.09245 14.2643C0.380435 15.01 -0.0115695 16.0046 0.000260161 17.0356C0.0120898 18.0665 0.426814 19.0519 1.15575 19.781C1.88468 20.5102 2.86996 20.9252 3.9009 20.9373C4.93183 20.9494 5.92659 20.5576 6.67245 19.8458L8.9052 17.6138C9.38672 17.1329 9.73565 16.5356 9.91806 15.8799C10.1005 15.2243 10.1102 14.5326 9.9462 13.8721L8.07495 15.7433C7.75098 16.0673 7.32257 16.2659 6.86595 16.3036L4.99845 18.1711C4.70192 18.466 4.30068 18.6316 3.88245 18.6316C3.46421 18.6316 3.06298 18.466 2.76645 18.1711C2.47127 17.8745 2.30556 17.4731 2.30556 17.0547C2.30556 16.6363 2.47127 16.2349 2.76645 15.9383L4.8192 13.8856C4.90638 13.5491 5.08194 13.242 5.3277 12.9961L7.27395 11.0483Z" fill="#202020"/>
<path d="M5.85778 13.5273C5.747 13.638 5.65912 13.7695 5.59916 13.9142C5.53921 14.0589 5.50835 14.214 5.50835 14.3707C5.50835 14.5273 5.53921 14.6824 5.59916 14.8271C5.65912 14.9718 5.747 15.1033 5.85778 15.2141C6.08191 15.4369 6.38511 15.5619 6.70115 15.5619C7.01719 15.5619 7.32039 15.4369 7.54453 15.2141L9.96778 12.7901L10.0068 12.7548C10.36 12.4031 10.2693 11.7393 9.80428 11.2721C9.34002 10.8048 8.67703 10.7111 8.32378 11.0621L8.29228 11.0958L8.29003 11.0943L5.85778 13.5273ZM7.44478 2.07331C7.39634 1.88036 7.27324 1.71456 7.10256 1.61238C6.93188 1.51019 6.7276 1.48 6.53465 1.52843C6.34171 1.57687 6.1759 1.69997 6.07372 1.87065C5.97154 2.04133 5.94134 2.24561 5.98978 2.43856L6.70978 4.66156C6.75821 4.8545 6.88131 5.0203 7.05199 5.12249C7.1365 5.17309 7.23015 5.20654 7.3276 5.22094C7.42504 5.23535 7.52436 5.23042 7.6199 5.20643C7.71544 5.18245 7.80531 5.13989 7.8844 5.08117C7.96349 5.02245 8.03023 4.94873 8.08083 4.86422C8.13143 4.77971 8.16488 4.68605 8.17929 4.58861C8.19369 4.49117 8.18876 4.39185 8.16478 4.29631L7.44478 2.07331ZM1.65703 2.43856C1.72646 2.36858 1.80907 2.31304 1.90008 2.27513C1.99108 2.23723 2.08869 2.21772 2.18728 2.21772C2.28586 2.21772 2.38347 2.23723 2.47448 2.27513C2.56548 2.31304 2.64809 2.36858 2.71753 2.43856L5.71753 5.45356C5.8579 5.59539 5.93665 5.78688 5.93665 5.98643C5.93665 6.18599 5.8579 6.37748 5.71753 6.51931C5.64809 6.58929 5.56548 6.64483 5.47448 6.68273C5.38347 6.72063 5.28586 6.74015 5.18728 6.74015C5.08869 6.74015 4.99108 6.72063 4.90008 6.68273C4.80907 6.64483 4.72646 6.58929 4.65703 6.51931L1.65703 3.50431C1.51665 3.36248 1.4379 3.17099 1.4379 2.97143C1.4379 2.77188 1.51665 2.58039 1.65703 2.43856ZM1.64353 6.76906C1.45472 6.72492 1.25617 6.75517 1.08907 6.85352C0.921975 6.95187 0.799153 7.11078 0.74609 7.29727C0.693027 7.48376 0.713797 7.68352 0.80409 7.85511C0.894383 8.0267 1.04727 8.15694 1.23103 8.21881L3.85603 8.97256C4.04483 9.01669 4.24338 8.98645 4.41048 8.8881C4.57758 8.78975 4.7004 8.63084 4.75346 8.44435C4.80652 8.25786 4.78575 8.05809 4.69546 7.88651C4.60517 7.71492 4.45228 7.58468 4.26853 7.52281L1.64353 6.76906ZM20.158 13.7163C20.1312 13.8112 20.086 13.8999 20.0248 13.9773C19.9637 14.0547 19.888 14.1192 19.8018 14.1673C19.7157 14.2154 19.621 14.246 19.5231 14.2574C19.4251 14.2688 19.3259 14.2608 19.231 14.2338L16.606 13.4808C16.4223 13.4189 16.2694 13.2887 16.1791 13.1171C16.0888 12.9455 16.068 12.7458 16.1211 12.5593C16.1742 12.3728 16.297 12.2139 16.4641 12.1155C16.6312 12.0172 16.8297 11.9869 17.0185 12.0311L19.6435 12.7848C20.041 12.8988 20.272 13.3166 20.158 13.7163ZM18.157 18.5651C18.2265 18.635 18.3091 18.6906 18.4001 18.7285C18.4911 18.7664 18.5887 18.7859 18.6873 18.7859C18.7859 18.7859 18.8835 18.7664 18.9745 18.7285C19.0655 18.6906 19.1481 18.635 19.2175 18.5651C19.3579 18.4232 19.4366 18.2317 19.4366 18.0322C19.4366 17.8326 19.3579 17.6411 19.2175 17.4993L16.2175 14.4843C16.1481 14.4143 16.0655 14.3588 15.9745 14.3209C15.8835 14.283 15.7859 14.2635 15.6873 14.2635C15.5887 14.2635 15.4911 14.283 15.4001 14.3209C15.3091 14.3588 15.2265 14.4143 15.157 14.4843C15.0169 14.6261 14.9383 14.8174 14.9383 15.0168C14.9383 15.2162 15.0169 15.4075 15.157 15.5493L18.157 18.5651ZM14.3395 19.4793C14.2437 19.5032 14.1442 19.5079 14.0466 19.4932C13.9489 19.4785 13.8552 19.4447 13.7707 19.3937C13.6861 19.3427 13.6125 19.2755 13.554 19.196C13.4955 19.1165 13.4533 19.0262 13.4298 18.9303L12.7098 16.7073C12.6857 16.6118 12.6808 16.5124 12.6951 16.415C12.7095 16.3175 12.7429 16.2238 12.7935 16.1393C12.844 16.0547 12.9107 15.981 12.9898 15.9222C13.0689 15.8635 13.1587 15.8208 13.2543 15.7968C13.3498 15.7728 13.4491 15.7678 13.5466 15.7822C13.6441 15.7965 13.7377 15.8299 13.8223 15.8805C13.9068 15.931 13.9806 15.9978 14.0394 16.0768C14.0981 16.1559 14.1407 16.2458 14.1648 16.3413L14.8848 18.5651C14.9334 18.7586 14.9033 18.9635 14.8011 19.1349C14.6989 19.3063 14.5329 19.4301 14.3395 19.4793Z" fill="#202020"/>
</svg>
