<svg width="24" height="8" viewBox="0 0 24 8" fill="none" xmlns="http://www.w3.org/2000/svg">
<path d="M20.9458 8H23.4409C23.6928 8 23.9075 7.82002 23.9493 7.57437C23.9619 7.49796 24.2516 5.702 23.2932 4.50432C23.1454 4.3198 22.9783 4.16019 22.7916 4.02492C22.9096 3.93719 23.0195 3.83699 23.122 3.72548C24.1863 2.56516 23.963 0.536594 23.9533 0.451126C23.9229 0.194157 23.7031 0 23.4414 0H20.9453C18.7909 0 17.0241 1.67315 16.9055 3.77418C16.7802 3.69946 16.6462 3.63266 16.5031 3.57493C15.0454 2.98798 2.91886 3.2523 0.502825 3.31117C0.218281 3.31796 -0.00671768 3.55172 0.000152588 3.83303C0.00702286 4.10981 0.236605 4.33 0.514849 4.33C0.51943 4.33 0.523434 4.32999 0.528015 4.32943C6.03795 4.19528 15.1439 4.12737 16.1137 4.51791C16.7258 4.76469 17.1317 5.32391 17.5617 5.91596C18.2361 6.84422 19.076 8 20.9458 8ZM22.968 6.98062H20.9458C19.605 6.98062 19.0456 6.21197 18.3987 5.32107C18.1851 5.02731 17.9693 4.72959 17.7208 4.45734C17.8502 4.36281 17.9327 4.20943 17.9298 4.03906C17.9292 2.35631 19.2821 1.0194 20.9447 1.0194H22.9496C22.9462 1.62164 22.8329 2.52611 22.3571 3.04288C22.0714 3.35305 21.6878 3.49287 21.164 3.4906C20.8851 3.45721 20.6516 3.70229 20.6395 3.97793C20.6275 4.25415 20.8411 4.48904 21.1199 4.50772C21.7313 4.54791 22.1767 4.75281 22.4825 5.1326C22.9273 5.68673 22.9829 6.49215 22.968 6.98062Z" fill="white"/>
</svg>
