<svg width="24" height="8" viewBox="0 0 24 8" fill="none" xmlns="http://www.w3.org/2000/svg">
<path d="M3.05417 8H0.559128C0.307218 8 0.0925228 7.82002 0.0507288 7.57437C0.0381333 7.49796 -0.25156 5.702 0.70684 4.50432C0.85455 4.3198 1.02173 4.16019 1.20837 4.02492C1.09043 3.93719 0.980502 3.83699 0.878021 3.72548C-0.186295 2.56516 0.0369905 0.536594 0.0467234 0.451126C0.077067 0.194157 0.296913 0 0.558555 0H3.05475C5.20914 0 6.97594 1.67315 7.09445 3.77418C7.21983 3.69946 7.35381 3.63266 7.49694 3.57493C8.95457 2.98798 21.0811 3.2523 23.4972 3.31117C23.7817 3.31796 24.0067 3.55172 23.9998 3.83303C23.993 4.10981 23.7634 4.33 23.4852 4.33C23.4806 4.33 23.4766 4.32999 23.472 4.32943C17.962 4.19528 8.8561 4.12737 7.88625 4.51791C7.27423 4.76469 6.86831 5.32391 6.43835 5.91596C5.76392 6.84422 4.92403 8 3.05417 8ZM1.03203 6.98062H3.05417C4.39502 6.98062 4.95437 6.21197 5.60132 5.32107C5.81487 5.02731 6.03071 4.72959 6.27919 4.45734C6.1498 4.36281 6.06735 4.20943 6.07021 4.03906C6.07078 2.35631 4.71792 1.0194 3.05532 1.0194H1.05035C1.05379 1.62164 1.16714 2.52611 1.64291 3.04288C1.9286 3.35305 2.31219 3.49287 2.83605 3.4906C3.11486 3.45721 3.34845 3.70229 3.36047 3.97793C3.37249 4.25415 3.15894 4.48904 2.88013 4.50772C2.26868 4.54791 1.82326 4.75281 1.51753 5.1326C1.07268 5.68673 1.01715 6.49215 1.03203 6.98062Z" fill="white"/>
</svg>
