<svg width="22" height="22" viewBox="0 0 22 22" fill="none" xmlns="http://www.w3.org/2000/svg">
<path fill-rule="evenodd" clip-rule="evenodd" d="M8.83933 1.8335C9.71108 1.83441 10.5416 2.25058 11.0623 2.94633L11.8973 4.05733C12.1623 4.40933 12.583 4.61925 13.023 4.62016H15.6163C19.1564 4.62016 20.8055 6.43425 20.8055 10.3292L20.7798 14.8822C20.7789 18.5196 18.5184 20.7801 14.8793 20.7801H7.74575C4.09925 20.7801 1.83325 18.5187 1.83325 14.8795V7.73041C1.83325 3.81716 3.574 1.8335 7.006 1.8335H8.83933ZM8.83842 3.2085H7.006C4.344 3.2085 3.20825 4.5615 3.20825 7.73041V14.8795C3.20825 17.7982 4.81975 19.4051 7.74575 19.4051H14.8793C17.7979 19.4051 19.4048 17.7982 19.4048 14.8795V14.8767L19.4305 10.3255C19.4305 7.20975 18.3617 5.99516 15.6163 5.99516H13.0221C12.1522 5.99425 11.3217 5.579 10.7992 4.88416L9.96225 3.77133C9.69917 3.41841 9.27842 3.20941 8.83842 3.2085ZM15.3231 13.0286C15.7026 13.0286 16.0106 13.3366 16.0106 13.7161C16.0106 14.0956 15.7026 14.4036 15.3231 14.4036H7.31602C6.93652 14.4036 6.62852 14.0956 6.62852 13.7161C6.62852 13.3366 6.93652 13.0286 7.31602 13.0286H15.3231Z" fill="#56555C"/>
</svg>
