<svg width="24" height="7" viewBox="0 0 24 7" fill="none" xmlns="http://www.w3.org/2000/svg">
<path d="M23.6581 7H3.66627C1.6449 7 0 5.42998 0 3.50018C0 1.57039 1.6449 0 3.66627 0C5.68764 0 7.33217 1.57039 7.33217 3.50018C7.33217 3.68043 7.17907 3.82659 6.99027 3.82659C6.80146 3.82659 6.64837 3.68043 6.64837 3.50018C6.64837 1.93016 5.31079 0.652812 3.66627 0.652812C2.02175 0.652812 0.6838 1.93016 0.6838 3.50018C0.6838 5.06984 2.02175 6.34718 3.66627 6.34718H23.6581C23.8469 6.34718 24 6.49334 24 6.67359C24 6.85384 23.8473 7 23.6581 7Z" fill="white"/>
<path d="M19.7447 4.13817H4.09043C3.90163 4.13817 3.74854 3.99201 3.74854 3.81176C3.74854 3.63151 3.90163 3.48535 4.09043 3.48535H19.7447C19.9335 3.48535 20.0866 3.63151 20.0866 3.81176C20.0866 3.99201 19.9335 4.13817 19.7447 4.13817Z" fill="white"/>
</svg>
