<svg width="24" height="24" viewBox="0 0 24 24" fill="none" xmlns="http://www.w3.org/2000/svg">
<rect width="24" height="23.2" rx="11.6" fill="#3425FF"/>
<path d="M9.03378 5.65067L9.73398 5.43961C10.5275 5.20043 11.3753 5.58697 11.7151 6.34287L12.2561 7.5463C12.5457 8.1906 12.3931 8.9478 11.8765 9.42957L10.9799 10.2656C10.9537 10.2901 10.9371 10.3231 10.9331 10.3587C10.9065 10.597 11.068 11.061 11.4402 11.7056C11.7108 12.1744 11.9558 12.5031 12.1643 12.688C12.3095 12.8168 12.3895 12.8447 12.4235 12.8345L13.6297 12.4657C14.3051 12.2593 15.037 12.5055 15.4502 13.0782L16.2186 14.1432C16.7023 14.8135 16.6153 15.7383 16.0151 16.3067L15.4833 16.8103C14.9095 17.3538 14.0926 17.5563 13.3313 17.3438C11.6788 16.8826 10.1973 15.4881 8.87013 13.1894C7.54117 10.8876 7.07485 8.90494 7.50472 7.24187C7.70144 6.48078 8.28112 5.87754 9.03378 5.65067ZM9.29352 6.51238C8.84192 6.6485 8.49412 7.01044 8.37608 7.4671C8.01449 8.866 8.42781 10.6233 9.64956 12.7394C10.8697 14.8528 12.183 16.0889 13.5733 16.4769C14.03 16.6044 14.5202 16.4829 14.8645 16.1568L15.3963 15.6532C15.6691 15.3948 15.7086 14.9745 15.4888 14.6698L14.7203 13.6048C14.5325 13.3445 14.1998 13.2326 13.8929 13.3264L12.6837 13.6961C11.9818 13.9053 11.3448 13.3404 10.6608 12.1556C10.1998 11.3572 9.98493 10.74 10.0387 10.2588C10.0665 10.0095 10.1827 9.77848 10.3661 9.60743L11.2627 8.77136C11.4975 8.55237 11.5669 8.20819 11.4352 7.91532L10.8942 6.71189C10.7398 6.3683 10.3544 6.1926 9.99372 6.30132L9.29352 6.51238Z" fill="white"/>
</svg>
