<svg width="52" height="52" viewBox="0 0 52 52" fill="none" xmlns="http://www.w3.org/2000/svg">
<rect x="0.480048" y="0.480048" width="51.0399" height="51.0399" rx="25.52" fill="white"/>
<rect x="0.480048" y="0.480048" width="51.0399" height="51.0399" rx="25.52" fill="#E8E6FF"/>
<rect x="0.480048" y="0.480048" width="51.0399" height="51.0399" rx="25.52" stroke="#E6E4F0" stroke-width="0.960095"/>
<rect x="0.480048" y="0.480048" width="51.0399" height="51.0399" rx="25.52" stroke="#3425FF" stroke-width="0.960095"/>
<path d="M26.916 24.4813C28.9819 24.4813 30.6566 22.8066 30.6566 20.7407C30.6566 18.6748 28.9819 17 26.916 17C24.85 17 23.1753 18.6748 23.1753 20.7407C23.1753 22.8066 24.85 24.4813 26.916 24.4813Z" stroke="#3425FF" stroke-width="1.54589" stroke-linecap="round" stroke-linejoin="round"/>
<path d="M35.333 35.7021C35.333 31.0539 31.5648 27.2856 26.9165 27.2856C22.2683 27.2856 18.5 31.0539 18.5 35.7021" stroke="#3425FF" stroke-width="1.54589" stroke-linecap="round" stroke-linejoin="round"/>
<path d="M26.9167 35.7021L28.7871 33.3642L26.9167 27.2856L25.0464 33.3642L26.9167 35.7021Z" stroke="#3425FF" stroke-width="1.54589" stroke-linecap="round" stroke-linejoin="round"/>
</svg>
