<svg width="24" height="7" viewBox="0 0 24 7" fill="none" xmlns="http://www.w3.org/2000/svg">
<path d="M20.3337 7H0.3419C0.153094 7 0 6.85384 0 6.67359C0 6.49334 0.153094 6.34718 0.3419 6.34718H20.3337C21.9782 6.34718 23.3162 5.06984 23.3162 3.50018C23.3162 1.93016 21.9786 0.652812 20.3337 0.652812C18.6895 0.652812 17.3515 1.93016 17.3515 3.50018C17.3515 3.68043 17.1984 3.82659 17.0096 3.82659C16.8208 3.82659 16.6677 3.68043 16.6677 3.50018C16.6677 1.57039 18.3123 0 20.3337 0C22.3551 0 24 1.57039 24 3.50018C24 5.42998 22.3555 7 20.3337 7Z" fill="white"/>
<path d="M19.9096 4.13817H4.255C4.06619 4.13817 3.91309 3.99201 3.91309 3.81176C3.91309 3.63151 4.06619 3.48535 4.255 3.48535H19.9096C20.0984 3.48535 20.2514 3.63151 20.2514 3.81176C20.2514 3.99201 20.0984 4.13817 19.9096 4.13817Z" fill="white"/>
</svg>
