<svg width="16" height="16" viewBox="0 0 16 16" fill="none" xmlns="http://www.w3.org/2000/svg">
<path fill-rule="evenodd" clip-rule="evenodd" d="M9.33328 5.99984C9.15647 5.99984 8.9869 5.9296 8.86188 5.80457C8.73685 5.67955 8.66661 5.50998 8.66661 5.33317C8.66661 5.15636 8.73685 4.98679 8.86188 4.86177C8.9869 4.73674 9.15647 4.6665 9.33328 4.6665H12.6666C12.8434 4.6665 13.013 4.73674 13.138 4.86177C13.263 4.98679 13.3333 5.15636 13.3333 5.33317V8.6665C13.3333 8.84331 13.263 9.01288 13.138 9.13791C13.013 9.26293 12.8434 9.33317 12.6666 9.33317C12.4898 9.33317 12.3202 9.26293 12.1952 9.13791C12.0702 9.01288 11.9999 8.84331 11.9999 8.6665V6.9425L9.13795 9.8045C9.01293 9.92948 8.84339 9.99969 8.66661 9.99969C8.48984 9.99969 8.3203 9.92948 8.19528 9.8045L6.66661 8.27584L3.80461 11.1378C3.67888 11.2593 3.51048 11.3265 3.33568 11.325C3.16088 11.3234 2.99367 11.2533 2.87007 11.1297C2.74646 11.0061 2.67635 10.8389 2.67483 10.6641C2.67331 10.4893 2.74051 10.3209 2.86195 10.1952L6.19528 6.86184C6.3203 6.73686 6.48984 6.66665 6.66661 6.66665C6.84339 6.66665 7.01293 6.73686 7.13795 6.86184L8.66661 8.3905L11.0573 5.99984H9.33328Z" fill="white"/>
</svg>
