<svg width="26" height="24" viewBox="0 0 26 24" fill="none" xmlns="http://www.w3.org/2000/svg">
<rect x="0.5" y="0.5" width="24.5" height="22.5" rx="3.5" fill="white"/>
<rect x="0.5" y="0.5" width="24.5" height="22.5" rx="3.5" stroke="#CCCCCC"/>
<path d="M8.5 11.75C8.5 12.7165 7.7165 13.5 6.75 13.5C5.7835 13.5 5 12.7165 5 11.75C5 10.7835 5.7835 10 6.75 10C7.7165 10 8.5 10.7835 8.5 11.75ZM14.5 11.75C14.5 12.7165 13.7165 13.5 12.75 13.5C11.7835 13.5 11 12.7165 11 11.75C11 10.7835 11.7835 10 12.75 10C13.7165 10 14.5 10.7835 14.5 11.75ZM18.75 13.5C19.7165 13.5 20.5 12.7165 20.5 11.75C20.5 10.7835 19.7165 10 18.75 10C17.7835 10 17 10.7835 17 11.75C17 12.7165 17.7835 13.5 18.75 13.5Z" fill="#616161"/>
</svg>
