<svg width="119" height="118" viewBox="0 0 119 118" fill="none" xmlns="http://www.w3.org/2000/svg">
<g clip-path="url(#clip0_452_916)">
<rect width="42.457" height="172.056" transform="translate(121.662) rotate(45)" fill="white" fill-opacity="0.1"/>
<path d="M62.6523 85.0931L60.6473 87.0982L62.0421 88.493L63.8847 86.6504L64.9229 87.6886L63.0803 89.5312L65.2874 91.7384L64.0075 93.0183L58.3252 87.3359L61.6102 84.0509L62.6523 85.0931Z" fill="black"/>
<path d="M62.6523 85.0931L60.6473 87.0982L62.0421 88.493L63.8847 86.6504L64.9229 87.6886L63.0803 89.5312L65.2874 91.7384L64.0075 93.0183L58.3252 87.3359L61.6102 84.0509L62.6523 85.0931Z" fill="url(#paint0_linear_452_916)"/>
<path d="M71.9644 85.0614L70.7162 86.3096L70.098 85.6914L70.0782 85.7113C70.2473 86.4985 70.0729 87.151 69.5552 87.6688C68.6147 88.6092 67.5752 88.5102 66.4366 87.3716L63.9877 84.9227L65.2359 83.6745L67.5739 86.0124C68.1471 86.5857 68.6609 86.6451 69.1153 86.1907C69.3399 85.9662 69.4416 85.7086 69.4204 85.418C69.3966 85.1248 69.25 84.8434 68.9806 84.574L66.6585 82.2519L67.9067 81.0037L71.9644 85.0614Z" fill="black"/>
<path d="M71.9644 85.0614L70.7162 86.3096L70.098 85.6914L70.0782 85.7113C70.2473 86.4985 70.0729 87.151 69.5552 87.6688C68.6147 88.6092 67.5752 88.5102 66.4366 87.3716L63.9877 84.9227L65.2359 83.6745L67.5739 86.0124C68.1471 86.5857 68.6609 86.6451 69.1153 86.1907C69.3399 85.9662 69.4416 85.7086 69.4204 85.418C69.3966 85.1248 69.25 84.8434 68.9806 84.574L66.6585 82.2519L67.9067 81.0037L71.9644 85.0614Z" fill="url(#paint1_linear_452_916)"/>
<path d="M74.2746 82.7512L73.0224 84.0034L67.0151 77.9961L68.2673 76.7439L74.2746 82.7512Z" fill="black"/>
<path d="M74.2746 82.7512L73.0224 84.0034L67.0151 77.9961L68.2673 76.7439L74.2746 82.7512Z" fill="url(#paint2_linear_452_916)"/>
<path d="M76.5808 80.445L75.3286 81.6972L69.3214 75.6899L70.5735 74.4377L76.5808 80.445Z" fill="black"/>
<path d="M76.5808 80.445L75.3286 81.6972L69.3214 75.6899L70.5735 74.4377L76.5808 80.445Z" fill="url(#paint3_linear_452_916)"/>
<path d="M79.3507 68.3947L77.73 70.0154L82.3702 74.6556L81.0863 75.9395L76.4461 71.2993L74.8333 72.9121L73.7912 71.8699L78.3085 67.3526L79.3507 68.3947Z" fill="black"/>
<path d="M79.3507 68.3947L77.73 70.0154L82.3702 74.6556L81.0863 75.9395L76.4461 71.2993L74.8333 72.9121L73.7912 71.8699L78.3085 67.3526L79.3507 68.3947Z" fill="url(#paint4_linear_452_916)"/>
<path d="M80.5672 67.0594C80.3558 67.2707 80.1207 67.3816 79.8618 67.3922C79.6003 67.4001 79.3784 67.313 79.1961 67.1307C79.0086 66.9431 78.9227 66.7225 78.9386 66.4689C78.9544 66.2153 79.068 65.9828 79.2793 65.7715C79.4933 65.5575 79.7258 65.4439 79.9768 65.4307C80.2304 65.4149 80.4509 65.5007 80.6385 65.6883C80.8287 65.8785 80.9172 66.1017 80.904 66.358C80.8934 66.6116 80.7812 66.8454 80.5672 67.0594ZM85.885 71.1408L84.6328 72.393L80.5751 68.3353L81.8273 67.0831L85.885 71.1408Z" fill="black"/>
<path d="M80.5672 67.0594C80.3558 67.2707 80.1207 67.3816 79.8618 67.3922C79.6003 67.4001 79.3784 67.313 79.1961 67.1307C79.0086 66.9431 78.9227 66.7225 78.9386 66.4689C78.9544 66.2153 79.068 65.9828 79.2793 65.7715C79.4933 65.5575 79.7258 65.4439 79.9768 65.4307C80.2304 65.4149 80.4509 65.5007 80.6385 65.6883C80.8287 65.8785 80.9172 66.1017 80.904 66.358C80.8934 66.6116 80.7812 66.8454 80.5672 67.0594ZM85.885 71.1408L84.6328 72.393L80.5751 68.3353L81.8273 67.0831L85.885 71.1408Z" fill="url(#paint5_linear_452_916)"/>
<path d="M93.3822 63.6436L92.134 64.8918L89.8198 62.5777C89.2307 61.9886 88.7195 61.9106 88.2863 62.3439C88.0803 62.5499 88.001 62.8062 88.0486 63.1126C88.0961 63.4191 88.252 63.7044 88.5161 63.9685L90.7867 66.2391L89.5345 67.4913L87.1966 65.1533C86.6233 64.5801 86.1241 64.5061 85.6987 64.9314C85.4848 65.1454 85.3976 65.4017 85.4372 65.7002C85.4795 65.9961 85.6459 66.2893 85.9365 66.5799L88.1912 68.8346L86.939 70.0868L82.8813 66.0291L84.1335 64.7769L84.7675 65.4109L84.7834 65.3951C84.6962 65.049 84.7015 64.6924 84.7992 64.3252C84.897 63.9527 85.0845 63.6277 85.3619 63.3504C85.9352 62.7771 86.5798 62.6371 87.2957 62.9303C87.1002 62.1167 87.3023 61.41 87.9019 60.8103C88.7843 59.928 89.7696 60.031 90.858 61.1194L93.3822 63.6436Z" fill="black"/>
<path d="M93.3822 63.6436L92.134 64.8918L89.8198 62.5777C89.2307 61.9886 88.7195 61.9106 88.2863 62.3439C88.0803 62.5499 88.001 62.8062 88.0486 63.1126C88.0961 63.4191 88.252 63.7044 88.5161 63.9685L90.7867 66.2391L89.5345 67.4913L87.1966 65.1533C86.6233 64.5801 86.1241 64.5061 85.6987 64.9314C85.4848 65.1454 85.3976 65.4017 85.4372 65.7002C85.4795 65.9961 85.6459 66.2893 85.9365 66.5799L88.1912 68.8346L86.939 70.0868L82.8813 66.0291L84.1335 64.7769L84.7675 65.4109L84.7834 65.3951C84.6962 65.049 84.7015 64.6924 84.7992 64.3252C84.897 63.9527 85.0845 63.6277 85.3619 63.3504C85.9352 62.7771 86.5798 62.6371 87.2957 62.9303C87.1002 62.1167 87.3023 61.41 87.9019 60.8103C88.7843 59.928 89.7696 60.031 90.858 61.1194L93.3822 63.6436Z" fill="url(#paint6_linear_452_916)"/>
<path d="M96.3462 57.3352L93.6992 59.9822C94.3306 60.529 94.9963 60.4524 95.6963 59.7523C96.1428 59.3059 96.4294 58.8079 96.5562 58.2584L97.4597 59.1619C97.2853 59.7378 96.8983 60.3256 96.2987 60.9253C95.6435 61.5804 94.954 61.908 94.2302 61.908C93.5037 61.9053 92.8155 61.5791 92.1657 60.9292C91.492 60.2556 91.1539 59.5265 91.1513 58.7419C91.1486 57.9573 91.4326 57.2797 92.0032 56.7091C92.595 56.1173 93.2277 55.836 93.9013 55.865C94.5776 55.8915 95.2169 56.2058 95.8192 56.8081L96.3462 57.3352ZM94.4164 57.7275C93.8353 57.1463 93.3095 57.0908 92.8393 57.561C92.6385 57.7618 92.5474 58.0194 92.5659 58.3337C92.587 58.6455 92.7059 58.9413 92.9225 59.2213L94.4164 57.7275Z" fill="black"/>
<path d="M96.3462 57.3352L93.6992 59.9822C94.3306 60.529 94.9963 60.4524 95.6963 59.7523C96.1428 59.3059 96.4294 58.8079 96.5562 58.2584L97.4597 59.1619C97.2853 59.7378 96.8983 60.3256 96.2987 60.9253C95.6435 61.5804 94.954 61.908 94.2302 61.908C93.5037 61.9053 92.8155 61.5791 92.1657 60.9292C91.492 60.2556 91.1539 59.5265 91.1513 58.7419C91.1486 57.9573 91.4326 57.2797 92.0032 56.7091C92.595 56.1173 93.2277 55.836 93.9013 55.865C94.5776 55.8915 95.2169 56.2058 95.8192 56.8081L96.3462 57.3352ZM94.4164 57.7275C93.8353 57.1463 93.3095 57.0908 92.8393 57.561C92.6385 57.7618 92.5474 58.0194 92.5659 58.3337C92.587 58.6455 92.7059 58.9413 92.9225 59.2213L94.4164 57.7275Z" fill="url(#paint7_linear_452_916)"/>
<g filter="url(#filter1_i_452_916)">
<rect x="137.664" y="-16" width="3.00001" height="206" transform="rotate(45 137.664 -16)" fill="url(#paint8_linear_452_916)"/>
</g>
<g filter="url(#filter2_i_452_916)">
<rect x="132.472" y="-4.00024" width="1.00001" height="193" transform="rotate(45 132.472 -4.00024)" fill="url(#paint9_linear_452_916)"/>
</g>
<g filter="url(#filter3_i_452_916)">
<rect width="3.00001" height="206" transform="matrix(-0.707107 -0.707107 -0.707107 0.707107 168.785 13.1211)" fill="url(#paint10_linear_452_916)"/>
</g>
<g filter="url(#filter4_i_452_916)">
<rect width="1.00001" height="193" transform="matrix(-0.707107 -0.707107 -0.707107 0.707107 153.179 21.7073)" fill="url(#paint11_linear_452_916)"/>
</g>
<path fill-rule="evenodd" clip-rule="evenodd" d="M103.213 48.1557C103.213 48.1547 103.213 48.1535 103.214 48.1525C103.219 48.0163 103.23 47.8248 103.251 47.6031C103.292 47.1626 103.375 46.5905 103.542 46.093C103.704 45.6129 103.97 45.1224 104.432 44.967C104.865 44.8215 105.36 45.0006 105.92 45.5029L114.008 37.4152C113.852 37.1267 113.895 36.7584 114.14 36.5134C114.437 36.216 114.921 36.216 115.218 36.5134C115.515 36.8107 115.515 37.2944 115.218 37.5917C114.973 37.8368 114.605 37.8797 114.316 37.7233L106.232 45.8076C106.783 46.3971 106.983 46.9154 106.831 47.3662C106.676 47.8281 106.185 48.0948 105.705 48.2563C105.208 48.4237 104.636 48.5066 104.196 48.5482C103.974 48.5691 103.783 48.58 103.646 48.5855C103.645 48.5855 103.644 48.5855 103.643 48.5855L103.643 53.2499L98.7655 53.2514L98.5473 53.2517L98.5476 53.0335L98.5491 48.1557L103.213 48.1557ZM98.9832 52.8156L103.207 52.814L103.208 48.5914L98.9845 48.5914L98.9832 52.8156ZM104.155 48.1143C104.582 48.0739 105.116 47.9949 105.566 47.8432C106.034 47.6858 106.335 47.4761 106.418 47.227C106.49 47.0132 106.432 46.6626 105.924 46.1159L103.905 48.1348C103.982 48.1295 104.066 48.1227 104.155 48.1143ZM104.571 45.3799C104.322 45.4637 104.112 45.764 103.955 46.2319C103.803 46.6825 103.725 47.2162 103.684 47.6441C103.681 47.6795 103.678 47.7142 103.675 47.7479L105.612 45.8113C105.105 45.3619 104.776 45.3112 104.571 45.3799Z" fill="url(#paint12_linear_452_916)"/>
<path fill-rule="evenodd" clip-rule="evenodd" d="M52.5857 99.6431C52.5857 99.6441 52.5856 99.6453 52.5856 99.6463C52.5801 99.7826 52.5694 99.9741 52.5486 100.196C52.507 100.636 52.4243 101.208 52.257 101.706C52.0955 102.186 51.8289 102.676 51.3669 102.832C50.9341 102.977 50.4393 102.798 49.8787 102.296L41.7911 110.384C41.9475 110.672 41.9045 111.04 41.6595 111.285C41.3622 111.583 40.8784 111.583 40.5811 111.285C40.2838 110.988 40.2838 110.504 40.5811 110.207C40.8262 109.962 41.1944 109.919 41.483 110.075L49.5673 101.991C49.0162 101.402 48.816 100.883 48.9677 100.433C49.1231 99.9708 49.6136 99.7041 50.0937 99.5425C50.5911 99.3751 51.1631 99.2923 51.6035 99.2506C51.8251 99.2297 52.0164 99.2189 52.1526 99.2133C52.1537 99.2133 52.1549 99.2134 52.1559 99.2133L52.1558 94.549L57.0336 94.5475L57.2517 94.5472L57.2514 94.7653L57.2499 99.6431L52.5857 99.6431ZM56.8159 94.9833L52.5916 94.9848L52.5914 99.2075L56.8146 99.2075L56.8159 94.9833ZM51.6444 99.6845C51.2166 99.7249 50.6833 99.8039 50.2327 99.9556C49.7649 100.113 49.4644 100.323 49.3806 100.572C49.3088 100.786 49.3672 101.136 49.8756 101.683L51.8945 99.664C51.8174 99.6694 51.7334 99.6761 51.6444 99.6845ZM51.228 102.419C51.477 102.335 51.6867 102.035 51.8441 101.567C51.9956 101.116 52.0744 100.583 52.1147 100.155C52.118 100.119 52.1209 100.085 52.1237 100.051L50.1871 101.988C50.6939 102.437 51.0235 102.488 51.228 102.419Z" fill="url(#paint13_linear_452_916)"/>
</g>
<defs>
<filter id="filter1_i_452_916" x="-7.99976" y="-16" width="147.785" height="148.45" filterUnits="userSpaceOnUse" color-interpolation-filters="sRGB">
<feFlood flood-opacity="0" result="BackgroundImageFix"/>
<feBlend mode="normal" in="SourceGraphic" in2="BackgroundImageFix" result="shape"/>
<feColorMatrix in="SourceAlpha" type="matrix" values="0 0 0 0 0 0 0 0 0 0 0 0 0 0 0 0 0 0 127 0" result="hardAlpha"/>
<feOffset dy="1.32895"/>
<feGaussianBlur stdDeviation="0.332237"/>
<feComposite in2="hardAlpha" operator="arithmetic" k2="-1" k3="1"/>
<feColorMatrix type="matrix" values="0 0 0 0 0 0 0 0 0 0 0 0 0 0 0 0 0 0 0.35 0"/>
<feBlend mode="normal" in2="shape" result="effect1_innerShadow_452_916"/>
</filter>
<filter id="filter2_i_452_916" x="-3.99976" y="-4.00024" width="137.179" height="137.843" filterUnits="userSpaceOnUse" color-interpolation-filters="sRGB">
<feFlood flood-opacity="0" result="BackgroundImageFix"/>
<feBlend mode="normal" in="SourceGraphic" in2="BackgroundImageFix" result="shape"/>
<feColorMatrix in="SourceAlpha" type="matrix" values="0 0 0 0 0 0 0 0 0 0 0 0 0 0 0 0 0 0 127 0" result="hardAlpha"/>
<feOffset dy="1.32895"/>
<feGaussianBlur stdDeviation="0.332237"/>
<feComposite in2="hardAlpha" operator="arithmetic" k2="-1" k3="1"/>
<feColorMatrix type="matrix" values="0 0 0 0 0 0 0 0 0 0 0 0 0 0 0 0 0 0 0.35 0"/>
<feBlend mode="normal" in2="shape" result="effect1_innerShadow_452_916"/>
</filter>
<filter id="filter3_i_452_916" x="21" y="10.9998" width="147.785" height="148.45" filterUnits="userSpaceOnUse" color-interpolation-filters="sRGB">
<feFlood flood-opacity="0" result="BackgroundImageFix"/>
<feBlend mode="normal" in="SourceGraphic" in2="BackgroundImageFix" result="shape"/>
<feColorMatrix in="SourceAlpha" type="matrix" values="0 0 0 0 0 0 0 0 0 0 0 0 0 0 0 0 0 0 127 0" result="hardAlpha"/>
<feOffset dy="1.32895"/>
<feGaussianBlur stdDeviation="0.332237"/>
<feComposite in2="hardAlpha" operator="arithmetic" k2="-1" k3="1"/>
<feColorMatrix type="matrix" values="0 0 0 0 0 0 0 0 0 0 0 0 0 0 0 0 0 0 0.35 0"/>
<feBlend mode="normal" in2="shape" result="effect1_innerShadow_452_916"/>
</filter>
<filter id="filter4_i_452_916" x="16.0002" y="21.0002" width="137.179" height="137.843" filterUnits="userSpaceOnUse" color-interpolation-filters="sRGB">
<feFlood flood-opacity="0" result="BackgroundImageFix"/>
<feBlend mode="normal" in="SourceGraphic" in2="BackgroundImageFix" result="shape"/>
<feColorMatrix in="SourceAlpha" type="matrix" values="0 0 0 0 0 0 0 0 0 0 0 0 0 0 0 0 0 0 127 0" result="hardAlpha"/>
<feOffset dy="1.32895"/>
<feGaussianBlur stdDeviation="0.332237"/>
<feComposite in2="hardAlpha" operator="arithmetic" k2="-1" k3="1"/>
<feColorMatrix type="matrix" values="0 0 0 0 0 0 0 0 0 0 0 0 0 0 0 0 0 0 0.35 0"/>
<feBlend mode="normal" in2="shape" result="effect1_innerShadow_452_916"/>
</filter>
<linearGradient id="paint0_linear_452_916" x1="65.365" y1="95.776" x2="51.5511" y2="69.9786" gradientUnits="userSpaceOnUse">
<stop stop-color="#1731DD"/>
<stop offset="1" stop-color="#D50E78"/>
</linearGradient>
<linearGradient id="paint1_linear_452_916" x1="65.365" y1="95.776" x2="51.5511" y2="69.9786" gradientUnits="userSpaceOnUse">
<stop stop-color="#1731DD"/>
<stop offset="1" stop-color="#D50E78"/>
</linearGradient>
<linearGradient id="paint2_linear_452_916" x1="65.365" y1="95.776" x2="51.5511" y2="69.9786" gradientUnits="userSpaceOnUse">
<stop stop-color="#1731DD"/>
<stop offset="1" stop-color="#D50E78"/>
</linearGradient>
<linearGradient id="paint3_linear_452_916" x1="65.365" y1="95.776" x2="51.5511" y2="69.9786" gradientUnits="userSpaceOnUse">
<stop stop-color="#1731DD"/>
<stop offset="1" stop-color="#D50E78"/>
</linearGradient>
<linearGradient id="paint4_linear_452_916" x1="65.365" y1="95.776" x2="51.5511" y2="69.9786" gradientUnits="userSpaceOnUse">
<stop stop-color="#1731DD"/>
<stop offset="1" stop-color="#D50E78"/>
</linearGradient>
<linearGradient id="paint5_linear_452_916" x1="65.365" y1="95.776" x2="51.5511" y2="69.9786" gradientUnits="userSpaceOnUse">
<stop stop-color="#1731DD"/>
<stop offset="1" stop-color="#D50E78"/>
</linearGradient>
<linearGradient id="paint6_linear_452_916" x1="65.365" y1="95.776" x2="51.5511" y2="69.9786" gradientUnits="userSpaceOnUse">
<stop stop-color="#1731DD"/>
<stop offset="1" stop-color="#D50E78"/>
</linearGradient>
<linearGradient id="paint7_linear_452_916" x1="65.365" y1="95.776" x2="51.5511" y2="69.9786" gradientUnits="userSpaceOnUse">
<stop stop-color="#1731DD"/>
<stop offset="1" stop-color="#D50E78"/>
</linearGradient>
<linearGradient id="paint8_linear_452_916" x1="137.664" y1="190" x2="143.792" y2="189.909" gradientUnits="userSpaceOnUse">
<stop stop-color="#1731DD"/>
<stop offset="1" stop-color="#D50E78"/>
</linearGradient>
<linearGradient id="paint9_linear_452_916" x1="132.472" y1="189" x2="134.515" y2="188.989" gradientUnits="userSpaceOnUse">
<stop stop-color="#1731DD"/>
<stop offset="1" stop-color="#D50E78"/>
</linearGradient>
<linearGradient id="paint10_linear_452_916" x1="-1.61769e-07" y1="206" x2="6.12733" y2="205.909" gradientUnits="userSpaceOnUse">
<stop stop-color="#1731DD"/>
<stop offset="1" stop-color="#D50E78"/>
</linearGradient>
<linearGradient id="paint11_linear_452_916" x1="-5.39232e-08" y1="193" x2="2.04285" y2="192.989" gradientUnits="userSpaceOnUse">
<stop stop-color="#1731DD"/>
<stop offset="1" stop-color="#D50E78"/>
</linearGradient>
<linearGradient id="paint12_linear_452_916" x1="95.9879" y1="50.8292" x2="117.863" y2="39.1214" gradientUnits="userSpaceOnUse">
<stop stop-color="#1731DD"/>
<stop offset="1" stop-color="#D50E78"/>
</linearGradient>
<linearGradient id="paint13_linear_452_916" x1="59.8112" y1="96.9697" x2="37.9361" y2="108.677" gradientUnits="userSpaceOnUse">
<stop stop-color="#1731DD"/>
<stop offset="1" stop-color="#D50E78"/>
</linearGradient>
<clipPath id="clip0_452_916">
<rect width="42.457" height="172.056" fill="white" transform="translate(121.662) rotate(45)"/>
</clipPath>
</defs>
</svg>
