<svg width="15" height="15" viewBox="0 0 15 15" fill="none" xmlns="http://www.w3.org/2000/svg">
<path d="M13 1.5V6H11.5V4.06875L8.51875 7.03125C8.75625 7.38125 8.9375 7.75325 9.0625 8.14725C9.1875 8.54125 9.25 8.9505 9.25 9.375C9.25 10.525 8.85 11.5 8.05 12.3C7.25 13.1 6.275 13.5 5.125 13.5C3.975 13.5 3 13.1 2.2 12.3C1.4 11.5 1 10.525 1 9.375C1 8.225 1.4 7.25 2.2 6.45C3 5.65 3.975 5.25 5.125 5.25C5.5375 5.25 5.94375 5.30925 6.34375 5.42775C6.74375 5.54625 7.1125 5.73075 7.45 5.98125L10.4313 3H8.5V1.5H13ZM5.125 6.75C4.4 6.75 3.78125 7.00625 3.26875 7.51875C2.75625 8.03125 2.5 8.65 2.5 9.375C2.5 10.1 2.75625 10.7188 3.26875 11.2313C3.78125 11.7438 4.4 12 5.125 12C5.85 12 6.46875 11.7438 6.98125 11.2313C7.49375 10.7188 7.75 10.1 7.75 9.375C7.75 8.65 7.49375 8.03125 6.98125 7.51875C6.46875 7.00625 5.85 6.75 5.125 6.75Z" fill="#BD7D05"/>
</svg>
