<svg width="24" height="24" viewBox="0 0 24 24" fill="none" xmlns="http://www.w3.org/2000/svg">
<rect width="24" height="23.2" rx="11.6" fill="#3425FF"/>
<path d="M8.04536 4.33436L8.97896 4.05295C10.037 3.73404 11.1674 4.24943 11.6204 5.25729L12.3418 6.86187C12.728 7.72093 12.5245 8.73054 11.8356 9.3729L10.6402 10.4877C10.6052 10.5202 10.5831 10.5643 10.5778 10.6117C10.5423 10.9294 10.7577 11.5482 11.2539 12.4076C11.6148 13.0326 11.9414 13.4709 12.2193 13.7174C12.413 13.8892 12.5196 13.9263 12.565 13.9128L14.1733 13.4211C15.0738 13.1458 16.0496 13.4741 16.6006 14.2377L17.6252 15.6577C18.2701 16.5515 18.1541 17.7845 17.3539 18.5423L16.6448 19.2139C15.8796 19.9385 14.7904 20.2085 13.7754 19.9252C11.5721 19.3102 9.59667 17.4509 7.82717 14.3861C6.05521 11.3169 5.43346 8.67339 6.00662 6.45595C6.26892 5.44117 7.04182 4.63685 8.04536 4.33436ZM8.39168 5.4833C7.78956 5.6648 7.32582 6.14738 7.16844 6.75626C6.68632 8.62147 7.2374 10.9646 8.8664 13.7861C10.4932 16.6038 12.2444 18.252 14.098 18.7694C14.707 18.9394 15.3605 18.7774 15.8196 18.3426L16.5287 17.6711C16.8925 17.3266 16.9452 16.7661 16.652 16.3599L15.6274 14.9399C15.377 14.5928 14.9334 14.4436 14.5241 14.5687L12.9119 15.0616C11.9761 15.3405 11.1268 14.5874 10.2147 13.0076C9.60004 11.943 9.31356 11.1201 9.38522 10.4785C9.42234 10.1462 9.5772 9.8381 9.82177 9.61003L11.0172 8.49527C11.3303 8.20329 11.4228 7.74438 11.2473 7.35389L10.526 5.74932C10.32 5.2912 9.80619 5.05693 9.32528 5.20189L8.39168 5.4833Z" fill="white"/>
</svg>
