<svg width="26" height="26" viewBox="0 0 26 26" fill="none" xmlns="http://www.w3.org/2000/svg">
<g clip-path="url(#clip0_140_348)">
<path d="M19.3413 0.366399L19.7937 1.7587C19.9341 2.18232 20.1717 2.5672 20.4876 2.88256C20.8034 3.19791 21.1886 3.43498 21.6124 3.5748L23.0047 4.0272L23.032 4.035C23.1394 4.0728 23.2324 4.143 23.2982 4.23591C23.364 4.32882 23.3993 4.43986 23.3993 4.5537C23.3993 4.66754 23.364 4.77858 23.2982 4.87149C23.2324 4.9644 23.1394 5.0346 23.032 5.0724L21.6397 5.5248C21.2159 5.66462 20.8307 5.90169 20.5149 6.21704C20.199 6.53239 19.9614 6.91727 19.821 7.3409L19.3686 8.7319C19.3308 8.83928 19.2606 8.93229 19.1677 8.99808C19.0748 9.06387 18.9637 9.09921 18.8499 9.09921C18.7361 9.09921 18.625 9.06387 18.5321 8.99808C18.4392 8.93229 18.369 8.83928 18.3312 8.7319L17.8775 7.3409C17.7382 6.91633 17.5013 6.53031 17.1859 6.2138C16.8703 5.89667 16.4847 5.65801 16.0601 5.517L14.6678 5.0646C14.5604 5.0268 14.4674 4.9566 14.4016 4.86369C14.3358 4.77078 14.3005 4.65974 14.3005 4.5459C14.3005 4.43205 14.3358 4.32102 14.4016 4.22811C14.4674 4.1352 14.5604 4.065 14.6678 4.0272L16.0601 3.5748C16.4786 3.43119 16.8581 3.19243 17.1688 2.8773C17.4794 2.56217 17.7126 2.17926 17.8502 1.7587L18.3026 0.367699C18.3401 0.259862 18.4103 0.166381 18.5034 0.100229C18.5964 0.0340774 18.7078 -0.00146484 18.822 -0.00146484C18.9361 -0.00146484 19.0475 0.0340774 19.1405 0.100229C19.2336 0.166381 19.3038 0.258562 19.3413 0.366399ZM25.7178 10.678L24.722 10.3556C24.4198 10.2546 24.1453 10.0847 23.9201 9.85925C23.695 9.63385 23.5253 9.35916 23.4246 9.0569L23.0996 8.0637C23.0727 7.98691 23.0226 7.92038 22.9562 7.87331C22.8898 7.82625 22.8105 7.80096 22.7291 7.80096C22.6477 7.80096 22.5684 7.82625 22.502 7.87331C22.4356 7.92038 22.3855 7.98691 22.3586 8.0637L22.0362 9.0569C21.9373 9.35723 21.7704 9.63067 21.5486 9.85593C21.3267 10.0812 21.0558 10.2522 20.757 10.3556L19.7625 10.678C19.6863 10.7055 19.6204 10.7558 19.5739 10.8221C19.5273 10.8884 19.5023 10.9675 19.5023 11.0485C19.5023 11.1295 19.5273 11.2086 19.5739 11.2749C19.6204 11.3412 19.6863 11.3915 19.7625 11.419L20.757 11.7427C21.0601 11.8438 21.3354 12.0141 21.561 12.2403C21.7867 12.4664 21.9565 12.742 22.057 13.0453L22.3794 14.0385C22.4063 14.1153 22.4564 14.1818 22.5228 14.2289C22.5892 14.276 22.6685 14.3012 22.7499 14.3012C22.8313 14.3012 22.9106 14.276 22.977 14.2289C23.0434 14.1818 23.0935 14.1153 23.1204 14.0385L23.4441 13.0453C23.545 12.7429 23.7148 12.4681 23.9402 12.2427C24.1656 12.0173 24.4404 11.8474 24.7428 11.7466L25.7373 11.4242C25.8135 11.3967 25.8794 11.3464 25.9259 11.2801C25.9725 11.2138 25.9975 11.1347 25.9975 11.0537C25.9975 10.9727 25.9725 10.8936 25.9259 10.8273C25.8794 10.761 25.8135 10.7107 25.7373 10.6832L25.7178 10.678ZM7.7999 3.8998H13.1364C13.0541 4.10707 13.0079 4.32692 12.9999 4.5498C13.0025 4.7734 13.0454 4.9944 13.126 5.1998H7.7999C7.11034 5.1998 6.44902 5.47373 5.96142 5.96132C5.47383 6.44892 5.1999 7.11024 5.1999 7.7998V18.1998C5.1999 18.8894 5.47383 19.5507 5.96142 20.0383C6.44902 20.5259 7.11034 20.7998 7.7999 20.7998H18.1999C18.8895 20.7998 19.5508 20.5259 20.0384 20.0383C20.526 19.5507 20.7999 18.8894 20.7999 18.1998V13.3859L20.8259 13.4548L21.1379 14.4428C21.2187 14.6711 21.3459 14.8802 21.5115 15.0569C21.677 15.2337 21.8774 15.3743 22.0999 15.4698V18.1998C22.0999 19.2341 21.689 20.2261 20.9576 20.9575C20.2262 21.6889 19.2342 22.0998 18.1999 22.0998H7.7999C6.76556 22.0998 5.77358 21.6889 5.04219 20.9575C4.31079 20.2261 3.8999 19.2341 3.8999 18.1998V7.7998C3.8999 6.76546 4.31079 5.77347 5.04219 5.04208C5.77358 4.31069 6.76556 3.8998 7.7999 3.8998ZM7.1499 6.4998H14.9356L15.7299 6.7598C15.9242 6.81757 16.1022 6.91996 16.2499 7.0588L16.3279 7.1368C16.4735 7.2759 16.5879 7.4449 16.6659 7.6308V7.7478L16.6828 7.7998H7.1499C6.97751 7.7998 6.81218 7.73132 6.69028 7.60942C6.56838 7.48752 6.4999 7.32219 6.4999 7.1498C6.4999 6.97741 6.56838 6.81208 6.69028 6.69018C6.81218 6.56828 6.97751 6.4998 7.1499 6.4998ZM12.3499 11.6998H18.3286C18.3763 11.8151 18.4374 11.9234 18.5119 12.0248C18.7134 12.3121 19.0007 12.5305 19.3309 12.6488L19.4128 12.6748C19.3558 12.7736 19.2737 12.8557 19.1749 12.9127C19.0761 12.9698 18.964 12.9998 18.8499 12.9998H12.3499C12.1775 12.9998 12.0122 12.9313 11.8903 12.8094C11.7684 12.6875 11.6999 12.5222 11.6999 12.3498C11.6999 12.1774 11.7684 12.0121 11.8903 11.8902C12.0122 11.7683 12.1775 11.6998 12.3499 11.6998ZM8.4499 14.2998C8.96707 14.2998 9.46306 14.0944 9.82876 13.7287C10.1945 13.363 10.3999 12.867 10.3999 12.3498C10.3999 11.8326 10.1945 11.3366 9.82876 10.9709C9.46306 10.6052 8.96707 10.3998 8.4499 10.3998C7.93273 10.3998 7.43674 10.6052 7.07104 10.9709C6.70535 11.3366 6.4999 11.8326 6.4999 12.3498C6.4999 12.867 6.70535 13.363 7.07104 13.7287C7.43674 14.0944 7.93273 14.2998 8.4499 14.2998ZM8.4499 12.9998C8.27751 12.9998 8.11218 12.9313 7.99028 12.8094C7.86838 12.6875 7.7999 12.5222 7.7999 12.3498C7.7999 12.1774 7.86838 12.0121 7.99028 11.8902C8.11218 11.7683 8.27751 11.6998 8.4499 11.6998C8.62229 11.6998 8.78762 11.7683 8.90952 11.8902C9.03142 12.0121 9.0999 12.1774 9.0999 12.3498C9.0999 12.5222 9.03142 12.6875 8.90952 12.8094C8.78762 12.9313 8.62229 12.9998 8.4499 12.9998ZM10.3999 17.5498C10.3999 18.067 10.1945 18.563 9.82876 18.9287C9.46306 19.2944 8.96707 19.4998 8.4499 19.4998C7.93273 19.4998 7.43674 19.2944 7.07104 18.9287C6.70535 18.563 6.4999 18.067 6.4999 17.5498C6.4999 17.0326 6.70535 16.5366 7.07104 16.1709C7.43674 15.8052 7.93273 15.5998 8.4499 15.5998C8.96707 15.5998 9.46306 15.8052 9.82876 16.1709C10.1945 16.5366 10.3999 17.0326 10.3999 17.5498ZM9.0999 17.5498C9.0999 17.3774 9.03142 17.2121 8.90952 17.0902C8.78762 16.9683 8.62229 16.8998 8.4499 16.8998C8.27751 16.8998 8.11218 16.9683 7.99028 17.0902C7.86838 17.2121 7.7999 17.3774 7.7999 17.5498C7.7999 17.7222 7.86838 17.8875 7.99028 18.0094C8.11218 18.1313 8.27751 18.1998 8.4499 18.1998C8.62229 18.1998 8.78762 18.1313 8.90952 18.0094C9.03142 17.8875 9.0999 17.7222 9.0999 17.5498ZM12.3499 16.8998C12.1775 16.8998 12.0122 16.9683 11.8903 17.0902C11.7684 17.2121 11.6999 17.3774 11.6999 17.5498C11.6999 17.7222 11.7684 17.8875 11.8903 18.0094C12.0122 18.1313 12.1775 18.1998 12.3499 18.1998H18.8499C19.0223 18.1998 19.1876 18.1313 19.3095 18.0094C19.4314 17.8875 19.4999 17.7222 19.4999 17.5498C19.4999 17.3774 19.4314 17.2121 19.3095 17.0902C19.1876 16.9683 19.0223 16.8998 18.8499 16.8998H12.3499Z" fill="#041A6A"/>
</g>
<defs>
<clipPath id="clip0_140_348">
<rect width="26" height="26" fill="white"/>
</clipPath>
</defs>
</svg>
