<svg width="22" height="22" viewBox="0 0 22 22" fill="none" xmlns="http://www.w3.org/2000/svg">
<rect width="22" height="22" rx="11" fill="#3425FF"/>
<path d="M11 13.6813C10.9 13.6813 10.8063 13.6658 10.7188 13.6348C10.6312 13.6038 10.55 13.5505 10.475 13.475L7.775 10.775C7.625 10.625 7.553 10.45 7.559 10.25C7.565 10.05 7.637 9.875 7.775 9.725C7.925 9.575 8.10325 9.497 8.30975 9.491C8.51625 9.485 8.69425 9.55675 8.84375 9.70625L10.25 11.1125V5.75C10.25 5.5375 10.322 5.3595 10.466 5.216C10.61 5.0725 10.788 5.0005 11 5C11.212 4.9995 11.3903 5.0715 11.5347 5.216C11.6793 5.3605 11.751 5.5385 11.75 5.75V11.1125L13.1562 9.70625C13.3062 9.55625 13.4845 9.48425 13.691 9.49025C13.8975 9.49625 14.0755 9.5745 14.225 9.725C14.3625 9.875 14.4345 10.05 14.441 10.25C14.4475 10.45 14.3755 10.625 14.225 10.775L11.525 13.475C11.45 13.55 11.3688 13.6033 11.2812 13.6348C11.1937 13.6663 11.1 13.6818 11 13.6813ZM6.5 17C6.0875 17 5.7345 16.8533 5.441 16.5598C5.1475 16.2663 5.0005 15.913 5 15.5V14C5 13.7875 5.072 13.6095 5.216 13.466C5.36 13.3225 5.538 13.2505 5.75 13.25C5.962 13.2495 6.14025 13.3215 6.28475 13.466C6.42925 13.6105 6.501 13.7885 6.5 14V15.5H15.5V14C15.5 13.7875 15.572 13.6095 15.716 13.466C15.86 13.3225 16.038 13.2505 16.25 13.25C16.462 13.2495 16.6402 13.3215 16.7847 13.466C16.9292 13.6105 17.001 13.7885 17 14V15.5C17 15.9125 16.8533 16.2658 16.5597 16.5598C16.2662 16.8538 15.913 17.0005 15.5 17H6.5Z" fill="white"/>
</svg>
