<svg width="26" height="22" viewBox="0 0 26 22" fill="none" xmlns="http://www.w3.org/2000/svg">
<path d="M11.5099 1.66452C12.3048 0.776513 13.6952 0.776513 14.4901 1.66452L15.4741 2.76362C15.8792 3.21619 16.4681 3.4601 17.0746 3.42657L18.5475 3.34514C19.7376 3.27936 20.7206 4.26245 20.6549 5.4525L20.5734 6.92542C20.5399 7.53192 20.7838 8.12079 21.2364 8.52594L22.3355 9.50988C23.2235 10.3048 23.2235 11.6952 22.3355 12.4901L21.2364 13.4741C20.7838 13.8792 20.5399 14.4681 20.5734 15.0746L20.6549 16.5475C20.7206 17.7375 19.7375 18.7206 18.5475 18.6549L17.0746 18.5734C16.4681 18.5399 15.8792 18.7838 15.4741 19.2364L14.4901 20.3355C13.6952 21.2235 12.3048 21.2235 11.5099 20.3355L10.5259 19.2364C10.1208 18.7838 9.53192 18.5399 8.92542 18.5734L7.45249 18.6549C6.26245 18.7206 5.27936 17.7376 5.34514 16.5475L5.42657 15.0746C5.4601 14.4681 5.21619 13.8792 4.76362 13.4741L3.66452 12.4901C2.77651 11.6952 2.77651 10.3048 3.66452 9.50988L4.76362 8.52594C5.21619 8.12079 5.4601 7.53192 5.42657 6.92542L5.34514 5.45249C5.27936 4.26245 6.26245 3.27936 7.45249 3.34515L8.92542 3.42657C9.53192 3.4601 10.1208 3.21619 10.5259 2.76362L11.5099 1.66452Z" fill="#FF2525"/>
<path d="M15.6379 8.0001L10.1377 13.5" stroke="white" stroke-width="1.5" stroke-linecap="round"/>
<path d="M10.2276 7.99982L15.6377 13.5" stroke="white" stroke-width="1.5" stroke-linecap="round"/>
</svg>
