<svg width="12" height="10" viewBox="0 0 12 10" fill="none" xmlns="http://www.w3.org/2000/svg">
<path d="M11.575 4.5883C11.575 4.72163 11.5543 4.84663 11.513 4.9633C11.4717 5.07996 11.4007 5.1883 11.3 5.2883L7.7 8.8883C7.5 9.0883 7.26667 9.1843 7 9.1763C6.73334 9.1683 6.5 9.0723 6.3 8.8883C6.1 8.6883 5.996 8.45063 5.988 8.1753C5.98 7.89996 6.07567 7.66263 6.275 7.4633L8.15 5.5883L1 5.5883C0.71667 5.5883 0.479337 5.4923 0.288003 5.3003C0.09667 5.1083 0.000669927 4.87096 3.2477e-06 4.5883C-0.000663431 4.30563 0.0953367 4.06796 0.288003 3.8753C0.48067 3.68263 0.718003 3.58696 1 3.5883L8.15 3.5883L6.275 1.7133C6.075 1.5133 5.979 1.27563 5.987 1.0003C5.995 0.724963 6.09934 0.487631 6.3 0.288297C6.5 0.104964 6.73334 0.00896424 7 0.00029724C7.26667 -0.00836976 7.5 0.0876309 7.7 0.288297L11.3 3.8883C11.4 3.9883 11.471 4.09663 11.513 4.2133C11.555 4.32996 11.5757 4.45496 11.575 4.5883Z" fill="#041A6A"/>
</svg>
