<svg width="282" height="17" viewBox="0 0 282 17" fill="none" xmlns="http://www.w3.org/2000/svg">
<path d="M57.8069 7.97461L57.9533 8.19434C55.683 7.90137 53.1198 8.19434 50.703 8.04786L50.8495 8.1211C44.6977 8.19434 39.0586 7.90137 32.9801 7.75489C33.0533 7.75489 33.1265 7.82813 33.1998 7.82813C32.9068 7.75489 32.6139 7.68165 32.2477 7.68165C32.1745 7.75489 32.321 7.75489 32.4674 7.75489C31.1492 8.04786 28.7324 7.6084 27.9268 7.82813C27.5607 7.82813 27.4142 7.68165 27.6339 7.6084C22.8736 7.53516 17.8203 7.46192 12.9868 7.31544C12.7671 7.38868 12.6939 7.38868 12.7671 7.53516C8.59269 7.02247 4.19857 7.24219 0.0241517 7.31544C-0.122319 7.16895 0.463564 7.16895 0.0241517 7.09571C1.34239 6.87599 2.51415 7.31544 3.75916 7.09571L3.61268 7.02247C4.49151 6.94923 3.75916 7.31544 4.71122 7.16895C5.07739 7.09571 4.63798 7.02247 4.78445 7.02247C6.68857 7.09571 8.66593 6.94923 10.4968 7.24219C10.9362 7.02247 12.5474 7.24219 13.2798 7.02247C13.7924 7.09571 14.2318 7.09571 14.4515 7.24219C21.0427 7.09571 27.9268 7.31544 34.7377 7.31544C37.9601 7.75489 41.7683 7.24219 45.5766 7.38868V7.31544C46.8216 7.46192 48.6524 7.46192 50.1172 7.38868L51.3622 7.6084C60.2969 7.24219 69.3781 7.46192 78.386 7.31544C88.639 7.16895 97.6469 6.87599 107.68 7.46192C107.68 7.38868 107.753 7.38868 107.46 7.38868C110.317 7.46192 112.953 7.31544 115.663 7.38868V7.31544C119.032 7.53516 122.547 7.46192 125.989 7.46192H127.307C127.673 7.46192 128.113 7.38868 128.479 7.31544C129.285 7.09571 130.017 6.65626 130.676 6.21681C131.994 5.26466 133.166 4.01955 134.338 2.84768C135.729 1.38284 138 0.650424 140.123 1.16312C141.149 1.38284 142.174 1.96878 142.98 2.7012C143.785 3.43362 144.444 4.23928 145.177 5.04494C145.909 5.77736 146.715 6.50978 147.667 7.02247C148.106 7.24219 148.619 7.46192 149.131 7.6084C149.644 7.75489 150.157 7.75489 150.669 7.75489C152.793 7.75489 154.917 7.82813 157.041 7.82813V7.75489C163.778 7.97461 170.223 7.46192 176.888 7.6084C183.772 7.38868 191.022 8.1211 197.979 7.82813C202.3 7.38868 207.939 8.34082 211.967 7.90137C220.243 7.16895 228.299 7.68165 236.574 8.04786C244.191 7.82813 251.881 8.41406 259.277 7.90137C262.793 8.26758 266.674 7.46192 270.556 7.6084L270.409 7.75489C271.801 7.38868 273.558 8.26758 274.437 7.75489H274.291C275.023 7.46192 276.048 8.34082 276.488 8.04786L276.634 8.19434C277.513 8.26758 276.707 8.04786 277.44 7.97461C277.733 7.97461 277.513 8.19434 278.099 8.1211C278.245 7.6084 280.296 8.26758 280.369 7.68165C279.857 7.68165 281.102 7.46192 280.003 7.31544C280.296 7.24219 281.834 7.31544 281.687 7.53516C281.834 7.82813 282.42 8.04786 281.468 8.26758L281.321 8.04786C281.028 8.26758 281.102 8.1211 280.955 8.26758C279.783 8.26758 279.564 8.56055 278.758 8.70703C278.172 8.48731 277.367 8.63379 276.927 8.63379L276.781 8.70703C276.488 8.92676 275.389 8.26758 275.755 8.63379C273.339 8.56055 270.556 8.56055 267.846 8.56055C267.48 8.41406 265.795 8.56055 266.381 8.26758C265.722 8.56055 263.672 8.70703 262.939 8.63379C262.939 8.63379 263.012 8.70703 263.086 8.70703C261.621 9.14648 261.328 8.34082 260.01 8.85352C259.79 8.48731 257.52 9 256.787 8.56055C256.421 8.63379 256.421 8.70703 256.421 8.78027C253.931 8.78027 251.221 8.92676 249.171 8.92676C247.413 8.63379 244.85 9.07324 243.385 8.63379C242.14 8.70703 240.09 8.92676 238.332 8.70703L238.479 8.78027C236.501 8.78027 234.011 8.70703 232.62 8.48731C232.034 8.92676 231.155 8.85352 230.276 9C228.958 8.78027 226.248 8.85352 224.271 8.70703C223.978 8.92676 222.586 8.63379 222.513 8.92676C216.801 8.34082 209.77 8.56055 203.692 9H203.765C202.959 8.85352 202.081 8.48731 201.275 8.34082C201.202 8.34082 201.202 8.41407 201.348 8.41407C200.25 8.34082 199.224 8.63379 198.126 8.56055C198.126 8.56055 198.199 8.63379 198.346 8.63379C197.32 8.48731 196.222 8.85352 194.977 8.63379H194.903L194.098 8.56055C194.098 8.63379 194.171 8.78027 194.537 8.78027C185.017 8.85352 175.203 8.41407 165.39 8.48731L165.756 8.56055L163.852 8.41407C163.852 8.48731 163.925 8.48731 164.071 8.48731C161.655 8.63379 159.165 8.41407 156.821 8.41407C156.821 8.48731 157.187 8.56055 156.894 8.63379C155.137 8.41406 154.111 8.92676 153.233 8.41407C153.159 8.41407 153.086 8.56055 153.306 8.56055C152.72 8.56055 152.061 8.48731 151.475 8.48731C150.889 8.48731 150.303 8.48731 149.571 8.41407C148.179 8.19434 147.081 7.46192 146.055 6.65626C145.103 5.8506 144.225 4.89845 143.346 4.01955C142.906 3.5801 142.54 3.14065 142.101 2.84768C141.661 2.55471 141.149 2.26175 140.636 2.11526C139.83 1.67581 138.805 1.52933 137.78 1.74905C136.755 1.89554 135.803 2.40823 135.07 3.06741C133.605 4.53224 132.141 6.36329 130.163 7.31544L130.237 7.38868C129.578 7.68165 128.918 7.97461 128.186 8.04786C127.454 8.1211 126.795 8.04786 126.062 8.04786C124.671 8.04786 123.279 8.04786 121.815 8.04786C118.958 8.1211 116.102 8.19434 113.246 8.1211C110.903 8.19434 109.291 8.04786 106.948 8.04786L106.875 8.19434C102.92 7.75489 98.5257 8.63379 94.3513 8.1211L94.6443 8.26758C93.9851 8.04786 92.1543 8.34082 92.374 7.90137L91.6416 8.04786C88.8587 7.46192 86.5151 8.34082 83.0731 7.90137L83.2928 7.97461C82.3407 7.90137 81.3154 7.82813 80.5831 7.90137C80.7295 7.90137 80.6563 7.97461 80.876 7.97461C78.0198 8.41406 74.7975 7.90137 71.7948 7.97461L72.161 8.19434C70.6963 7.97461 67.9866 8.19434 66.0825 8.04786L66.2289 8.1211L65.2769 7.97461V8.1211C62.6404 8.19434 60.2969 8.04786 57.8069 7.97461Z" fill="url(#paint0_linear_137_2873)"/>
<g filter="url(#filter0_f_137_2873)">
<circle cx="138.969" cy="8.70166" r="5.17334" fill="#3425FF"/>
</g>
<g filter="url(#filter1_i_137_2873)">
<path d="M138.571 3.52832L144.143 9.09961L138.571 14.6709L133 9.09961L138.571 3.52832Z" fill="#3425FF"/>
</g>
<defs>
<filter id="filter0_f_137_2873" x="130.796" y="0.52832" width="16.3467" height="16.3467" filterUnits="userSpaceOnUse" color-interpolation-filters="sRGB">
<feFlood flood-opacity="0" result="BackgroundImageFix"/>
<feBlend mode="normal" in="SourceGraphic" in2="BackgroundImageFix" result="shape"/>
<feGaussianBlur stdDeviation="1.5" result="effect1_foregroundBlur_137_2873"/>
</filter>
<filter id="filter1_i_137_2873" x="133" y="3.52832" width="11.1426" height="12.1426" filterUnits="userSpaceOnUse" color-interpolation-filters="sRGB">
<feFlood flood-opacity="0" result="BackgroundImageFix"/>
<feBlend mode="normal" in="SourceGraphic" in2="BackgroundImageFix" result="shape"/>
<feColorMatrix in="SourceAlpha" type="matrix" values="0 0 0 0 0 0 0 0 0 0 0 0 0 0 0 0 0 0 127 0" result="hardAlpha"/>
<feOffset dy="1"/>
<feGaussianBlur stdDeviation="3.5"/>
<feComposite in2="hardAlpha" operator="arithmetic" k2="-1" k3="1"/>
<feColorMatrix type="matrix" values="0 0 0 0 0 0 0 0 0 0 0 0 0 0 0 0 0 0 0.25 0"/>
<feBlend mode="normal" in2="shape" result="effect1_innerShadow_137_2873"/>
</filter>
<linearGradient id="paint0_linear_137_2873" x1="-3.98256" y1="5.01" x2="281.936" y2="5.01" gradientUnits="userSpaceOnUse">
<stop stop-color="#3425FF" stop-opacity="0"/>
<stop offset="0.25" stop-color="#3425FF"/>
<stop offset="0.500694" stop-color="#3425FF"/>
<stop offset="0.75" stop-color="#3425FF"/>
<stop offset="1" stop-color="#3425FF" stop-opacity="0"/>
</linearGradient>
</defs>
</svg>
