<svg width="45" height="44" viewBox="0 0 45 44" fill="none" xmlns="http://www.w3.org/2000/svg">
<path d="M20.5039 1.47168C21.5332 0.922174 22.7498 0.892819 23.7979 1.39746C26.5265 2.71132 31.5055 5.24167 34.6758 7.63477C37.4087 9.6977 40.7579 13.1381 42.5605 15.0615C43.2767 15.8259 43.6236 16.8522 43.5146 17.8916C43.2329 20.5793 42.5996 25.5294 41.4961 28.9639C40.3202 32.6233 37.678 37.5913 36.25 40.1533C35.7363 41.075 34.8556 41.7217 33.8232 41.9326C31.0608 42.4968 25.8463 43.4473 22.1201 43.4473C18.3494 43.4472 13.0561 42.4742 10.3213 41.9131C9.33949 41.7116 8.49321 41.1159 7.97363 40.2598C6.44179 37.7348 3.51656 32.6667 2.3252 28.9639C1.22481 25.5436 0.795649 20.6137 0.637695 17.9248C0.576517 16.8833 0.976158 15.8762 1.73047 15.1445C3.68479 13.2488 7.37047 9.77742 10.2793 7.63867C13.3209 5.40232 17.9334 2.84418 20.5039 1.47168Z" fill="#3425FF" stroke="url(#paint0_linear_137_1302)" stroke-width="1.10602"/>
<g filter="url(#filter0_f_137_1302)">
<path d="M21.0664 17.835H27.9128M16.5022 17.835H17.6432M16.5022 23.5402H17.6432M16.5022 29.2455H17.6432M21.0664 23.5402H27.9128M21.0664 29.2455H27.9128M11.3674 23.5402C11.3674 18.4306 11.3674 15.8746 12.9546 14.2874C14.5419 12.7002 17.0967 12.7002 22.2075 12.7002C27.3171 12.7002 29.8731 12.7002 31.4603 14.2874C33.0475 15.8746 33.0475 18.4294 33.0475 23.5402C33.0475 28.6499 33.0475 31.2059 31.4603 32.7931C29.8731 34.3803 27.3183 34.3803 22.2075 34.3803C17.0978 34.3803 14.5419 34.3803 12.9546 32.7931C11.3674 31.2059 11.3674 28.651 11.3674 23.5402Z" stroke="black" stroke-width="1.71159" stroke-linecap="round" stroke-linejoin="round"/>
</g>
<path d="M21.0664 17.835H27.9128M16.5022 17.835H17.6432M16.5022 23.5402H17.6432M16.5022 29.2455H17.6432M21.0664 23.5402H27.9128M21.0664 29.2455H27.9128M11.3674 23.5402C11.3674 18.4306 11.3674 15.8746 12.9546 14.2874C14.5419 12.7002 17.0967 12.7002 22.2075 12.7002C27.3171 12.7002 29.8731 12.7002 31.4603 14.2874C33.0475 15.8746 33.0475 18.4294 33.0475 23.5402C33.0475 28.6499 33.0475 31.2059 31.4603 32.7931C29.8731 34.3803 27.3183 34.3803 22.2075 34.3803C17.0978 34.3803 14.5419 34.3803 12.9546 32.7931C11.3674 31.2059 11.3674 28.651 11.3674 23.5402Z" stroke="white" stroke-width="1.10602" stroke-linecap="round" stroke-linejoin="round"/>
<path d="M21.0664 17.835H27.9128M16.5022 17.835H17.6432M16.5022 23.5402H17.6432M16.5022 29.2455H17.6432M21.0664 23.5402H27.9128M21.0664 29.2455H27.9128M11.3674 23.5402C11.3674 18.4306 11.3674 15.8746 12.9546 14.2874C14.5419 12.7002 17.0967 12.7002 22.2075 12.7002C27.3171 12.7002 29.8731 12.7002 31.4603 14.2874C33.0475 15.8746 33.0475 18.4294 33.0475 23.5402C33.0475 28.6499 33.0475 31.2059 31.4603 32.7931C29.8731 34.3803 27.3183 34.3803 22.2075 34.3803C17.0978 34.3803 14.5419 34.3803 12.9546 32.7931C11.3674 31.2059 11.3674 28.651 11.3674 23.5402Z" stroke="url(#paint1_linear_137_1302)" stroke-width="1.10602" stroke-linecap="round" stroke-linejoin="round"/>
<defs>
<filter id="filter0_f_137_1302" x="6.59399" y="7.92651" width="31.227" height="31.227" filterUnits="userSpaceOnUse" color-interpolation-filters="sRGB">
<feFlood flood-opacity="0" result="BackgroundImageFix"/>
<feBlend mode="normal" in="SourceGraphic" in2="BackgroundImageFix" result="shape"/>
<feGaussianBlur stdDeviation="1.95886" result="effect1_foregroundBlur_137_1302"/>
</filter>
<linearGradient id="paint0_linear_137_1302" x1="-1.15759" y1="0.0357008" x2="45.9534" y2="45.9483" gradientUnits="userSpaceOnUse">
<stop stop-color="#B0B0B0"/>
<stop offset="0.155751" stop-color="#F0F0F0"/>
<stop offset="0.260619" stop-color="#9E9D9D"/>
<stop offset="0.35238" stop-color="#F2F2F2"/>
<stop offset="0.473662" stop-color="#B5B5B5"/>
<stop offset="0.635856" stop-color="#C7C7C7"/>
<stop offset="0.735797" stop-color="#555555"/>
<stop offset="0.861978" stop-color="#D4D4D4"/>
<stop offset="1" stop-color="#666666"/>
</linearGradient>
<linearGradient id="paint1_linear_137_1302" x1="10.8002" y1="12.7178" x2="34.0095" y2="35.2136" gradientUnits="userSpaceOnUse">
<stop stop-color="#B0B0B0"/>
<stop offset="0.155751" stop-color="#F0F0F0"/>
<stop offset="0.260619" stop-color="#9E9D9D"/>
<stop offset="0.35238" stop-color="#F2F2F2"/>
<stop offset="0.473662" stop-color="#B5B5B5"/>
<stop offset="0.635856" stop-color="#C7C7C7"/>
<stop offset="0.735797" stop-color="#555555"/>
<stop offset="0.861978" stop-color="#D4D4D4"/>
<stop offset="1" stop-color="#666666"/>
</linearGradient>
</defs>
</svg>
