<svg width="28" height="28" viewBox="0 0 28 28" fill="none" xmlns="http://www.w3.org/2000/svg">
<path d="M9.12927 15.1663L14.8459 20.8829C15.0793 21.1163 15.1913 21.3885 15.1819 21.6996C15.1726 22.0107 15.0509 22.2829 14.8168 22.5163C14.5834 22.7302 14.3112 22.8422 14.0001 22.8523C13.689 22.8624 13.4168 22.7504 13.1834 22.5163L5.48343 14.8163C5.36677 14.6996 5.28393 14.5732 5.23493 14.4371C5.18593 14.301 5.16221 14.1552 5.16377 13.9996C5.16532 13.8441 5.18982 13.6982 5.23727 13.5621C5.28471 13.426 5.36716 13.2996 5.4846 13.1829L13.1846 5.48294C13.3985 5.26905 13.666 5.16211 13.9873 5.16211C14.3085 5.16211 14.5854 5.26905 14.8179 5.48294C15.0513 5.71628 15.1679 5.99355 15.1679 6.31478C15.1679 6.636 15.0513 6.91289 14.8179 7.14544L9.12927 12.8329H22.1668C22.4973 12.8329 22.7746 12.9449 22.9986 13.1689C23.2226 13.3929 23.3342 13.6698 23.3334 13.9996C23.3327 14.3294 23.2207 14.6067 22.9974 14.8314C22.7742 15.0562 22.4973 15.1678 22.1668 15.1663H9.12927Z" fill="black"/>
</svg>
