<svg width="21" height="21" viewBox="0 0 21 21" fill="none" xmlns="http://www.w3.org/2000/svg">
<g opacity="0.8">
<path d="M15.0305 8.35041C15.0305 8.12895 14.9425 7.91656 14.7859 7.75996C14.6293 7.60336 14.4169 7.51539 14.1955 7.51539H4.51755L6.4381 5.60318C6.59534 5.44594 6.68368 5.23268 6.68368 5.01032C6.68368 4.78795 6.59534 4.57469 6.4381 4.41745C6.28086 4.26021 6.0676 4.17188 5.84524 4.17188C5.62287 4.17187 5.40961 4.26021 5.25237 4.41745L1.91227 7.75754C1.79641 7.87497 1.71792 8.02408 1.68671 8.18607C1.6555 8.34805 1.67297 8.51565 1.73692 8.66772C1.79956 8.82021 1.90594 8.95075 2.04265 9.04288C2.17936 9.13501 2.34029 9.18461 2.50514 9.18544H14.1955C14.4169 9.18544 14.6293 9.09746 14.7859 8.94086C14.9425 8.78427 15.0305 8.57187 15.0305 8.35041ZM18.3038 11.3732C18.2411 11.2207 18.1348 11.0902 17.9981 10.998C17.8613 10.9059 17.7004 10.8563 17.5356 10.8555H5.84524C5.62377 10.8555 5.41138 10.9435 5.25479 11.1001C5.09819 11.2567 5.01021 11.469 5.01021 11.6905C5.01021 11.912 5.09819 12.1244 5.25479 12.281C5.41138 12.4376 5.62377 12.5255 5.84524 12.5255H15.5232L13.6026 14.4377C13.5243 14.5154 13.4622 14.6077 13.4198 14.7095C13.3774 14.8112 13.3556 14.9204 13.3556 15.0306C13.3556 15.1408 13.3774 15.25 13.4198 15.3517C13.4622 15.4535 13.5243 15.5458 13.6026 15.6235C13.6802 15.7017 13.7726 15.7639 13.8743 15.8062C13.9761 15.8486 14.0852 15.8705 14.1955 15.8705C14.3057 15.8705 14.4149 15.8486 14.5166 15.8062C14.6184 15.7639 14.7107 15.7017 14.7883 15.6235L18.1284 12.2834C18.2443 12.166 18.3228 12.0168 18.354 11.8549C18.3852 11.6929 18.3677 11.5253 18.3038 11.3732Z" fill="black"/>
</g>
</svg>
