<svg width="22" height="22" viewBox="0 0 22 22" fill="none" xmlns="http://www.w3.org/2000/svg">
<path d="M1.8335 11C1.8335 7.11058 1.8335 5.16633 3.1755 3.95817C4.51933 2.75 6.679 2.75 11.0002 2.75C15.3213 2.75 17.4819 2.75 18.8239 3.95817C20.1659 5.16633 20.1668 7.1115 20.1668 11C20.1668 14.8885 20.1668 16.8337 18.8239 18.0418C17.4828 19.25 15.3213 19.25 11.0002 19.25C6.679 19.25 4.51841 19.25 3.1755 18.0418C1.83258 16.8337 1.8335 14.8885 1.8335 11Z" stroke="white" stroke-width="1.375" stroke-linecap="round" stroke-linejoin="round"/>
<path d="M7.7 7.33398H6.96667C6.2755 7.33398 5.92992 7.33398 5.7145 7.54848C5.5 7.76482 5.5 8.10948 5.5 8.80065V9.53398C5.5 10.2252 5.5 10.5707 5.7145 10.7862C5.93083 11.0007 6.2755 11.0007 6.96667 11.0007H7.7C8.39117 11.0007 8.73675 11.0007 8.95217 10.7862C9.16667 10.5698 9.16667 10.2252 9.16667 9.53398V8.80065C9.16667 8.10948 9.16667 7.7639 8.95217 7.54848C8.73583 7.33398 8.39117 7.33398 7.7 7.33398Z" stroke="white" stroke-width="1.375" stroke-linejoin="round"/>
<path d="M5.5 14.6673H9.16667M12.8333 7.33398H16.5M12.8333 11.0007H16.5M12.8333 14.6673H16.5" stroke="white" stroke-width="1.375" stroke-linecap="round" stroke-linejoin="round"/>
</svg>
