<svg width="17" height="17" viewBox="0 0 17 17" fill="none" xmlns="http://www.w3.org/2000/svg">
<path d="M3.90039 5.77539H3.15039M6.90039 5.77539H6.15039M3.90039 3.52539H3.15039M6.90039 3.52539H6.15039M12.9004 10.2754H12.1504M12.9004 7.27539H12.1504" stroke="black" stroke-width="1.05" stroke-linecap="round"/>
<path d="M9.5249 5.02539V15.5254H12.5249C13.9394 15.5254 14.6459 15.5254 15.0854 15.0859C15.5249 14.6464 15.5249 13.9399 15.5249 12.5254V8.02539C15.5249 6.61089 15.5249 5.90439 15.0854 5.46489C14.6459 5.02539 13.9394 5.02539 12.5249 5.02539H9.5249ZM9.5249 5.02539C9.5249 2.90439 9.5249 1.84314 8.86565 1.18464C8.20715 0.525391 7.1459 0.525391 5.0249 0.525391C2.9039 0.525391 1.84265 0.525391 1.18415 1.18464C0.524902 1.84314 0.524902 2.90439 0.524902 5.02539V6.52539" stroke="black" stroke-width="1.05" stroke-linecap="round" stroke-linejoin="round"/>
<path d="M5.04386 9.49066C5.04823 9.69041 5.01265 9.88903 4.9392 10.0748C4.86575 10.2607 4.75591 10.4299 4.61615 10.5727C4.47638 10.7155 4.3095 10.8289 4.12529 10.9063C3.94109 10.9837 3.74328 11.0235 3.54347 11.0234C3.34367 11.0233 3.1459 10.9833 2.96177 10.9057C2.77764 10.8282 2.61087 10.7146 2.47125 10.5716C2.33162 10.4287 2.22196 10.2593 2.1487 10.0734C2.07544 9.88756 2.04005 9.68891 2.04461 9.48916C2.05357 9.09724 2.2156 8.72441 2.49602 8.45046C2.77644 8.17652 3.15295 8.02324 3.54497 8.02344C3.93699 8.02363 4.31335 8.17729 4.5935 8.45151C4.87364 8.72574 5.0353 9.09873 5.04386 9.49066ZM0.577614 14.1819C1.37111 12.9609 2.63186 12.5034 3.54386 12.5042C4.45586 12.5049 5.67911 12.9609 6.47336 14.1819C6.52436 14.2607 6.53861 14.3582 6.49211 14.4399C6.30686 14.7692 5.73011 15.4224 5.31461 15.4659C4.83536 15.5169 3.58436 15.5244 3.54461 15.5244C3.50486 15.5244 2.21486 15.5169 1.73711 15.4659C1.32011 15.4217 0.744114 14.7692 0.558114 14.4399C0.537247 14.3993 0.528024 14.3537 0.531466 14.3082C0.534907 14.2626 0.550879 14.2189 0.577614 14.1819Z" stroke="black" stroke-width="1.05" stroke-linecap="round"/>
</svg>
