<svg width="11" height="15" viewBox="0 0 11 15" fill="none" xmlns="http://www.w3.org/2000/svg">
<path d="M2.77594 11.0254V14.0254L5.02594 12.5254L7.27594 14.0254V11.0254M6.49369 1.48163L6.25144 1.14863C6.1107 0.955548 5.92634 0.798455 5.71337 0.690149C5.50041 0.581844 5.26486 0.525391 5.02594 0.525391C4.78701 0.525391 4.55147 0.581844 4.3385 0.690149C4.12553 0.798455 3.94117 0.955548 3.80044 1.14863L3.55819 1.48163L3.15094 1.41788C2.91494 1.38066 2.67349 1.39979 2.4463 1.47369C2.21911 1.54759 2.01261 1.67418 1.84368 1.84312C1.67474 2.01205 1.54815 2.21855 1.47425 2.44574C1.40035 2.67293 1.38122 2.91438 1.41844 3.15038L1.48219 3.55763L1.14919 3.79988C0.955827 3.94041 0.798467 4.12471 0.689965 4.3377C0.581464 4.55069 0.524902 4.78634 0.524902 5.02538C0.524902 5.26441 0.581464 5.50006 0.689965 5.71305C0.798467 5.92604 0.955827 6.11034 1.14919 6.25088L1.48219 6.49313L1.41844 6.89963C1.38109 7.13568 1.40011 7.37721 1.47396 7.60451C1.5478 7.8318 1.67437 8.0384 1.84332 8.20742C2.01228 8.37645 2.21882 8.50311 2.44608 8.57705C2.67334 8.65099 2.91487 8.67012 3.15094 8.63288L3.55819 8.56913L3.80044 8.90213C3.94117 9.0952 4.12553 9.2523 4.3385 9.3606C4.55147 9.46891 4.78701 9.52536 5.02594 9.52536C5.26486 9.52536 5.50041 9.46891 5.71337 9.3606C5.92634 9.2523 6.1107 9.0952 6.25144 8.90213L6.49369 8.56913L6.90019 8.63288C7.13624 8.67022 7.37777 8.6512 7.60507 8.57735C7.83236 8.50351 8.03896 8.37694 8.20798 8.20799C8.37701 8.03904 8.50367 7.83249 8.57761 7.60523C8.65155 7.37797 8.67068 7.13644 8.63344 6.90038L8.56969 6.49313L8.90269 6.25088C9.09576 6.11014 9.25286 5.92578 9.36116 5.71281C9.46947 5.49984 9.52592 5.2643 9.52592 5.02538C9.52592 4.78645 9.46947 4.55091 9.36116 4.33794C9.25286 4.12497 9.09576 3.94061 8.90269 3.79988L8.56969 3.55763L8.63344 3.15113C8.67078 2.91508 8.65176 2.67354 8.57791 2.44624C8.50407 2.21895 8.3775 2.01235 8.20855 1.84333C8.0396 1.6743 7.83305 1.54764 7.60579 1.4737C7.37853 1.39976 7.137 1.38063 6.90094 1.41788L6.49369 1.48163Z" stroke="black" stroke-width="1.05" stroke-linecap="round" stroke-linejoin="round"/>
</svg>
