<svg width="17" height="15" viewBox="0 0 17 15" fill="none" xmlns="http://www.w3.org/2000/svg">
<path d="M1 6.36328C0.447715 6.36328 0 6.811 0 7.36328C0 7.91557 0.447715 8.36328 1 8.36328V7.36328V6.36328ZM16.7071 8.07039C17.0976 7.67986 17.0976 7.0467 16.7071 6.65617L10.3431 0.292213C9.95262 -0.0983109 9.31946 -0.0983109 8.92893 0.292213C8.53841 0.682738 8.53841 1.3159 8.92893 1.70643L14.5858 7.36328L8.92893 13.0201C8.53841 13.4107 8.53841 14.0438 8.92893 14.4343C9.31946 14.8249 9.95262 14.8249 10.3431 14.4343L16.7071 8.07039ZM1 7.36328V8.36328H16V7.36328V6.36328H1V7.36328Z" fill="white"/>
</svg>
